<svg width="15" height="15" viewBox="0 0 15 15" fill="none" xmlns="http://www.w3.org/2000/svg">
<path d="M10.999 10.4268C10.999 7.77045 10.999 5.1141 10.999 2.45774C10.999 1.90928 10.789 1.48361 10.3245 1.193C10.1266 1.06612 9.90451 1.00473 9.67027 1.00473C8.22443 1.00063 6.77456 0.99654 5.32468 1.00473C4.58157 1.01291 4.00404 1.63505 4 2.40863C4 3.83708 4 5.26145 4 6.68581C4 8.62998 4 10.5783 4 12.5224C4 13.3083 4.4079 13.8158 5.16717 13.9836C5.17929 13.9877 5.1914 13.9959 5.19948 14H9.81566C9.88836 13.9795 9.95702 13.9632 10.0297 13.9427C10.583 13.7749 10.9869 13.2633 10.995 12.6739C11.003 11.9248 10.999 11.1758 10.999 10.4268ZM8.28098 12.6575C8.24463 13.03 7.94577 13.3328 7.57825 13.3697C7.08149 13.4188 6.66551 13.0013 6.71398 12.4938C6.75032 12.1213 7.04919 11.8184 7.4167 11.7816C7.9175 11.7366 8.32944 12.1541 8.28098 12.6575ZM8.81408 2.08119C8.81408 2.24081 8.68484 2.37179 8.52733 2.37179H6.47166C6.31415 2.37179 6.18491 2.24081 6.18491 2.08119C6.18491 1.98295 6.23338 1.897 6.30607 1.84379C6.3303 1.81105 6.37069 1.79058 6.41512 1.79058H6.47166H8.52733H8.5758C8.62022 1.79058 8.66061 1.81105 8.68888 1.8397C8.76158 1.89291 8.81408 1.97886 8.81408 2.08119Z" fill="white"/>
</svg>
