<svg width="25" height="25" viewBox="0 0 25 25" fill="none" xmlns="http://www.w3.org/2000/svg">
<path fill-rule="evenodd" clip-rule="evenodd" d="M12.5 25C19.4036 25 25 19.4036 25 12.5C25 5.59644 19.4036 0 12.5 0C5.59644 0 0 5.59644 0 12.5C0 19.4036 5.59644 25 12.5 25ZM10.1373 17.9767V18.75H15V17.9767L13.8039 17.7503C13.7908 17.2725 13.7843 16.7633 13.7843 16.2226V14.7891V12.2994L13.8431 9.63992L13.5294 9.4513L10 10.6396V11.3563L11.3922 11.5261C11.4183 11.9033 11.4314 12.2679 11.4314 12.62C11.4444 12.9595 11.451 13.3871 11.451 13.9026V14.7891V16.2226C11.451 16.7633 11.4444 17.2662 11.4314 17.7315L10.1373 17.9767ZM11.549 7.31996C11.8366 7.57144 12.1895 7.69719 12.6078 7.69719C13.0261 7.69719 13.3725 7.57144 13.6471 7.31996C13.9346 7.06847 14.0784 6.74783 14.0784 6.35803C14.0784 5.95565 13.9346 5.62872 13.6471 5.37723C13.3725 5.12574 13.0261 5 12.6078 5C12.1895 5 11.8366 5.12574 11.549 5.37723C11.2614 5.62872 11.1176 5.95565 11.1176 6.35803C11.1176 6.74783 11.2614 7.06847 11.549 7.31996Z" fill="#42A4F3"/>
</svg>
