<svg width="14" height="13" viewBox="0 0 14 13" fill="none" xmlns="http://www.w3.org/2000/svg">
<path fill-rule="evenodd" clip-rule="evenodd" d="M3.28609 2.43922H3.25069C2.91602 2.43922 2.64249 2.16569 2.64249 1.82781V1.62507V0.608196C2.64249 0.273527 2.91602 0 3.25069 0H3.28609C3.62076 0 3.89428 0.273527 3.89428 0.608196V1.62829V1.83102C3.89428 2.16569 3.62397 2.43922 3.28609 2.43922ZM9.58675 2.43922H9.55135C9.21346 2.43922 8.93994 2.16569 8.94316 1.82781V1.62507V0.608196C8.94316 0.273527 9.21346 0 9.55135 0H9.58675C9.92142 0 10.1949 0.270309 10.1949 0.608196V1.62829V1.83102C10.1949 2.16569 9.92464 2.43922 9.58675 2.43922ZM13.0038 3.25011C13.0038 2.35229 12.2765 1.62503 11.3787 1.62503H10.8027V1.82777C10.8027 2.50032 10.2557 3.04737 9.58311 3.04737H9.54771C8.87515 3.04737 8.3281 2.50032 8.3281 1.82777V1.62503H4.50515V1.82777C4.50515 2.50032 3.9581 3.04737 3.28554 3.04737H3.25336C2.58081 3.04737 2.03376 2.50032 2.03376 1.82777V1.62503H1.62507C0.727261 1.62503 0 2.35229 0 3.25011V4.81082H13.0038V3.25011ZM0 11.3712V5.51773H13.0006V11.3712C13.0006 12.269 12.2733 12.9995 11.3723 12.9995H1.62829C0.730478 12.9995 0 12.2722 0 11.3712ZM2.25258 10.8885C2.25258 11.4388 2.69987 11.8861 3.25015 11.8861C3.80364 11.8861 4.25093 11.4388 4.24772 10.8885C4.24772 10.3382 3.80042 9.89095 3.25015 9.89095C2.69987 9.89095 2.25258 10.3382 2.25258 10.8885ZM2.25258 7.63837C2.25258 8.18864 2.69987 8.63594 3.25015 8.63594C3.80364 8.63594 4.25093 8.18864 4.24772 7.63837C4.24772 7.08488 3.80042 6.63758 3.25015 6.63758C2.69987 6.63758 2.25258 7.0881 2.25258 7.63837ZM5.50594 10.8885C5.50594 11.4388 5.95324 11.8861 6.50351 11.8861C7.05378 11.8861 7.50108 11.4388 7.5043 10.8885C7.5043 10.3382 7.057 9.89095 6.50351 9.89095C5.95324 9.89095 5.50594 10.3382 5.50594 10.8885ZM5.50594 7.63837C5.50594 8.18864 5.95324 8.63594 6.50351 8.63594C7.05378 8.63594 7.50108 8.18864 7.5043 7.63837C7.5043 7.08488 7.057 6.63758 6.50351 6.63758C5.95324 6.63758 5.50594 7.0881 5.50594 7.63837ZM8.75287 10.8885C8.75287 11.4388 9.20339 11.8861 9.75366 11.8861C10.3039 11.8861 10.7512 11.4388 10.7512 10.8885C10.7512 10.3382 10.3071 9.89095 9.75366 9.89095C9.20017 9.89095 8.75287 10.3382 8.75287 10.8885ZM8.75287 7.63837C8.75287 8.18864 9.20339 8.63594 9.75366 8.63594C10.3039 8.63594 10.7512 8.18864 10.7512 7.63837C10.7512 7.08488 10.3071 6.63758 9.75366 6.63758C9.20017 6.63758 8.75287 7.0881 8.75287 7.63837Z" fill="white"/>
</svg>
