<svg width="15" height="14" viewBox="0 0 15 14" fill="none" xmlns="http://www.w3.org/2000/svg">
<path d="M7.01608 0C3.19355 0 0.0283921 3.16519 0.00404473 6.98776C-0.0203026 10.8103 3.1692 13.9999 6.99173 13.9999C10.8143 14.0242 14.0038 10.8103 14.0038 6.98776C14.0281 3.18953 10.8386 0 7.01608 0ZM10.2299 7.83992C9.66994 7.83992 9.10995 7.83992 8.57431 7.83992C7.96563 7.83992 7.38129 7.83992 6.77261 7.83992C6.4074 7.83992 6.18827 7.62079 6.18827 7.25558C6.18827 5.50255 6.18827 3.74953 6.18827 1.9965C6.18827 1.82607 6.23696 1.67998 6.3587 1.55825C6.43174 1.46086 6.57783 1.41216 6.72391 1.41216C7.04043 1.41216 7.25955 1.65564 7.25955 1.9965C7.25955 3.14084 7.25955 4.28518 7.25955 5.42951V6.74428H9.62125C9.81602 6.74428 10.0108 6.74428 10.2056 6.74428C10.376 6.74428 10.5221 6.81732 10.6438 6.91471C10.7412 7.0121 10.7899 7.15819 10.7899 7.30428C10.8143 7.62079 10.5464 7.83992 10.2299 7.83992Z" fill="white"/>
</svg>
