<svg width="24" height="25" viewBox="0 0 24 25" fill="none" xmlns="http://www.w3.org/2000/svg">
<path d="M20.4802 21.2337C25.1413 16.5772 25.2051 8.98656 20.4802 4.26631C15.7552 -0.453942 8.15695 -0.390155 3.49584 4.26631C-1.16528 8.92277 -1.16528 16.5772 3.49584 21.2337C8.15695 25.8902 15.7552 25.9539 20.4802 21.2337ZM15.8829 18.0443L11.988 14.1533L8.0931 18.0443C7.71 18.4271 7.07149 18.4271 6.68838 18.0443C6.30528 17.6616 6.30528 17.0237 6.68838 16.641L10.5833 12.75L6.68838 8.85898C6.30528 8.47626 6.30528 7.83839 6.68838 7.45567C7.07149 7.07294 7.71 7.07294 8.0931 7.45567L11.988 11.3467L15.8829 7.45567C16.266 7.07294 16.9045 7.07294 17.2876 7.45567C17.6707 7.83839 17.6707 8.47626 17.2876 8.85898L13.3927 12.75L17.2876 16.641C17.6707 17.0237 17.6707 17.6616 17.2876 18.0443C16.9045 18.4271 16.266 18.4271 15.8829 18.0443Z" fill="black"/>
</svg>
