<svg width="110" height="40" viewBox="0 0 110 40" fill="none" xmlns="http://www.w3.org/2000/svg">
<rect width="110" height="40" fill="white"/>
<path d="M24.2638 20.9581C23.7332 20.9581 23.1929 20.8561 22.6664 21.0201C22.4885 25.4514 19.0993 28.0496 15.7361 28.226C14.095 28.3212 12.4732 27.833 11.1573 26.8477C9.20699 25.4087 8.19255 23.4212 8.08642 20.9788C7.48133 20.9402 6.94378 20.8823 6.35385 21.0229C6.39227 22.7058 6.87131 24.3492 7.7432 25.7891C7.33797 26.1254 6.96859 26.4287 6.60196 26.7347C5.55167 27.6168 4.38975 28.3625 3.39873 29.3163C2.93699 29.7615 2.87496 30.4189 3.21954 30.8559C3.69644 31.461 4.2905 31.6002 4.90523 31.217C5.18651 31.0213 5.45706 30.8105 5.71569 30.5857L9.35723 27.6981C13.0126 30.7621 17.437 30.4176 20.5341 28.3776C23.1171 26.6795 24.8276 22.6534 24.2638 20.9581Z" fill="#FF9040"/>
<path d="M15.3855 11.8064L23.1469 19.7524C23.5893 19.3127 24.0566 19.0178 24.3681 18.5243L15.3924 9.28955L6.44434 18.4747L7.6228 19.7704L15.3855 11.8064Z" fill="#2775FF"/>
<path d="M15.7305 23.6843H18.0957V21.2915H15.7305V23.6843Z" fill="#2775FF"/>
<path d="M12.665 23.6707H15.062V21.2793H12.665V23.6707Z" fill="#2775FF"/>
<path d="M12.6797 18.2212V20.636H15.0339V18.2212H12.6797Z" fill="#2775FF"/>
<path d="M18.1054 18.2197H15.7402V20.6166H18.1054V18.2197Z" fill="#2775FF"/>
<path d="M29.2712 19.5693H28.0185V14.4826H29.2712V19.5693ZM31.4671 16.1225C31.7252 15.8492 32.1352 15.6442 32.6439 15.6442C33.3651 15.6442 33.8206 16.0466 34.0104 16.5856C34.0864 16.783 34.1167 17.0032 34.1167 17.231V19.5693H32.9096V17.4891C32.9096 17.0867 32.6742 16.7375 32.2567 16.7375C31.6948 16.7375 31.4671 17.1854 31.4671 17.8004V19.5693H30.2523V15.7581H31.4671V16.1225ZM34.8847 16.9349C34.8847 16.0997 35.6515 15.6442 36.5246 15.6442C37.4128 15.6442 38.1037 16.039 38.2556 16.7375L37.0408 16.7299C36.9269 16.6008 36.7447 16.5097 36.5094 16.5097C36.274 16.5097 36.0766 16.6084 36.0766 16.8058C36.0766 16.9425 36.1753 17.0336 36.3651 17.0715L37.261 17.2537C37.8532 17.3828 38.3163 17.7472 38.3163 18.4002C38.3163 19.3036 37.5039 19.6832 36.5929 19.6832C35.6591 19.6832 34.9302 19.3568 34.8012 18.5748L36.0994 18.5824C36.1981 18.719 36.4335 18.7798 36.6536 18.7798C36.8966 18.7798 37.1471 18.6887 37.1471 18.4761C37.1471 18.3394 37.0256 18.2407 36.7675 18.1952L35.9931 18.0433C35.3933 17.937 34.8847 17.603 34.8847 16.9349ZM41.4718 15.6442C42.1551 15.6442 42.6031 15.9783 42.9295 16.3882C43.1573 16.6843 43.3319 17.1702 43.3319 17.6637C43.3319 18.2863 43.089 18.8025 42.7777 19.129C42.4816 19.4403 42.0337 19.6832 41.4718 19.6832C40.9859 19.6832 40.5912 19.5466 40.2875 19.2657V20.86H39.0727V15.7581H40.2875V16.0618C40.5912 15.7885 40.9859 15.6442 41.4718 15.6442ZM40.2875 17.6637C40.2875 18.2179 40.6899 18.6507 41.2213 18.6507C41.7603 18.6507 42.1324 18.2407 42.1324 17.6637C42.1324 17.1247 41.7755 16.6767 41.2137 16.6767C40.6899 16.6767 40.2875 17.1323 40.2875 17.6637ZM47.7091 18.4988C47.4206 19.2049 46.8208 19.6908 45.8186 19.6908C45.2189 19.6908 44.733 19.4479 44.3989 19.129C44.0649 18.8025 43.8067 18.3015 43.8067 17.6713C43.8067 16.7071 44.3609 16.077 45.0518 15.7961C45.3024 15.6974 45.5605 15.6518 45.8262 15.6518C46.7525 15.6518 47.3598 16.1681 47.6331 16.8438C47.7394 17.0943 47.7926 17.3676 47.8002 17.6637L47.7926 17.9826H44.9987C45.0898 18.3698 45.3707 18.719 45.8186 18.719C46.1982 18.719 46.4716 18.5672 46.631 18.2787L47.7091 18.4988ZM46.593 17.2386C46.5019 16.8969 46.2362 16.6388 45.8262 16.6388C45.4314 16.6388 45.1202 16.9121 45.0215 17.2386H46.593ZM50.3677 18.6203C50.7321 18.6203 50.9599 18.4381 51.0889 18.1952H52.3037C52.167 18.8329 51.7343 19.3036 51.1952 19.5238C50.9371 19.6301 50.6562 19.6832 50.3601 19.6832C49.7451 19.6832 49.2365 19.4479 48.9024 19.129C48.5532 18.8101 48.2874 18.3015 48.2874 17.6637C48.2874 16.9425 48.6291 16.411 49.0467 16.0846C49.3579 15.8492 49.8135 15.6442 50.3677 15.6442C50.8308 15.6442 51.2408 15.7809 51.6052 16.0466C51.9696 16.3199 52.205 16.6692 52.3113 17.1095H51.0738C50.9447 16.8817 50.6866 16.7071 50.3677 16.7071C49.8286 16.7071 49.4566 17.1095 49.4566 17.6637C49.4566 18.2028 49.8059 18.6203 50.3677 18.6203ZM55.0373 18.5975C55.2119 18.5975 55.4625 18.514 55.5915 18.4457L55.8725 19.4023C55.5232 19.5921 55.174 19.6832 54.8323 19.6832C53.8605 19.6832 53.3139 19.1442 53.3139 18.1648V16.7223H52.623V15.7581H53.3139V14.6345H54.5286V15.7581H55.6523V16.7223H54.5286V18.0433C54.5286 18.4153 54.6957 18.5975 55.0373 18.5975ZM56.4085 14.6345C56.4085 14.2549 56.7122 13.9436 57.107 13.9436C57.4866 13.9436 57.813 14.2397 57.813 14.6421C57.813 15.0293 57.4942 15.3178 57.107 15.3178C56.7122 15.3178 56.4085 15.0444 56.4085 14.6345ZM57.7143 19.5769H56.4996V15.7657H57.7143V19.5769ZM60.6219 15.6594C61.5178 15.6594 62.2239 16.1529 62.52 16.821C62.6414 17.0943 62.7098 17.3828 62.7098 17.6713C62.7098 18.6355 62.1252 19.2657 61.4191 19.539C61.161 19.6301 60.8953 19.6832 60.6219 19.6832C60.0449 19.6832 59.6274 19.5086 59.2402 19.2201C58.8302 18.9012 58.5113 18.3394 58.5113 17.6713C58.5113 17.0336 58.7771 16.5401 59.1263 16.2212C59.4755 15.9023 59.9842 15.6594 60.6219 15.6594ZM59.6805 17.6713C59.6805 18.2255 60.0829 18.6583 60.6219 18.6583C61.1382 18.6583 61.5406 18.2103 61.5406 17.6713C61.5406 17.1399 61.1306 16.6843 60.6219 16.6843C60.0753 16.6843 59.6805 17.1171 59.6805 17.6713ZM64.6497 16.1225C64.9079 15.8492 65.3178 15.6442 65.8265 15.6442C66.5478 15.6442 67.0033 16.0466 67.1931 16.5856C67.269 16.783 67.2994 17.0032 67.2994 17.231V19.5693H66.0922V17.4891C66.0922 17.0867 65.8569 16.7375 65.4393 16.7375C64.8775 16.7375 64.6497 17.1854 64.6497 17.8004V19.5693H63.435V15.7581H64.6497V16.1225ZM72.6333 18.5444C73.2786 18.5444 73.7114 18.1876 73.9012 17.6637H75.1994C75.0324 18.6279 74.4098 19.2808 73.5443 19.5466C73.2558 19.6377 72.9522 19.6832 72.6333 19.6832C71.8209 19.6832 71.1604 19.3492 70.7201 18.9164C70.2873 18.4913 69.9305 17.8383 69.9305 17.026C69.9305 16.2212 70.2873 15.5759 70.7201 15.1431C71.1604 14.718 71.8209 14.3687 72.6333 14.3687C73.271 14.3687 73.8252 14.551 74.296 14.9002C74.7743 15.257 75.0704 15.7277 75.1918 16.3199H73.8632C73.8252 16.2364 73.7721 16.1149 73.719 16.0314C73.5064 15.7353 73.1344 15.5152 72.6333 15.5152C71.95 15.5152 71.5021 15.9403 71.2971 16.4338C71.2212 16.6236 71.1832 16.821 71.1832 17.026C71.1832 17.7245 71.5856 18.2255 72.0715 18.4305C72.2537 18.5064 72.4359 18.5444 72.6333 18.5444ZM77.8768 15.6594C78.7727 15.6594 79.4788 16.1529 79.7749 16.821C79.8963 17.0943 79.9647 17.3828 79.9647 17.6713C79.9647 18.6355 79.3801 19.2657 78.674 19.539C78.4159 19.6301 78.1502 19.6832 77.8768 19.6832C77.2998 19.6832 76.8823 19.5086 76.4951 19.2201C76.0851 18.9012 75.7662 18.3394 75.7662 17.6713C75.7662 17.0336 76.032 16.5401 76.3812 16.2212C76.7304 15.9023 77.2391 15.6594 77.8768 15.6594ZM76.9354 17.6713C76.9354 18.2255 77.3378 18.6583 77.8768 18.6583C78.3931 18.6583 78.7955 18.2103 78.7955 17.6713C78.7955 17.1399 78.3855 16.6843 77.8768 16.6843C77.3302 16.6843 76.9354 17.1171 76.9354 17.6713ZM84.281 16.2895C84.5619 15.9251 85.0098 15.6442 85.6324 15.6442C86.3157 15.6442 86.7788 16.0542 86.9762 16.5705C87.0521 16.7603 87.0825 16.9652 87.0825 17.1854V19.5693H85.8753V17.4435C85.8753 17.0563 85.6172 16.7451 85.2452 16.7451C84.7213 16.7451 84.5011 17.1854 84.5011 17.7017V19.5693H83.2864V17.4435C83.2864 17.0563 83.0207 16.7375 82.6411 16.7375C82.1324 16.7375 81.9122 17.1626 81.9122 17.7017V19.5693H80.6975V15.7581H81.9122V16.1073C82.1855 15.8037 82.5652 15.6442 83.0359 15.6442C83.6053 15.6442 84.0456 15.9251 84.281 16.2895ZM90.4242 15.6442C91.1075 15.6442 91.5554 15.9783 91.8819 16.3882C92.1096 16.6843 92.2843 17.1702 92.2843 17.6637C92.2843 18.2863 92.0413 18.8025 91.73 19.129C91.4339 19.4403 90.986 19.6832 90.4242 19.6832C89.9383 19.6832 89.5435 19.5466 89.2398 19.2657V20.86H88.0251V15.7581H89.2398V16.0618C89.5435 15.7885 89.9383 15.6442 90.4242 15.6442ZM89.2398 17.6637C89.2398 18.2179 89.6422 18.6507 90.1736 18.6507C90.7127 18.6507 91.0847 18.2407 91.0847 17.6637C91.0847 17.1247 90.7279 16.6767 90.1661 16.6767C89.6422 16.6767 89.2398 17.1323 89.2398 17.6637ZM95.31 17.1323C95.31 16.821 95.0823 16.6008 94.771 16.6008C94.5053 16.6008 94.323 16.6767 94.2168 16.8438H92.9868C93.0931 16.3427 93.412 16.0238 93.8599 15.8188C94.1029 15.705 94.3914 15.6442 94.733 15.6442C95.5378 15.6442 96.1148 15.9479 96.3577 16.5173C96.4336 16.7071 96.4792 16.9197 96.4792 17.155V19.5693H95.31V19.2884C94.9987 19.5542 94.6191 19.6832 94.1712 19.6832C93.3664 19.6832 92.7515 19.2277 92.7515 18.4381C92.7515 17.6106 93.4424 17.2082 94.3382 17.2082H95.31V17.1323ZM93.9738 18.3774C93.9738 18.6431 94.2319 18.7722 94.5053 18.7722C94.8089 18.7722 95.0367 18.6431 95.181 18.4533C95.2645 18.347 95.3024 18.2179 95.3024 18.0661V17.9826H94.4673C94.2016 17.9826 93.9738 18.1268 93.9738 18.3774ZM98.5492 16.1225C98.8073 15.8492 99.2173 15.6442 99.726 15.6442C100.447 15.6442 100.903 16.0466 101.093 16.5856C101.168 16.783 101.199 17.0032 101.199 17.231V19.5693H99.9917V17.4891C99.9917 17.0867 99.7563 16.7375 99.3388 16.7375C98.777 16.7375 98.5492 17.1854 98.5492 17.8004V19.5693H97.3345V15.7581H98.5492V16.1225ZM106.056 15.7505L103.854 20.86H102.54L103.155 19.4403L101.576 15.7505H102.882L103.786 17.975L104.75 15.7505H106.056Z" fill="black"/>
<path opacity="0.9" d="M29.5615 23.3259C29.9824 23.3259 30.3331 23.4343 30.6201 23.6511C30.9071 23.868 31.0857 24.1996 31.1622 24.5567H30.6584C30.6201 24.3654 30.5436 24.2697 30.4161 24.1294C30.2885 23.9891 30.1482 23.8999 29.9888 23.8488C29.8293 23.7978 29.6827 23.7723 29.5487 23.7723C29.4148 23.7723 29.2681 23.7914 29.1151 23.8425C28.962 23.8935 28.8345 23.9764 28.7324 24.1039C28.6304 24.2251 28.5794 24.3718 28.5794 24.544C28.5794 24.7225 28.6304 24.8628 28.7452 24.9649C28.8536 25.0669 29.013 25.1371 29.2235 25.1817L30.1546 25.3922C30.2949 25.4177 30.4543 25.4751 30.6265 25.5516C30.7987 25.6281 30.9454 25.7429 31.0602 25.9024C31.175 26.0554 31.2324 26.2595 31.2324 26.5018C31.2324 26.6421 31.2068 26.7824 31.1558 26.9291C31.1048 27.0758 31.0155 27.2097 30.8944 27.3373C30.7668 27.4584 30.601 27.5605 30.3969 27.6434C30.1865 27.7263 29.9378 27.7709 29.6444 27.7709C29.4212 27.7709 29.2107 27.739 29.0067 27.6816C28.8026 27.6242 28.624 27.5413 28.471 27.4329C28.3179 27.3181 28.1904 27.1842 28.0947 27.0248C27.9927 26.8653 27.9353 26.6868 27.9097 26.4954H28.4391C28.4837 26.7888 28.6176 26.91 28.8408 27.0758C29.0704 27.2416 29.351 27.3245 29.6827 27.3245C30.0015 27.3245 30.2566 27.248 30.4416 27.1013C30.6329 26.9546 30.7222 26.7633 30.7222 26.5273C30.7222 26.336 30.6711 26.1893 30.5564 26.0873C30.4479 25.9853 30.2694 25.9087 30.027 25.8513L29.0641 25.6409C28.3817 25.4878 28.0373 25.1243 28.0373 24.5504C28.0373 24.3718 28.0756 24.2124 28.1457 24.0593C28.2222 23.9062 28.3243 23.7787 28.4582 23.6703C28.5921 23.5619 28.7516 23.479 28.9429 23.4152C29.1342 23.3578 29.3383 23.3259 29.5615 23.3259ZM32.7285 27.6816H32.2438V23.0899H32.7285V27.6816ZM35.3407 24.4674C35.5639 24.4674 35.7807 24.5121 35.9848 24.5886C36.1889 24.6715 36.3675 24.7863 36.5205 24.933C36.6736 25.0797 36.7884 25.2519 36.8776 25.4559C36.9606 25.66 37.0052 25.8768 37.0052 26.1064C37.0052 26.3424 36.9606 26.5592 36.8776 26.7633C36.7884 26.9674 36.6736 27.1459 36.5205 27.2926C36.3675 27.4457 36.1889 27.5605 35.9848 27.637C35.7807 27.7199 35.5639 27.7582 35.3407 27.7582C35.1111 27.7582 34.8943 27.7199 34.6902 27.637C34.4861 27.5605 34.3076 27.4457 34.1545 27.2926C34.0015 27.1459 33.8803 26.9674 33.7974 26.7633C33.7081 26.5592 33.6698 26.3424 33.6698 26.1064C33.6698 25.9342 33.6953 25.7557 33.7527 25.5644C33.8101 25.3794 33.9185 25.1945 34.0716 25.0159C34.2247 24.8373 34.4224 24.697 34.6519 24.6077C34.8815 24.5185 35.1111 24.4674 35.3407 24.4674ZM35.3407 27.3309C35.4938 27.3309 35.6468 27.3054 35.7935 27.2416C35.9338 27.1842 36.0613 27.1013 36.1761 26.9929C36.2846 26.8845 36.3675 26.7505 36.4312 26.5975C36.495 26.4444 36.5269 26.285 36.5269 26.1064C36.5269 25.9342 36.495 25.7748 36.4312 25.6218C36.3675 25.4687 36.2846 25.3411 36.1761 25.2327C36.0613 25.1307 35.9338 25.0478 35.7935 24.984C35.6468 24.9266 35.4938 24.8947 35.3407 24.8947C35.1813 24.8947 35.0346 24.9202 34.907 24.9713C34.7795 25.0223 34.6583 25.0924 34.5563 25.1753C34.4542 25.2646 34.3586 25.3858 34.2693 25.5452C34.18 25.7047 34.1418 25.8896 34.1418 26.1064C34.1418 26.3296 34.1928 26.5401 34.3012 26.7314C34.4032 26.9291 34.5563 27.0758 34.7476 27.1778C34.9389 27.2799 35.1366 27.3309 35.3407 27.3309ZM40.8574 24.5376L40.8638 27.4329C40.8574 27.8857 40.7108 28.2428 40.4238 28.5043C40.1368 28.7658 39.7542 28.8997 39.2822 28.8997C38.9952 28.8997 38.7465 28.8551 38.5297 28.7785C38.3129 28.6956 38.1407 28.5872 38.0131 28.4597C37.8856 28.3258 37.7389 28.1472 37.6751 27.8602H38.1534C38.2682 28.077 38.4149 28.1791 38.5935 28.2875C38.772 28.4023 39.0016 28.4533 39.2822 28.4533C39.6139 28.4533 39.8753 28.3576 40.0794 28.1599C40.2835 27.9622 40.3855 27.6944 40.3855 27.3628V26.9801C40.258 27.1459 40.0922 27.2735 39.8881 27.3628C39.684 27.4521 39.4608 27.4967 39.2057 27.4967C39.0016 27.4967 38.8039 27.4648 38.619 27.3883C38.4277 27.3118 38.2618 27.2097 38.1215 27.0694C37.9749 26.9291 37.8601 26.7697 37.7772 26.5784C37.6943 26.387 37.656 26.1893 37.656 25.9725C37.656 25.7621 37.6943 25.5644 37.7772 25.373C37.8601 25.1881 37.9749 25.0287 38.1215 24.8884C38.2618 24.7544 38.4277 24.6524 38.619 24.5759C38.8039 24.4993 39.0016 24.4611 39.2057 24.4611C39.4608 24.4611 39.684 24.5057 39.8881 24.595C40.0922 24.6843 40.258 24.8118 40.3855 24.9713V24.5376H40.8574ZM39.2759 27.0822C39.3396 27.0822 39.4225 27.0694 39.5118 27.0503C39.6011 27.0375 39.6968 27.0056 39.7924 26.9546C39.8817 26.91 39.9774 26.8462 40.0666 26.7569C40.1559 26.6676 40.2325 26.5592 40.2962 26.4189C40.3536 26.285 40.3855 26.1383 40.3855 25.9789C40.3855 25.8131 40.3472 25.6473 40.2707 25.4814C40.1942 25.3156 40.0666 25.1753 39.8817 25.0605C39.6968 24.9457 39.4927 24.8884 39.2759 24.8884C39.0335 24.8884 38.8294 24.9394 38.6572 25.0414C38.4787 25.1434 38.3511 25.2774 38.2618 25.4368C38.1726 25.5899 38.1279 25.7748 38.1279 25.9789C38.1279 26.183 38.1726 26.3615 38.2618 26.521C38.3511 26.6804 38.4787 26.8143 38.6572 26.9227C38.8294 27.0248 39.0335 27.0822 39.2759 27.0822ZM43.2902 24.4611C43.6856 24.4611 43.9981 24.5695 44.234 24.7736C44.47 24.9776 44.5912 25.271 44.5912 25.6409V27.6816H44.1192V27.2033C43.9917 27.3755 43.8259 27.5095 43.6218 27.6115C43.4177 27.7135 43.1945 27.7645 42.9394 27.7645C42.595 27.7645 42.3208 27.6753 42.1104 27.4967C41.8999 27.3181 41.7979 27.0885 41.7979 26.8016C41.7979 26.5082 41.9063 26.2722 42.1295 26.0937C42.3463 25.9151 42.6588 25.8194 43.0606 25.8194H44.1192V25.6728C44.1192 25.5516 44.0937 25.4304 44.0427 25.3093C43.9917 25.1881 43.9024 25.0861 43.7748 25.0095C43.6473 24.933 43.4942 24.8884 43.3157 24.8884C43.0733 24.8884 42.8756 24.9457 42.7226 25.0605C42.5631 25.1753 42.4675 25.2264 42.4356 25.4241H41.9701C42.0211 25.1371 42.1678 24.9075 42.4101 24.7289C42.6524 24.5504 42.9458 24.4611 43.2902 24.4611ZM43.0096 27.3628C43.1562 27.3628 43.3157 27.3373 43.4879 27.2735C43.6537 27.2097 43.8004 27.0949 43.9279 26.9291C44.0555 26.7633 44.1192 26.5784 44.1192 26.3743V26.2085H43.0542C42.8055 26.2085 42.6142 26.2595 42.4739 26.3743C42.3336 26.4827 42.2634 26.623 42.2634 26.7952C42.2634 26.8717 42.2825 26.9546 42.3272 27.0439C42.3718 27.1332 42.4547 27.2097 42.5823 27.2735C42.7035 27.3373 42.8438 27.3628 43.0096 27.3628ZM47.3371 24.4611C47.471 24.4611 47.6113 24.4866 47.758 24.5248C47.9047 24.5695 48.0386 24.646 48.1598 24.7481C48.2873 24.8565 48.3893 24.9968 48.4722 25.1753C48.5551 25.3539 48.5934 25.558 48.5934 25.8003V27.6816H48.1087V25.8896C48.1087 25.5962 48.0322 25.3603 47.8664 25.1817C47.707 25.0031 47.4965 24.9075 47.235 24.9075C46.9034 24.9075 46.6419 25.0223 46.4442 25.2391C46.2465 25.4623 46.1445 25.7748 46.1445 26.1702V27.6816H45.6598V24.5376H46.1445V25.0605C46.272 24.8692 46.4379 24.7225 46.6419 24.6205C46.846 24.5185 47.0756 24.4611 47.3371 24.4611ZM54.3795 24.5376L54.3858 27.4329C54.3795 27.8857 54.2328 28.2428 53.9458 28.5043C53.6588 28.7658 53.2762 28.8997 52.8042 28.8997C52.5173 28.8997 52.2685 28.8551 52.0517 28.7785C51.8349 28.6956 51.6627 28.5872 51.5351 28.4597C51.4076 28.3258 51.2609 28.1472 51.1971 27.8602H51.6754C51.7902 28.077 51.9369 28.1791 52.1155 28.2875C52.2941 28.4023 52.5236 28.4533 52.8042 28.4533C53.1359 28.4533 53.3973 28.3576 53.6014 28.1599C53.8055 27.9622 53.9075 27.6944 53.9075 27.3628V26.9801C53.78 27.1459 53.6142 27.2735 53.4101 27.3628C53.206 27.4521 52.9828 27.4967 52.7277 27.4967C52.5236 27.4967 52.3259 27.4648 52.141 27.3883C51.9497 27.3118 51.7839 27.2097 51.6436 27.0694C51.4969 26.9291 51.3821 26.7697 51.2992 26.5784C51.2163 26.387 51.178 26.1893 51.178 25.9725C51.178 25.7621 51.2163 25.5644 51.2992 25.373C51.3821 25.1881 51.4969 25.0287 51.6436 24.8884C51.7839 24.7544 51.9497 24.6524 52.141 24.5759C52.3259 24.4993 52.5236 24.4611 52.7277 24.4611C52.9828 24.4611 53.206 24.5057 53.4101 24.595C53.6142 24.6843 53.78 24.8118 53.9075 24.9713V24.5376H54.3795ZM52.7979 27.0822C52.8616 27.0822 52.9445 27.0694 53.0338 27.0503C53.1231 27.0375 53.2188 27.0056 53.3144 26.9546C53.4037 26.91 53.4994 26.8462 53.5887 26.7569C53.6779 26.6676 53.7545 26.5592 53.8182 26.4189C53.8756 26.285 53.9075 26.1383 53.9075 25.9789C53.9075 25.8131 53.8693 25.6473 53.7927 25.4814C53.7162 25.3156 53.5887 25.1753 53.4037 25.0605C53.2188 24.9457 53.0147 24.8884 52.7979 24.8884C52.5555 24.8884 52.3515 24.9394 52.1793 25.0414C52.0007 25.1434 51.8731 25.2774 51.7839 25.4368C51.6946 25.5899 51.6499 25.7748 51.6499 25.9789C51.6499 26.183 51.6946 26.3615 51.7839 26.521C51.8731 26.6804 52.0007 26.8143 52.1793 26.9227C52.3515 27.0248 52.5555 27.0822 52.7979 27.0822ZM56.9908 24.4674C57.214 24.4674 57.4308 24.5121 57.6349 24.5886C57.8389 24.6715 58.0175 24.7863 58.1706 24.933C58.3236 25.0797 58.4384 25.2519 58.5277 25.4559C58.6106 25.66 58.6552 25.8768 58.6552 26.1064C58.6552 26.3424 58.6106 26.5592 58.5277 26.7633C58.4384 26.9674 58.3236 27.1459 58.1706 27.2926C58.0175 27.4457 57.8389 27.5605 57.6349 27.637C57.4308 27.7199 57.214 27.7582 56.9908 27.7582C56.7612 27.7582 56.5443 27.7199 56.3403 27.637C56.1362 27.5605 55.9576 27.4457 55.8046 27.2926C55.6515 27.1459 55.5303 26.9674 55.4474 26.7633C55.3581 26.5592 55.3199 26.3424 55.3199 26.1064C55.3199 25.9342 55.3454 25.7557 55.4028 25.5644C55.4602 25.3794 55.5686 25.1945 55.7217 25.0159C55.8747 24.8373 56.0724 24.697 56.302 24.6077C56.5316 24.5185 56.7612 24.4674 56.9908 24.4674ZM56.9908 27.3309C57.1438 27.3309 57.2969 27.3054 57.4435 27.2416C57.5838 27.1842 57.7114 27.1013 57.8262 26.9929C57.9346 26.8845 58.0175 26.7505 58.0813 26.5975C58.1451 26.4444 58.1769 26.285 58.1769 26.1064C58.1769 25.9342 58.1451 25.7748 58.0813 25.6218C58.0175 25.4687 57.9346 25.3411 57.8262 25.2327C57.7114 25.1307 57.5838 25.0478 57.4435 24.984C57.2969 24.9266 57.1438 24.8947 56.9908 24.8947C56.8313 24.8947 56.6846 24.9202 56.5571 24.9713C56.4295 25.0223 56.3084 25.0924 56.2063 25.1753C56.1043 25.2646 56.0086 25.3858 55.9194 25.5452C55.8301 25.7047 55.7918 25.8896 55.7918 26.1064C55.7918 26.3296 55.8428 26.5401 55.9512 26.7314C56.0533 26.9291 56.2063 27.0758 56.3977 27.1778C56.589 27.2799 56.7867 27.3309 56.9908 27.3309ZM62.4756 26.0299V26.2085H59.778C59.7843 26.336 59.8099 26.4699 59.8609 26.5975C59.9055 26.7314 59.9757 26.8526 60.0713 26.961C60.167 27.0694 60.2882 27.1587 60.4285 27.2288C60.5688 27.3054 60.7282 27.3373 60.9004 27.3373C61.1364 27.3373 61.3468 27.2862 61.5317 27.1778C61.7167 27.0694 61.8315 26.9993 61.9399 26.7633H62.4054C62.2779 27.0885 62.0866 27.3373 61.8251 27.5095C61.5636 27.6816 61.2575 27.7645 60.9004 27.7645C60.6963 27.7645 60.4922 27.7263 60.3009 27.6498C60.1096 27.5732 59.9374 27.4584 59.7843 27.3118C59.6313 27.1715 59.5165 26.9929 59.4336 26.7888C59.3443 26.5847 59.306 26.3615 59.306 26.1192C59.306 25.9406 59.3316 25.7557 59.389 25.5644C59.4463 25.373 59.5548 25.1881 59.7078 25.0031C59.8609 24.8246 60.0522 24.6843 60.2754 24.595C60.4986 24.5057 60.7154 24.4611 60.9323 24.4611C61.1364 24.4611 61.334 24.4993 61.519 24.5759C61.7039 24.6524 61.8697 24.7544 62.0101 24.8947C62.1504 25.035 62.2588 25.2072 62.3417 25.3985C62.4182 25.5962 62.4628 25.8067 62.4756 26.0299ZM60.9323 24.8884C60.8111 24.8884 60.6708 24.9202 60.505 24.9713C60.3392 25.0287 60.1861 25.1307 60.0522 25.2837C59.9119 25.4368 59.829 25.6281 59.7971 25.845H61.9845C61.959 25.66 61.8953 25.4878 61.7932 25.3348C61.6912 25.1817 61.5636 25.0733 61.4106 24.9968C61.2511 24.9266 61.0917 24.8884 60.9323 24.8884ZM63.1494 26.8335H63.6341C63.6532 26.9227 63.7489 27.0822 63.9211 27.197C64.0933 27.3118 64.3037 27.3628 64.5588 27.3628C64.782 27.3628 64.9606 27.3181 65.1009 27.2161C65.2412 27.1204 65.3113 26.9929 65.3113 26.8271C65.3113 26.7059 65.2667 26.6102 65.1774 26.5401C65.0881 26.4699 64.9606 26.4125 64.7948 26.3743L64.0741 26.2148C63.8063 26.1638 63.6086 26.0682 63.4683 25.9279C63.328 25.7939 63.2578 25.6218 63.2578 25.4113C63.2578 25.1307 63.3662 24.9011 63.5831 24.7225C63.7999 24.5504 64.0933 24.4611 64.4504 24.4611C64.7948 24.4611 65.0754 24.544 65.305 24.7034C65.5282 24.8692 65.6685 25.0797 65.7323 25.3348H65.2667C65.2284 25.2391 65.1392 25.1243 64.9925 25.0159C64.8458 24.9139 64.6609 24.8565 64.4376 24.8565C64.3356 24.8565 64.2272 24.8756 64.1188 24.9075C64.004 24.9394 63.9147 24.9968 63.8446 25.0797C63.7744 25.169 63.7425 25.2646 63.7425 25.373C63.7425 25.4623 63.768 25.5452 63.8318 25.6218C63.8892 25.6983 64.0167 25.7621 64.2208 25.8067L64.9797 25.9725C65.1583 26.0108 65.3113 26.0745 65.4389 26.1574C65.5664 26.2404 65.6557 26.336 65.7067 26.4508C65.7578 26.5656 65.7897 26.6804 65.7897 26.7952C65.7897 27.1013 65.6685 27.3373 65.4389 27.5095C65.2093 27.6816 64.9032 27.7645 64.5206 27.7645C64.1507 27.7645 63.8382 27.688 63.5831 27.5222C63.328 27.3628 63.1877 27.1332 63.1494 26.8335ZM70.1334 24.4611C70.2673 24.4611 70.4076 24.4866 70.5543 24.5248C70.7009 24.5695 70.8349 24.646 70.956 24.7481C71.0836 24.8565 71.1856 24.9968 71.2685 25.1753C71.3514 25.3539 71.3897 25.558 71.3897 25.8003V27.6816H70.905V25.8896C70.905 25.5962 70.8285 25.3603 70.6627 25.1817C70.5032 25.0031 70.2928 24.9075 70.0313 24.9075C69.6997 24.9075 69.4382 25.0223 69.2405 25.2391C69.0428 25.4623 68.9408 25.7748 68.9408 26.1702V27.6816H68.4561V23.0899H68.9408V25.0605C69.0683 24.8692 69.2341 24.7225 69.4382 24.6205C69.6423 24.5185 69.8719 24.4611 70.1334 24.4611ZM75.4371 26.0299V26.2085H72.7395C72.7459 26.336 72.7714 26.4699 72.8224 26.5975C72.867 26.7314 72.9372 26.8526 73.0328 26.961C73.1285 27.0694 73.2497 27.1587 73.39 27.2288C73.5303 27.3054 73.6897 27.3373 73.8619 27.3373C74.0979 27.3373 74.3083 27.2862 74.4933 27.1778C74.6782 27.0694 74.793 26.9993 74.9014 26.7633H75.367C75.2394 27.0885 75.0481 27.3373 74.7866 27.5095C74.5251 27.6816 74.219 27.7645 73.8619 27.7645C73.6578 27.7645 73.4537 27.7263 73.2624 27.6498C73.0711 27.5732 72.8989 27.4584 72.7459 27.3118C72.5928 27.1715 72.478 26.9929 72.3951 26.7888C72.3058 26.5847 72.2676 26.3615 72.2676 26.1192C72.2676 25.9406 72.2931 25.7557 72.3505 25.5644C72.4079 25.373 72.5163 25.1881 72.6693 25.0031C72.8224 24.8246 73.0137 24.6843 73.2369 24.595C73.4601 24.5057 73.6769 24.4611 73.8938 24.4611C74.0979 24.4611 74.2956 24.4993 74.4805 24.5759C74.6654 24.6524 74.8313 24.7544 74.9716 24.8947C75.1119 25.035 75.2203 25.2072 75.3032 25.3985C75.3797 25.5962 75.4243 25.8067 75.4371 26.0299ZM73.8938 24.8884C73.7726 24.8884 73.6323 24.9202 73.4665 24.9713C73.3007 25.0287 73.1476 25.1307 73.0137 25.2837C72.8734 25.4368 72.7905 25.6281 72.7586 25.845H74.946C74.9205 25.66 74.8568 25.4878 74.7547 25.3348C74.6527 25.1817 74.5251 25.0733 74.3721 24.9968C74.2126 24.9266 74.0532 24.8884 73.8938 24.8884ZM78.1326 24.5057C78.2218 24.5057 78.292 24.5185 78.3558 24.5312L78.3175 24.9968L78.1326 24.9904C77.9795 24.9904 77.8328 25.0159 77.6798 25.0669C77.5267 25.1179 77.3928 25.2008 77.278 25.322C77.1568 25.4368 77.0612 25.5962 76.9846 25.7876C76.9081 25.9789 76.8698 26.2085 76.8698 26.4763V27.688H76.3788V24.544H76.8698V25.3156C77.0038 25.0669 77.1759 24.8692 77.3928 24.7225C77.6096 24.5822 77.8519 24.5057 78.1326 24.5057ZM81.9147 26.0299V26.2085H79.2171C79.2235 26.336 79.249 26.4699 79.3 26.5975C79.3447 26.7314 79.4148 26.8526 79.5105 26.961C79.6061 27.0694 79.7273 27.1587 79.8676 27.2288C80.0079 27.3054 80.1673 27.3373 80.3395 27.3373C80.5755 27.3373 80.7859 27.2862 80.9709 27.1778C81.1558 27.0694 81.2706 26.9993 81.379 26.7633H81.8446C81.717 27.0885 81.5257 27.3373 81.2642 27.5095C81.0028 27.6816 80.6967 27.7645 80.3395 27.7645C80.1355 27.7645 79.9314 27.7263 79.7401 27.6498C79.5487 27.5732 79.3765 27.4584 79.2235 27.3118C79.0704 27.1715 78.9556 26.9929 78.8727 26.7888C78.7834 26.5847 78.7452 26.3615 78.7452 26.1192C78.7452 25.9406 78.7707 25.7557 78.8281 25.5644C78.8855 25.373 78.9939 25.1881 79.147 25.0031C79.3 24.8246 79.4913 24.6843 79.7145 24.595C79.9378 24.5057 80.1546 24.4611 80.3714 24.4611C80.5755 24.4611 80.7732 24.4993 80.9581 24.5759C81.1431 24.6524 81.3089 24.7544 81.4492 24.8947C81.5895 25.035 81.6979 25.2072 81.7808 25.3985C81.8573 25.5962 81.902 25.8067 81.9147 26.0299ZM80.3714 24.8884C80.2502 24.8884 80.1099 24.9202 79.9441 24.9713C79.7783 25.0287 79.6253 25.1307 79.4913 25.2837C79.351 25.4368 79.2681 25.6281 79.2362 25.845H81.4237C81.3982 25.66 81.3344 25.4878 81.2324 25.3348C81.1303 25.1817 81.0028 25.0733 80.8497 24.9968C80.6903 24.9266 80.5308 24.8884 80.3714 24.8884Z" fill="black"/>
</svg>
