<svg width="40" height="40" viewBox="0 0 40 40" fill="none" xmlns="http://www.w3.org/2000/svg">
<rect width="40" height="40" fill="white"/>
<path d="M35.8388 20.7227C35.0443 20.7227 34.2352 20.57 33.4469 20.8156C33.1806 27.4507 28.1058 31.3409 23.0701 31.6051C20.6129 31.7477 18.1844 31.0166 16.2141 29.5413C13.2939 27.3867 11.7749 24.4107 11.616 20.7537C10.71 20.6959 9.90511 20.6092 9.0218 20.8197C9.07932 23.3395 9.7966 25.8003 11.1021 27.9563C10.4953 28.4599 9.94226 28.9139 9.39329 29.3721C7.82068 30.6929 6.0809 31.8094 4.59702 33.2376C3.90565 33.9042 3.81277 34.8886 4.32872 35.5429C5.04279 36.4489 5.93229 36.6573 6.85274 36.0836C7.27392 35.7905 7.67901 35.475 8.06626 35.1383L13.5188 30.8147C18.992 35.4025 25.6168 34.8866 30.2542 31.8321C34.1217 29.2895 36.6829 23.2612 35.8388 20.7227Z" fill="#FF9040"/>
<path d="M22.5461 7.01948L34.1673 18.9173C34.8298 18.2589 35.5295 17.8173 35.9959 17.0784L22.5564 3.25098L9.1582 17.0041L10.9227 18.9441L22.5461 7.01948Z" fill="#2775FF"/>
<path d="M23.0625 24.8054H26.604V21.2227H23.0625V24.8054Z" fill="#2775FF"/>
<path d="M18.4707 24.7843H22.0597V21.2036H18.4707V24.7843Z" fill="#2775FF"/>
<path d="M18.4932 16.625V20.2408H22.0181V16.625H18.4932Z" fill="#2775FF"/>
<path d="M26.6177 16.6221H23.0762V20.211H26.6177V16.6221Z" fill="#2775FF"/>
</svg>
