<svg width="40" height="40" viewBox="0 0 40 40" fill="none" xmlns="http://www.w3.org/2000/svg">
<rect width="40" height="40" fill="white"/>
<path d="M29.0359 14.9177C28.5848 14.9177 28.1256 14.8311 27.6781 14.9705C27.527 18.7368 24.6463 20.9451 21.7878 21.095C20.393 21.1759 19.0145 20.761 17.8961 19.9235C16.2385 18.7005 15.3762 17.0112 15.286 14.9353C14.7718 14.9025 14.3149 14.8533 13.8135 14.9728C13.8461 16.4032 14.2533 17.8 14.9943 19.0238C14.6499 19.3097 14.336 19.5674 14.0243 19.8275C13.1317 20.5772 12.1441 21.211 11.3018 22.0217C10.9093 22.4001 10.8566 22.9589 11.1495 23.3302C11.5548 23.8445 12.0597 23.9629 12.5822 23.6372C12.8213 23.4708 13.0512 23.2917 13.2711 23.1006L16.3662 20.6464C19.473 23.2506 23.2334 22.9577 25.8658 21.2239C28.0612 19.7806 29.515 16.3587 29.0359 14.9177Z" fill="#FF9040"/>
<path d="M21.4891 7.13915L28.0858 13.8928C28.4619 13.5191 28.859 13.2684 29.1238 12.849L21.495 5L13.8896 12.8068L14.8913 13.908L21.4891 7.13915Z" fill="#2775FF"/>
<path d="M21.7832 17.2344H23.7935V15.2007H21.7832V17.2344Z" fill="#2775FF"/>
<path d="M19.1768 17.223H21.214V15.1904H19.1768V17.223Z" fill="#2775FF"/>
<path d="M19.1904 12.5918V14.6443H21.1913V12.5918H19.1904Z" fill="#2775FF"/>
<path d="M23.8023 12.5898H21.792V14.6271H23.8023V12.5898Z" fill="#2775FF"/>
<path d="M2.02661 29.8188H1.42584V27.3793H2.02661V29.8188ZM3.07973 28.1658C3.20353 28.0347 3.40015 27.9364 3.6441 27.9364C3.99 27.9364 4.20846 28.1294 4.29949 28.3879C4.3359 28.4826 4.35046 28.5882 4.35046 28.6974V29.8188H3.77153V28.8212C3.77153 28.6282 3.65866 28.4607 3.4584 28.4607C3.18897 28.4607 3.07973 28.6756 3.07973 28.9705V29.8188H2.49717V27.991H3.07973V28.1658ZM4.71875 28.5554C4.71875 28.1549 5.0865 27.9364 5.50522 27.9364C5.93122 27.9364 6.26256 28.1258 6.33538 28.4607L5.75281 28.4571C5.6982 28.3952 5.61081 28.3515 5.49794 28.3515C5.38507 28.3515 5.2904 28.3988 5.2904 28.4935C5.2904 28.559 5.33773 28.6027 5.42876 28.6209L5.8584 28.7083C6.14241 28.7702 6.36451 28.945 6.36451 29.2581C6.36451 29.6914 5.97492 29.8735 5.53799 29.8735C5.09014 29.8735 4.7406 29.7169 4.6787 29.3419L5.30132 29.3455C5.34866 29.411 5.46153 29.4402 5.56712 29.4402C5.68363 29.4402 5.80379 29.3965 5.80379 29.2945C5.80379 29.229 5.74553 29.1817 5.62174 29.1598L5.25035 29.087C4.9627 29.036 4.71875 28.8758 4.71875 28.5554ZM7.87786 27.9364C8.20555 27.9364 8.42037 28.0966 8.57694 28.2932C8.68617 28.4352 8.76992 28.6683 8.76992 28.9049C8.76992 29.2035 8.6534 29.4511 8.50412 29.6077C8.36212 29.7569 8.1473 29.8735 7.87786 29.8735C7.64483 29.8735 7.4555 29.8079 7.30985 29.6732V30.4378H6.72728V27.991H7.30985V28.1367C7.4555 28.0056 7.64483 27.9364 7.87786 27.9364ZM7.30985 28.9049C7.30985 29.1707 7.50283 29.3783 7.7577 29.3783C8.01622 29.3783 8.19463 29.1817 8.19463 28.9049C8.19463 28.6464 8.0235 28.4316 7.75406 28.4316C7.50283 28.4316 7.30985 28.6501 7.30985 28.9049ZM10.8691 29.3055C10.7308 29.6441 10.4431 29.8771 9.96251 29.8771C9.67487 29.8771 9.44184 29.7606 9.28163 29.6077C9.12143 29.4511 8.99763 29.2108 8.99763 28.9086C8.99763 28.4462 9.26343 28.144 9.59476 28.0092C9.71492 27.9619 9.83871 27.9401 9.96615 27.9401C10.4104 27.9401 10.7016 28.1877 10.8327 28.5117C10.8837 28.6319 10.9092 28.7629 10.9128 28.9049L10.9092 29.0579H9.56928C9.61297 29.2436 9.74769 29.411 9.96251 29.411C10.1446 29.411 10.2756 29.3382 10.3521 29.1999L10.8691 29.3055ZM10.3339 28.701C10.2902 28.5372 10.1628 28.4134 9.96615 28.4134C9.77682 28.4134 9.62753 28.5445 9.5802 28.701H10.3339ZM12.1442 29.3637C12.3189 29.3637 12.4282 29.2763 12.4901 29.1598H13.0726C13.0071 29.4657 12.7995 29.6914 12.541 29.797C12.4172 29.848 12.2825 29.8735 12.1405 29.8735C11.8456 29.8735 11.6016 29.7606 11.4414 29.6077C11.2739 29.4547 11.1465 29.2108 11.1465 28.9049C11.1465 28.559 11.3104 28.3042 11.5106 28.1476C11.6599 28.0347 11.8784 27.9364 12.1442 27.9364C12.3663 27.9364 12.5629 28.002 12.7377 28.1294C12.9124 28.2605 13.0253 28.428 13.0763 28.6391H12.4828C12.4209 28.5299 12.2971 28.4462 12.1442 28.4462C11.8856 28.4462 11.7072 28.6391 11.7072 28.9049C11.7072 29.1635 11.8747 29.3637 12.1442 29.3637ZM14.3836 29.3528C14.4674 29.3528 14.5875 29.3127 14.6494 29.28L14.7842 29.7387C14.6167 29.8298 14.4492 29.8735 14.2853 29.8735C13.8193 29.8735 13.5571 29.6149 13.5571 29.1453V28.4535H13.2258V27.991H13.5571V27.4522H14.1397V27.991H14.6786V28.4535H14.1397V29.087C14.1397 29.2654 14.2198 29.3528 14.3836 29.3528ZM15.0412 27.4522C15.0412 27.2701 15.1869 27.1208 15.3762 27.1208C15.5583 27.1208 15.7148 27.2628 15.7148 27.4558C15.7148 27.6415 15.5619 27.7799 15.3762 27.7799C15.1869 27.7799 15.0412 27.6488 15.0412 27.4522ZM15.6675 29.8225H15.0849V27.9947H15.6675V29.8225ZM17.0619 27.9437C17.4916 27.9437 17.8302 28.1804 17.9722 28.5008C18.0305 28.6319 18.0632 28.7702 18.0632 28.9086C18.0632 29.371 17.7829 29.6732 17.4442 29.8043C17.3204 29.848 17.193 29.8735 17.0619 29.8735C16.7852 29.8735 16.585 29.7897 16.3993 29.6514C16.2026 29.4984 16.0497 29.229 16.0497 28.9086C16.0497 28.6027 16.1772 28.3661 16.3446 28.2131C16.5121 28.0602 16.7561 27.9437 17.0619 27.9437ZM16.6104 28.9086C16.6104 29.1744 16.8034 29.3819 17.0619 29.3819C17.3095 29.3819 17.5025 29.1671 17.5025 28.9086C17.5025 28.6537 17.3059 28.4352 17.0619 28.4352C16.7998 28.4352 16.6104 28.6428 16.6104 28.9086ZM18.9936 28.1658C19.1174 28.0347 19.314 27.9364 19.558 27.9364C19.9039 27.9364 20.1223 28.1294 20.2134 28.3879C20.2498 28.4826 20.2643 28.5882 20.2643 28.6974V29.8188H19.6854V28.8212C19.6854 28.6282 19.5725 28.4607 19.3723 28.4607C19.1028 28.4607 18.9936 28.6756 18.9936 28.9705V29.8188H18.411V27.991H18.9936V28.1658ZM22.8224 29.3273C23.1319 29.3273 23.3394 29.1562 23.4304 28.9049H24.0531C23.973 29.3674 23.6744 29.6805 23.2593 29.8079C23.1209 29.8516 22.9753 29.8735 22.8224 29.8735C22.4328 29.8735 22.116 29.7133 21.9048 29.5057C21.6973 29.3018 21.5262 28.9887 21.5262 28.5991C21.5262 28.2131 21.6973 27.9037 21.9048 27.6961C22.116 27.4922 22.4328 27.3247 22.8224 27.3247C23.1282 27.3247 23.394 27.4121 23.6198 27.5796C23.8492 27.7507 23.9912 27.9765 24.0494 28.2605H23.4122C23.394 28.2204 23.3685 28.1622 23.3431 28.1221C23.2411 27.9801 23.0627 27.8745 22.8224 27.8745C22.4947 27.8745 22.2799 28.0784 22.1816 28.3151C22.1451 28.4061 22.1269 28.5008 22.1269 28.5991C22.1269 28.9341 22.3199 29.1744 22.5529 29.2727C22.6403 29.3091 22.7277 29.3273 22.8224 29.3273ZM25.3371 27.9437C25.7667 27.9437 26.1054 28.1804 26.2474 28.5008C26.3056 28.6319 26.3384 28.7702 26.3384 28.9086C26.3384 29.371 26.058 29.6732 25.7194 29.8043C25.5956 29.848 25.4682 29.8735 25.3371 29.8735C25.0604 29.8735 24.8601 29.7897 24.6744 29.6514C24.4778 29.4984 24.3249 29.229 24.3249 28.9086C24.3249 28.6027 24.4523 28.3661 24.6198 28.2131C24.7873 28.0602 25.0313 27.9437 25.3371 27.9437ZM24.8856 28.9086C24.8856 29.1744 25.0786 29.3819 25.3371 29.3819C25.5847 29.3819 25.7777 29.1671 25.7777 28.9086C25.7777 28.6537 25.5811 28.4352 25.3371 28.4352C25.0749 28.4352 24.8856 28.6428 24.8856 28.9086ZM28.4084 28.2459C28.5431 28.0711 28.758 27.9364 29.0565 27.9364C29.3842 27.9364 29.6063 28.133 29.701 28.3806C29.7374 28.4717 29.752 28.57 29.752 28.6756V29.8188H29.173V28.7994C29.173 28.6137 29.0492 28.4644 28.8708 28.4644C28.6196 28.4644 28.514 28.6756 28.514 28.9231V29.8188H27.9314V28.7994C27.9314 28.6137 27.804 28.4607 27.622 28.4607C27.378 28.4607 27.2724 28.6646 27.2724 28.9231V29.8188H26.6898V27.991H27.2724V28.1585C27.4035 28.0129 27.5855 27.9364 27.8113 27.9364C28.0844 27.9364 28.2956 28.0711 28.4084 28.2459ZM31.3546 27.9364C31.6823 27.9364 31.8971 28.0966 32.0537 28.2932C32.1629 28.4352 32.2467 28.6683 32.2467 28.9049C32.2467 29.2035 32.1302 29.4511 31.9809 29.6077C31.8389 29.7569 31.624 29.8735 31.3546 29.8735C31.1216 29.8735 30.9322 29.8079 30.7866 29.6732V30.4378H30.204V27.991H30.7866V28.1367C30.9322 28.0056 31.1216 27.9364 31.3546 27.9364ZM30.7866 28.9049C30.7866 29.1707 30.9796 29.3783 31.2345 29.3783C31.493 29.3783 31.6714 29.1817 31.6714 28.9049C31.6714 28.6464 31.5003 28.4316 31.2308 28.4316C30.9796 28.4316 30.7866 28.6501 30.7866 28.9049ZM33.6978 28.6501C33.6978 28.5008 33.5885 28.3952 33.4393 28.3952C33.3118 28.3952 33.2244 28.4316 33.1735 28.5117H32.5836C32.6346 28.2714 32.7875 28.1185 33.0023 28.0202C33.1189 27.9656 33.2572 27.9364 33.4211 27.9364C33.807 27.9364 34.0837 28.0821 34.2002 28.3551C34.2367 28.4462 34.2585 28.5481 34.2585 28.661V29.8188H33.6978V29.6841C33.5485 29.8116 33.3664 29.8735 33.1516 29.8735C32.7657 29.8735 32.4707 29.655 32.4707 29.2763C32.4707 28.8795 32.8021 28.6865 33.2317 28.6865H33.6978V28.6501ZM33.057 29.2472C33.057 29.3746 33.1807 29.4365 33.3118 29.4365C33.4575 29.4365 33.5667 29.3746 33.6359 29.2836C33.6759 29.2326 33.6941 29.1707 33.6941 29.0979V29.0579H33.2936C33.1662 29.0579 33.057 29.127 33.057 29.2472ZM35.2512 28.1658C35.375 28.0347 35.5716 27.9364 35.8156 27.9364C36.1615 27.9364 36.38 28.1294 36.471 28.3879C36.5074 28.4826 36.522 28.5882 36.522 28.6974V29.8188H35.943V28.8212C35.943 28.6282 35.8302 28.4607 35.6299 28.4607C35.3605 28.4607 35.2512 28.6756 35.2512 28.9705V29.8188H34.6687V27.991H35.2512V28.1658ZM38.8512 27.9874L37.7953 30.4378H37.1654L37.4603 29.7569L36.703 27.9874H37.3292L37.7625 29.0542L38.2249 27.9874H38.8512Z" fill="black"/>
<path opacity="0.9" d="M7.90109 31.623C8.10295 31.623 8.27117 31.675 8.4088 31.779C8.54643 31.8829 8.63207 32.042 8.66877 32.2133H8.42715C8.4088 32.1215 8.3721 32.0756 8.31093 32.0083C8.24976 31.9411 8.18248 31.8982 8.10601 31.8738C8.02955 31.8493 7.95921 31.8371 7.89498 31.8371C7.83075 31.8371 7.7604 31.8462 7.687 31.8707C7.6136 31.8952 7.55243 31.9349 7.50349 31.9961C7.45456 32.0542 7.43009 32.1246 7.43009 32.2071C7.43009 32.2928 7.45456 32.3601 7.50961 32.409C7.5616 32.4579 7.63807 32.4916 7.739 32.513L8.18553 32.6139C8.25282 32.6262 8.32928 32.6537 8.41186 32.6904C8.49444 32.7271 8.56479 32.7821 8.61984 32.8586C8.67489 32.932 8.70242 33.0299 8.70242 33.1461C8.70242 33.2134 8.69018 33.2807 8.66572 33.351C8.64125 33.4214 8.59843 33.4856 8.54032 33.5468C8.47915 33.6049 8.39963 33.6538 8.30176 33.6936C8.20083 33.7333 8.08155 33.7547 7.94086 33.7547C7.83381 33.7547 7.73288 33.7394 7.63501 33.7119C7.53714 33.6844 7.4515 33.6446 7.37809 33.5926C7.30469 33.5376 7.24352 33.4734 7.19764 33.3969C7.14871 33.3204 7.12118 33.2348 7.10895 33.143H7.3628C7.38421 33.2837 7.44844 33.3418 7.55549 33.4214C7.66559 33.5009 7.80016 33.5406 7.95921 33.5406C8.11213 33.5406 8.23447 33.5039 8.32317 33.4336C8.41492 33.3632 8.45774 33.2715 8.45774 33.1583C8.45774 33.0666 8.43327 32.9962 8.37822 32.9473C8.32622 32.8984 8.24059 32.8617 8.12436 32.8341L7.66253 32.7332C7.33528 32.6598 7.17012 32.4855 7.17012 32.2102C7.17012 32.1246 7.18847 32.0481 7.22211 31.9747C7.25881 31.9013 7.30775 31.8401 7.37198 31.7881C7.43621 31.7361 7.51267 31.6964 7.60442 31.6658C7.69618 31.6383 7.79405 31.623 7.90109 31.623ZM9.41995 33.7119H9.1875V31.5098H9.41995V33.7119ZM10.6727 32.1704C10.7798 32.1704 10.8837 32.1918 10.9816 32.2285C11.0795 32.2683 11.1651 32.3234 11.2385 32.3937C11.3119 32.4641 11.367 32.5466 11.4098 32.6445C11.4496 32.7424 11.471 32.8464 11.471 32.9565C11.471 33.0696 11.4496 33.1736 11.4098 33.2715C11.367 33.3694 11.3119 33.455 11.2385 33.5253C11.1651 33.5988 11.0795 33.6538 10.9816 33.6905C10.8837 33.7303 10.7798 33.7486 10.6727 33.7486C10.5626 33.7486 10.4586 33.7303 10.3607 33.6905C10.2629 33.6538 10.1772 33.5988 10.1038 33.5253C10.0304 33.455 9.97232 33.3694 9.93256 33.2715C9.88974 33.1736 9.87139 33.0696 9.87139 32.9565C9.87139 32.8739 9.88363 32.7883 9.91115 32.6965C9.93868 32.6078 9.99067 32.5191 10.0641 32.4335C10.1375 32.3478 10.2323 32.2805 10.3424 32.2377C10.4525 32.1949 10.5626 32.1704 10.6727 32.1704ZM10.6727 33.5437C10.7461 33.5437 10.8195 33.5315 10.8899 33.5009C10.9572 33.4734 11.0183 33.4336 11.0734 33.3816C11.1254 33.3296 11.1651 33.2654 11.1957 33.192C11.2263 33.1186 11.2416 33.0421 11.2416 32.9565C11.2416 32.8739 11.2263 32.7974 11.1957 32.724C11.1651 32.6506 11.1254 32.5895 11.0734 32.5375C11.0183 32.4885 10.9572 32.4488 10.8899 32.4182C10.8195 32.3906 10.7461 32.3754 10.6727 32.3754C10.5963 32.3754 10.5259 32.3876 10.4647 32.4121C10.4036 32.4365 10.3455 32.4702 10.2965 32.5099C10.2476 32.5527 10.2017 32.6109 10.1589 32.6873C10.1161 32.7638 10.0977 32.8525 10.0977 32.9565C10.0977 33.0635 10.1222 33.1644 10.1742 33.2562C10.2231 33.351 10.2965 33.4214 10.3883 33.4703C10.48 33.5192 10.5748 33.5437 10.6727 33.5437ZM13.3185 32.2041L13.3215 33.5926C13.3185 33.8098 13.2481 33.9811 13.1105 34.1065C12.9728 34.2319 12.7893 34.2961 12.563 34.2961C12.4254 34.2961 12.3061 34.2747 12.2021 34.238C12.0981 34.1982 12.0155 34.1462 11.9544 34.085C11.8932 34.0208 11.8229 33.9352 11.7923 33.7976H12.0217C12.0767 33.9015 12.1471 33.9505 12.2327 34.0025C12.3183 34.0575 12.4284 34.082 12.563 34.082C12.722 34.082 12.8474 34.0361 12.9453 33.9413C13.0432 33.8465 13.0921 33.718 13.0921 33.559V33.3755C13.031 33.455 12.9514 33.5162 12.8536 33.559C12.7557 33.6018 12.6486 33.6232 12.5263 33.6232C12.4284 33.6232 12.3336 33.6079 12.2449 33.5712C12.1532 33.5345 12.0736 33.4856 12.0064 33.4183C11.936 33.351 11.881 33.2746 11.8412 33.1828C11.8014 33.091 11.7831 32.9962 11.7831 32.8922C11.7831 32.7913 11.8014 32.6965 11.8412 32.6047C11.881 32.516 11.936 32.4396 12.0064 32.3723C12.0736 32.3081 12.1532 32.2591 12.2449 32.2224C12.3336 32.1857 12.4284 32.1674 12.5263 32.1674C12.6486 32.1674 12.7557 32.1888 12.8536 32.2316C12.9514 32.2744 13.031 32.3356 13.0921 32.4121V32.2041H13.3185ZM12.5599 33.4244C12.5905 33.4244 12.6303 33.4183 12.6731 33.4091C12.7159 33.403 12.7618 33.3877 12.8077 33.3632C12.8505 33.3418 12.8964 33.3113 12.9392 33.2684C12.982 33.2256 13.0187 33.1736 13.0493 33.1063C13.0768 33.0421 13.0921 32.9718 13.0921 32.8953C13.0921 32.8158 13.0738 32.7363 13.0371 32.6567C13.0004 32.5772 12.9392 32.5099 12.8505 32.4549C12.7618 32.3998 12.6639 32.3723 12.5599 32.3723C12.4437 32.3723 12.3459 32.3968 12.2633 32.4457C12.1776 32.4946 12.1165 32.5589 12.0736 32.6353C12.0308 32.7087 12.0094 32.7974 12.0094 32.8953C12.0094 32.9932 12.0308 33.0788 12.0736 33.1553C12.1165 33.2317 12.1776 33.296 12.2633 33.348C12.3459 33.3969 12.4437 33.4244 12.5599 33.4244ZM14.4851 32.1674C14.6748 32.1674 14.8246 32.2194 14.9378 32.3172C15.051 32.4151 15.1091 32.5558 15.1091 32.7332V33.7119H14.8828V33.4825C14.8216 33.5651 14.7421 33.6293 14.6442 33.6783C14.5463 33.7272 14.4393 33.7517 14.3169 33.7517C14.1518 33.7517 14.0203 33.7089 13.9193 33.6232C13.8184 33.5376 13.7695 33.4275 13.7695 33.2898C13.7695 33.1492 13.8215 33.036 13.9285 32.9504C14.0325 32.8647 14.1824 32.8188 14.375 32.8188H14.8828V32.7485C14.8828 32.6904 14.8705 32.6323 14.8461 32.5742C14.8216 32.516 14.7788 32.4671 14.7176 32.4304C14.6564 32.3937 14.583 32.3723 14.4974 32.3723C14.3812 32.3723 14.2863 32.3998 14.2129 32.4549C14.1365 32.5099 14.0906 32.5344 14.0753 32.6292H13.852C13.8765 32.4916 13.9469 32.3815 14.0631 32.2958C14.1793 32.2102 14.32 32.1674 14.4851 32.1674ZM14.3506 33.559C14.4209 33.559 14.4974 33.5468 14.58 33.5162C14.6595 33.4856 14.7298 33.4305 14.791 33.351C14.8522 33.2715 14.8828 33.1828 14.8828 33.0849V33.0054H14.372C14.2527 33.0054 14.161 33.0299 14.0937 33.0849C14.0264 33.1369 13.9927 33.2042 13.9927 33.2868C13.9927 33.3235 14.0019 33.3632 14.0233 33.4061C14.0447 33.4489 14.0845 33.4856 14.1457 33.5162C14.2038 33.5468 14.2711 33.559 14.3506 33.559ZM16.426 32.1674C16.4902 32.1674 16.5575 32.1796 16.6278 32.198C16.6982 32.2194 16.7624 32.2561 16.8205 32.305C16.8817 32.357 16.9306 32.4243 16.9704 32.5099C17.0101 32.5956 17.0285 32.6934 17.0285 32.8097V33.7119H16.7961V32.8525C16.7961 32.7118 16.7594 32.5986 16.6798 32.513C16.6034 32.4274 16.5024 32.3815 16.377 32.3815C16.218 32.3815 16.0926 32.4365 15.9978 32.5405C15.903 32.6476 15.854 32.7974 15.854 32.9871V33.7119H15.6216V32.2041H15.854V32.4549C15.9152 32.3631 15.9947 32.2928 16.0926 32.2438C16.1905 32.1949 16.3006 32.1674 16.426 32.1674ZM19.8034 32.2041L19.8065 33.5926C19.8034 33.8098 19.733 33.9811 19.5954 34.1065C19.4578 34.2319 19.2743 34.2961 19.0479 34.2961C18.9103 34.2961 18.791 34.2747 18.687 34.238C18.5831 34.1982 18.5005 34.1462 18.4393 34.085C18.3781 34.0208 18.3078 33.9352 18.2772 33.7976H18.5066C18.5616 33.9015 18.632 33.9505 18.7176 34.0025C18.8033 34.0575 18.9134 34.082 19.0479 34.082C19.207 34.082 19.3324 34.0361 19.4303 33.9413C19.5281 33.8465 19.5771 33.718 19.5771 33.559V33.3755C19.5159 33.455 19.4364 33.5162 19.3385 33.559C19.2406 33.6018 19.1336 33.6232 19.0112 33.6232C18.9134 33.6232 18.8186 33.6079 18.7299 33.5712C18.6381 33.5345 18.5586 33.4856 18.4913 33.4183C18.421 33.351 18.3659 33.2746 18.3261 33.1828C18.2864 33.091 18.268 32.9962 18.268 32.8922C18.268 32.7913 18.2864 32.6965 18.3261 32.6047C18.3659 32.516 18.421 32.4396 18.4913 32.3723C18.5586 32.3081 18.6381 32.2591 18.7299 32.2224C18.8186 32.1857 18.9134 32.1674 19.0112 32.1674C19.1336 32.1674 19.2406 32.1888 19.3385 32.2316C19.4364 32.2744 19.5159 32.3356 19.5771 32.4121V32.2041H19.8034ZM19.0449 33.4244C19.0755 33.4244 19.1152 33.4183 19.1581 33.4091C19.2009 33.403 19.2467 33.3877 19.2926 33.3632C19.3354 33.3418 19.3813 33.3113 19.4241 33.2684C19.467 33.2256 19.5037 33.1736 19.5342 33.1063C19.5618 33.0421 19.5771 32.9718 19.5771 32.8953C19.5771 32.8158 19.5587 32.7363 19.522 32.6567C19.4853 32.5772 19.4241 32.5099 19.3354 32.4549C19.2467 32.3998 19.1489 32.3723 19.0449 32.3723C18.9287 32.3723 18.8308 32.3968 18.7482 32.4457C18.6626 32.4946 18.6014 32.5589 18.5586 32.6353C18.5158 32.7087 18.4944 32.7974 18.4944 32.8953C18.4944 32.9932 18.5158 33.0788 18.5586 33.1553C18.6014 33.2317 18.6626 33.296 18.7482 33.348C18.8308 33.3969 18.9287 33.4244 19.0449 33.4244ZM21.0557 32.1704C21.1628 32.1704 21.2668 32.1918 21.3646 32.2285C21.4625 32.2683 21.5481 32.3234 21.6215 32.3937C21.695 32.4641 21.75 32.5466 21.7928 32.6445C21.8326 32.7424 21.854 32.8464 21.854 32.9565C21.854 33.0696 21.8326 33.1736 21.7928 33.2715C21.75 33.3694 21.695 33.455 21.6215 33.5253C21.5481 33.5988 21.4625 33.6538 21.3646 33.6905C21.2668 33.7303 21.1628 33.7486 21.0557 33.7486C20.9456 33.7486 20.8416 33.7303 20.7438 33.6905C20.6459 33.6538 20.5603 33.5988 20.4868 33.5253C20.4134 33.455 20.3553 33.3694 20.3156 33.2715C20.2728 33.1736 20.2544 33.0696 20.2544 32.9565C20.2544 32.8739 20.2666 32.7883 20.2942 32.6965C20.3217 32.6078 20.3737 32.5191 20.4471 32.4335C20.5205 32.3478 20.6153 32.2805 20.7254 32.2377C20.8355 32.1949 20.9456 32.1704 21.0557 32.1704ZM21.0557 33.5437C21.1291 33.5437 21.2025 33.5315 21.2729 33.5009C21.3402 33.4734 21.4013 33.4336 21.4564 33.3816C21.5084 33.3296 21.5481 33.2654 21.5787 33.192C21.6093 33.1186 21.6246 33.0421 21.6246 32.9565C21.6246 32.8739 21.6093 32.7974 21.5787 32.724C21.5481 32.6506 21.5084 32.5895 21.4564 32.5375C21.4013 32.4885 21.3402 32.4488 21.2729 32.4182C21.2025 32.3906 21.1291 32.3754 21.0557 32.3754C20.9793 32.3754 20.9089 32.3876 20.8478 32.4121C20.7866 32.4365 20.7285 32.4702 20.6795 32.5099C20.6306 32.5527 20.5847 32.6109 20.5419 32.6873C20.4991 32.7638 20.4807 32.8525 20.4807 32.9565C20.4807 33.0635 20.5052 33.1644 20.5572 33.2562C20.6061 33.351 20.6795 33.4214 20.7713 33.4703C20.863 33.5192 20.9579 33.5437 21.0557 33.5437ZM23.6862 32.9198V33.0054H22.3924C22.3955 33.0666 22.4077 33.1308 22.4322 33.192C22.4536 33.2562 22.4872 33.3143 22.5331 33.3663C22.579 33.4183 22.6371 33.4611 22.7044 33.4948C22.7717 33.5315 22.8481 33.5468 22.9307 33.5468C23.0439 33.5468 23.1448 33.5223 23.2335 33.4703C23.3222 33.4183 23.3773 33.3847 23.4293 33.2715H23.6525C23.5914 33.4275 23.4996 33.5468 23.3742 33.6293C23.2488 33.7119 23.102 33.7517 22.9307 33.7517C22.8329 33.7517 22.735 33.7333 22.6432 33.6966C22.5515 33.6599 22.4689 33.6049 22.3955 33.5345C22.3221 33.4672 22.267 33.3816 22.2273 33.2837C22.1845 33.1859 22.1661 33.0788 22.1661 32.9626C22.1661 32.8769 22.1783 32.7883 22.2059 32.6965C22.2334 32.6047 22.2854 32.516 22.3588 32.4274C22.4322 32.3417 22.5239 32.2744 22.631 32.2316C22.738 32.1888 22.842 32.1674 22.946 32.1674C23.0439 32.1674 23.1387 32.1857 23.2274 32.2224C23.3161 32.2591 23.3956 32.3081 23.4629 32.3754C23.5302 32.4426 23.5822 32.5252 23.6219 32.617C23.6586 32.7118 23.6801 32.8127 23.6862 32.9198ZM22.946 32.3723C22.8879 32.3723 22.8206 32.3876 22.7411 32.4121C22.6616 32.4396 22.5882 32.4885 22.5239 32.5619C22.4567 32.6353 22.4169 32.7271 22.4016 32.8311H23.4507C23.4384 32.7424 23.4079 32.6598 23.3589 32.5864C23.31 32.513 23.2488 32.461 23.1754 32.4243C23.0989 32.3906 23.0225 32.3723 22.946 32.3723ZM24.0093 33.3051H24.2418C24.2509 33.348 24.2968 33.4244 24.3794 33.4795C24.462 33.5345 24.5629 33.559 24.6853 33.559C24.7923 33.559 24.8779 33.5376 24.9452 33.4886C25.0125 33.4428 25.0462 33.3816 25.0462 33.3021C25.0462 33.244 25.0247 33.1981 24.9819 33.1644C24.9391 33.1308 24.8779 33.1033 24.7984 33.0849L24.4528 33.0085C24.3244 32.984 24.2295 32.9381 24.1623 32.8708C24.095 32.8066 24.0613 32.724 24.0613 32.6231C24.0613 32.4885 24.1133 32.3784 24.2173 32.2928C24.3213 32.2102 24.462 32.1674 24.6333 32.1674C24.7984 32.1674 24.933 32.2071 25.0431 32.2836C25.1501 32.3631 25.2174 32.4641 25.248 32.5864H25.0247C25.0064 32.5405 24.9636 32.4855 24.8932 32.4335C24.8229 32.3845 24.7342 32.357 24.6271 32.357C24.5782 32.357 24.5262 32.3662 24.4742 32.3815C24.4192 32.3968 24.3763 32.4243 24.3427 32.4641C24.3091 32.5069 24.2938 32.5527 24.2938 32.6047C24.2938 32.6476 24.306 32.6873 24.3366 32.724C24.3641 32.7607 24.4253 32.7913 24.5232 32.8127L24.8871 32.8922C24.9727 32.9106 25.0462 32.9412 25.1073 32.9809C25.1685 33.0207 25.2113 33.0666 25.2358 33.1216C25.2602 33.1767 25.2755 33.2317 25.2755 33.2868C25.2755 33.4336 25.2174 33.5468 25.1073 33.6293C24.9972 33.7119 24.8504 33.7517 24.6669 33.7517C24.4895 33.7517 24.3396 33.715 24.2173 33.6355C24.095 33.559 24.0277 33.4489 24.0093 33.3051ZM27.3587 32.1674C27.4229 32.1674 27.4902 32.1796 27.5606 32.198C27.6309 32.2194 27.6951 32.2561 27.7533 32.305C27.8144 32.357 27.8634 32.4243 27.9031 32.5099C27.9429 32.5956 27.9612 32.6934 27.9612 32.8097V33.7119H27.7288V32.8525C27.7288 32.7118 27.6921 32.5986 27.6126 32.513C27.5361 32.4274 27.4352 32.3815 27.3098 32.3815C27.1507 32.3815 27.0253 32.4365 26.9305 32.5405C26.8357 32.6476 26.7868 32.7974 26.7868 32.9871V33.7119H26.5543V31.5098H26.7868V32.4549C26.8479 32.3631 26.9275 32.2928 27.0253 32.2438C27.1232 32.1949 27.2333 32.1674 27.3587 32.1674ZM29.9023 32.9198V33.0054H28.6086C28.6116 33.0666 28.6239 33.1308 28.6483 33.192C28.6697 33.2562 28.7034 33.3143 28.7493 33.3663C28.7951 33.4183 28.8532 33.4611 28.9205 33.4948C28.9878 33.5315 29.0643 33.5468 29.1469 33.5468C29.26 33.5468 29.361 33.5223 29.4496 33.4703C29.5383 33.4183 29.5934 33.3847 29.6454 33.2715H29.8687C29.8075 33.4275 29.7157 33.5468 29.5903 33.6293C29.4649 33.7119 29.3181 33.7517 29.1469 33.7517C29.049 33.7517 28.9511 33.7333 28.8594 33.6966C28.7676 33.6599 28.685 33.6049 28.6116 33.5345C28.5382 33.4672 28.4832 33.3816 28.4434 33.2837C28.4006 33.1859 28.3822 33.0788 28.3822 32.9626C28.3822 32.8769 28.3945 32.7883 28.422 32.6965C28.4495 32.6047 28.5015 32.516 28.5749 32.4274C28.6483 32.3417 28.7401 32.2744 28.8471 32.2316C28.9542 32.1888 29.0582 32.1674 29.1621 32.1674C29.26 32.1674 29.3548 32.1857 29.4435 32.2224C29.5322 32.2591 29.6117 32.3081 29.679 32.3754C29.7463 32.4426 29.7983 32.5252 29.8381 32.617C29.8748 32.7118 29.8962 32.8127 29.9023 32.9198ZM29.1621 32.3723C29.104 32.3723 29.0368 32.3876 28.9572 32.4121C28.8777 32.4396 28.8043 32.4885 28.7401 32.5619C28.6728 32.6353 28.633 32.7271 28.6177 32.8311H29.6668C29.6546 32.7424 29.624 32.6598 29.575 32.5864C29.5261 32.513 29.4649 32.461 29.3915 32.4243C29.3151 32.3906 29.2386 32.3723 29.1621 32.3723ZM31.195 32.1888C31.2378 32.1888 31.2715 32.1949 31.302 32.201L31.2837 32.4243L31.195 32.4212C31.1216 32.4212 31.0512 32.4335 30.9778 32.4579C30.9044 32.4824 30.8402 32.5222 30.7852 32.5803C30.727 32.6353 30.6812 32.7118 30.6445 32.8035C30.6078 32.8953 30.5894 33.0054 30.5894 33.1339V33.715H30.3539V32.2071H30.5894V32.5772C30.6536 32.4579 30.7362 32.3631 30.8402 32.2928C30.9442 32.2255 31.0604 32.1888 31.195 32.1888ZM33.0089 32.9198V33.0054H31.7151C31.7182 33.0666 31.7304 33.1308 31.7549 33.192C31.7763 33.2562 31.8099 33.3143 31.8558 33.3663C31.9017 33.4183 31.9598 33.4611 32.0271 33.4948C32.0944 33.5315 32.1708 33.5468 32.2534 33.5468C32.3666 33.5468 32.4675 33.5223 32.5562 33.4703C32.6449 33.4183 32.7 33.3847 32.752 33.2715H32.9752C32.9141 33.4275 32.8223 33.5468 32.6969 33.6293C32.5715 33.7119 32.4247 33.7517 32.2534 33.7517C32.1556 33.7517 32.0577 33.7333 31.9659 33.6966C31.8742 33.6599 31.7916 33.6049 31.7182 33.5345C31.6448 33.4672 31.5897 33.3816 31.55 33.2837C31.5072 33.1859 31.4888 33.0788 31.4888 32.9626C31.4888 32.8769 31.501 32.7883 31.5286 32.6965C31.5561 32.6047 31.6081 32.516 31.6815 32.4274C31.7549 32.3417 31.8466 32.2744 31.9537 32.2316C32.0607 32.1888 32.1647 32.1674 32.2687 32.1674C32.3666 32.1674 32.4614 32.1857 32.5501 32.2224C32.6388 32.2591 32.7183 32.3081 32.7856 32.3754C32.8529 32.4426 32.9049 32.5252 32.9446 32.617C32.9813 32.7118 33.0028 32.8127 33.0089 32.9198ZM32.2687 32.3723C32.2106 32.3723 32.1433 32.3876 32.0638 32.4121C31.9843 32.4396 31.9109 32.4885 31.8466 32.5619C31.7794 32.6353 31.7396 32.7271 31.7243 32.8311H32.7734C32.7611 32.7424 32.7306 32.6598 32.6816 32.5864C32.6327 32.513 32.5715 32.461 32.4981 32.4243C32.4216 32.3906 32.3452 32.3723 32.2687 32.3723Z" fill="black"/>
</svg>
