<svg width="25" height="25" viewBox="0 0 25 25" fill="none" xmlns="http://www.w3.org/2000/svg">
<path d="M12.5692 0.00040706C5.6657 -0.0550638 -0.00868224 5.56598 0.000559425 12.4629C-0.0641322 19.3043 5.49011 24.9345 12.3752 24.9993C19.3064 25.0732 24.9253 19.5539 24.9993 12.5923C25.0732 5.68617 19.519 0.065123 12.5692 0.00040706ZM18.5856 4.57675C18.4747 4.7709 12.791 10.4752 12.523 10.6693C10.4899 8.63537 8.46593 6.61068 6.442 4.586C9.57493 1.96038 14.9259 1.64604 18.5856 4.57675ZM4.56594 6.44427C6.58987 8.46896 8.61379 10.4936 10.6377 12.5183C8.64152 14.5153 6.60835 16.5492 4.58443 18.5739C1.91358 15.3658 1.69178 10.0221 4.56594 6.44427ZM6.41428 20.4137C6.5529 20.2288 12.2273 14.5338 12.4676 14.3396C14.5007 16.3736 16.5247 18.3982 18.5578 20.4414C15.1292 23.2427 9.769 23.1687 6.41428 20.4137ZM20.4154 18.5924C18.3822 16.5585 16.3583 14.5338 14.3621 12.5368C16.3768 10.5214 18.41 8.48745 20.4616 6.43502C21.5983 7.91425 22.2915 9.63384 22.4671 11.5476C22.7351 14.4598 21.7092 17.03 20.4154 18.5924Z" fill="#FF3A3A"/>
</svg>
