<svg width="75" height="22" viewBox="0 0 75 22" fill="none" xmlns="http://www.w3.org/2000/svg">
<rect width="75" height="21.2121" rx="6.06061" fill="#2775FF"/>
<path fill-rule="evenodd" clip-rule="evenodd" d="M7.09933 12.4292C6.35358 12.4292 5.74902 11.8246 5.74902 11.0789C5.74902 10.3382 6.36763 9.72793 7.10569 9.72857C7.10779 9.72857 7.10957 9.72696 7.10976 9.72486C7.22519 8.46487 8.2848 7.47803 9.5749 7.47803C10.5433 7.47803 11.3819 8.03413 11.7887 8.84442C11.7895 8.84598 11.7912 8.84687 11.7929 8.84662C12.8565 8.69431 13.8509 9.54598 13.8509 10.6287C13.8509 11.5623 13.1403 12.3299 12.2305 12.4203L10.1039 12.4242L10.1039 10.9214C10.1039 10.7536 9.96783 10.6176 9.80003 10.6176C9.63224 10.6176 9.49621 10.7536 9.49621 10.9214L9.49621 12.4253L7.36939 12.4292H7.09933ZM9.49621 12.4253L9.49621 13.2261L9.00213 12.732C8.88349 12.6134 8.69112 12.6134 8.57247 12.732C8.45382 12.8507 8.45382 13.0431 8.57247 13.1617L9.44197 14.0312C9.63972 14.229 9.96033 14.229 10.1581 14.0312L11.0276 13.1617C11.1462 13.0431 11.1462 12.8507 11.0276 12.732C10.9089 12.6134 10.7166 12.6134 10.5979 12.732L10.1039 13.2261L10.1039 12.4242L9.49621 12.4253Z" fill="white"/>
<path d="M18.1338 8.00596H19.1018V13.606H18.1338V8.00596ZM19.9418 13.606H18.7178V12.718H19.9178C20.1951 12.718 20.4511 12.678 20.6858 12.598C20.9204 12.5126 21.1231 12.3926 21.2938 12.238C21.4698 12.078 21.6058 11.878 21.7018 11.638C21.8031 11.398 21.8538 11.1206 21.8538 10.806C21.8538 10.4913 21.8031 10.214 21.7018 9.97396C21.6058 9.73396 21.4698 9.53396 21.2938 9.37396C21.1231 9.21396 20.9204 9.09396 20.6858 9.01396C20.4511 8.93396 20.1951 8.89396 19.9178 8.89396H18.7178V8.00596H19.9418C20.5124 8.00596 21.0138 8.12329 21.4458 8.35796C21.8778 8.58729 22.2138 8.91262 22.4538 9.33396C22.6991 9.74996 22.8218 10.2406 22.8218 10.806C22.8218 11.3713 22.6991 11.8646 22.4538 12.286C22.2138 12.702 21.8778 13.0273 21.4458 13.262C21.0138 13.4913 20.5124 13.606 19.9418 13.606ZM23.3911 11.766C23.3911 11.3873 23.4765 11.054 23.6471 10.766C23.8231 10.478 24.0605 10.254 24.3591 10.094C24.6631 9.92862 25.0018 9.84596 25.3751 9.84596C25.7538 9.84596 26.0925 9.92862 26.3911 10.094C26.6898 10.254 26.9245 10.478 27.0951 10.766C27.2711 11.054 27.3591 11.3873 27.3591 11.766C27.3591 12.1393 27.2711 12.4726 27.0951 12.766C26.9245 13.054 26.6898 13.2806 26.3911 13.446C26.0925 13.606 25.7538 13.686 25.3751 13.686C25.0018 13.686 24.6631 13.606 24.3591 13.446C24.0605 13.2806 23.8231 13.054 23.6471 12.766C23.4765 12.4726 23.3911 12.1393 23.3911 11.766ZM24.2791 11.766C24.2791 11.9953 24.3271 12.198 24.4231 12.374C24.5191 12.5446 24.6498 12.6806 24.8151 12.782C24.9805 12.878 25.1671 12.926 25.3751 12.926C25.5831 12.926 25.7698 12.878 25.9351 12.782C26.1005 12.6806 26.2311 12.5446 26.3271 12.374C26.4231 12.198 26.4711 11.9953 26.4711 11.766C26.4711 11.5366 26.4231 11.334 26.3271 11.158C26.2311 10.982 26.1005 10.846 25.9351 10.75C25.7698 10.654 25.5831 10.606 25.3751 10.606C25.1671 10.606 24.9805 10.654 24.8151 10.75C24.6498 10.846 24.5191 10.982 24.4231 11.158C24.3271 11.334 24.2791 11.5366 24.2791 11.766ZM27.5176 9.92596H28.4616L29.3176 12.11L30.3416 9.64596L31.4136 12.126L32.2776 9.92596H33.2216L31.5016 13.862L30.3416 11.382L29.2376 13.862L27.5176 9.92596ZM36.1407 11.366C36.1407 11.094 36.0847 10.8886 35.9727 10.75C35.8607 10.6113 35.69 10.542 35.4607 10.542C35.2954 10.542 35.1514 10.5766 35.0287 10.646C34.906 10.71 34.81 10.806 34.7407 10.934C34.6767 11.0566 34.6447 11.2006 34.6447 11.366V13.606H33.7727V9.92596H34.6447V10.494C34.762 10.2753 34.9114 10.1126 35.0927 10.006C35.2794 9.89929 35.498 9.84596 35.7487 9.84596C36.1647 9.84596 36.482 9.97396 36.7007 10.23C36.9194 10.4806 37.0287 10.8246 37.0287 11.262V13.606H36.1407V11.366ZM38.1321 7.36596H39.0041V13.606H38.1321V7.36596ZM39.8208 11.766C39.8208 11.3873 39.9062 11.054 40.0768 10.766C40.2528 10.478 40.4902 10.254 40.7888 10.094C41.0928 9.92862 41.4315 9.84596 41.8048 9.84596C42.1835 9.84596 42.5222 9.92862 42.8208 10.094C43.1195 10.254 43.3542 10.478 43.5248 10.766C43.7008 11.054 43.7888 11.3873 43.7888 11.766C43.7888 12.1393 43.7008 12.4726 43.5248 12.766C43.3542 13.054 43.1195 13.2806 42.8208 13.446C42.5222 13.606 42.1835 13.686 41.8048 13.686C41.4315 13.686 41.0928 13.606 40.7888 13.446C40.4902 13.2806 40.2528 13.054 40.0768 12.766C39.9062 12.4726 39.8208 12.1393 39.8208 11.766ZM40.7088 11.766C40.7088 11.9953 40.7568 12.198 40.8528 12.374C40.9488 12.5446 41.0795 12.6806 41.2448 12.782C41.4102 12.878 41.5968 12.926 41.8048 12.926C42.0128 12.926 42.1995 12.878 42.3648 12.782C42.5302 12.6806 42.6608 12.5446 42.7568 12.374C42.8528 12.198 42.9008 11.9953 42.9008 11.766C42.9008 11.5366 42.8528 11.334 42.7568 11.158C42.6608 10.982 42.5302 10.846 42.3648 10.75C42.1995 10.654 42.0128 10.606 41.8048 10.606C41.5968 10.606 41.4102 10.654 41.2448 10.75C41.0795 10.846 40.9488 10.982 40.8528 11.158C40.7568 11.334 40.7088 11.5366 40.7088 11.766ZM45.1605 12.462C45.1605 12.5846 45.1898 12.6913 45.2485 12.782C45.3071 12.8673 45.3871 12.9313 45.4885 12.974C45.5951 13.0166 45.7151 13.038 45.8485 13.038C46.0245 13.038 46.1818 13.0033 46.3205 12.934C46.4645 12.8593 46.5791 12.7553 46.6645 12.622C46.7498 12.4886 46.7925 12.3286 46.7925 12.142L46.9205 12.622C46.9205 12.8566 46.8511 13.054 46.7125 13.214C46.5791 13.374 46.4085 13.494 46.2005 13.574C45.9978 13.6486 45.7898 13.686 45.5765 13.686C45.3471 13.686 45.1338 13.6406 44.9365 13.55C44.7391 13.4593 44.5818 13.326 44.4645 13.15C44.3471 12.974 44.2885 12.7606 44.2885 12.51C44.2885 12.1526 44.4138 11.87 44.6645 11.662C44.9151 11.4486 45.2698 11.342 45.7285 11.342C45.9738 11.342 46.1845 11.3686 46.3605 11.422C46.5418 11.4753 46.6911 11.5393 46.8085 11.614C46.9258 11.6833 47.0085 11.7473 47.0565 11.806V12.246C46.8911 12.1286 46.7151 12.0433 46.5285 11.99C46.3418 11.9366 46.1445 11.91 45.9365 11.91C45.7551 11.91 45.6085 11.934 45.4965 11.982C45.3845 12.0246 45.2991 12.086 45.2405 12.166C45.1871 12.246 45.1605 12.3446 45.1605 12.462ZM44.8885 10.886L44.5365 10.278C44.7071 10.1766 44.9231 10.078 45.1845 9.98196C45.4458 9.88596 45.7498 9.83796 46.0965 9.83796C46.3951 9.83796 46.6618 9.88329 46.8965 9.97396C47.1311 10.0593 47.3125 10.1873 47.4405 10.358C47.5738 10.5286 47.6405 10.7366 47.6405 10.982V13.606H46.7925V11.15C46.7925 11.0326 46.7738 10.9366 46.7365 10.862C46.6991 10.7873 46.6431 10.726 46.5685 10.678C46.4991 10.63 46.4165 10.5953 46.3205 10.574C46.2245 10.5526 46.1205 10.542 46.0085 10.542C45.8378 10.542 45.6751 10.5633 45.5205 10.606C45.3711 10.6433 45.2431 10.6913 45.1365 10.75C45.0298 10.8033 44.9471 10.8486 44.8885 10.886ZM51.4157 7.36596H52.2877V13.606H51.4157V7.36596ZM48.3677 11.766C48.3677 11.3606 48.4504 11.0166 48.6157 10.734C48.781 10.446 48.9997 10.2273 49.2717 10.078C49.549 9.92329 49.845 9.84596 50.1597 9.84596C50.469 9.84596 50.7384 9.92329 50.9677 10.078C51.2024 10.2326 51.3864 10.454 51.5197 10.742C51.6584 11.0246 51.7277 11.366 51.7277 11.766C51.7277 12.1606 51.6584 12.502 51.5197 12.79C51.3864 13.078 51.2024 13.2993 50.9677 13.454C50.7384 13.6086 50.469 13.686 50.1597 13.686C49.845 13.686 49.549 13.6113 49.2717 13.462C48.9997 13.3073 48.781 13.086 48.6157 12.798C48.4504 12.51 48.3677 12.166 48.3677 11.766ZM49.2637 11.766C49.2637 12.0113 49.3144 12.222 49.4157 12.398C49.517 12.574 49.6504 12.7073 49.8157 12.798C49.9864 12.8886 50.1704 12.934 50.3677 12.934C50.5384 12.934 50.7037 12.8886 50.8637 12.798C51.0237 12.7073 51.1544 12.5766 51.2557 12.406C51.3624 12.23 51.4157 12.0166 51.4157 11.766C51.4157 11.5153 51.3624 11.3046 51.2557 11.134C51.1544 10.958 51.0237 10.8246 50.8637 10.734C50.7037 10.6433 50.5384 10.598 50.3677 10.598C50.1704 10.598 49.9864 10.6433 49.8157 10.734C49.6504 10.8246 49.517 10.958 49.4157 11.134C49.3144 11.31 49.2637 11.5206 49.2637 11.766ZM55.8291 8.00596H56.7731V13.606H55.8291V8.00596ZM56.3891 8.83796V8.00596H57.5171C57.9277 8.00596 58.2824 8.07796 58.5811 8.22196C58.8797 8.36062 59.1117 8.56062 59.2771 8.82196C59.4477 9.07796 59.5331 9.38462 59.5331 9.74196C59.5331 10.0993 59.4477 10.4086 59.2771 10.67C59.1117 10.9313 58.8797 11.134 58.5811 11.278C58.2824 11.4166 57.9277 11.486 57.5171 11.486H56.3891V10.654H57.5171C57.8424 10.654 58.1037 10.5766 58.3011 10.422C58.4984 10.2673 58.5971 10.0406 58.5971 9.74196C58.5971 9.44329 58.4984 9.21929 58.3011 9.06996C58.1037 8.91529 57.8424 8.83796 57.5171 8.83796H56.3891ZM60.4541 8.00596H61.4221V13.606H60.4541V8.00596ZM62.2621 13.606H61.0381V12.718H62.2381C62.5154 12.718 62.7714 12.678 63.0061 12.598C63.2407 12.5126 63.4434 12.3926 63.6141 12.238C63.7901 12.078 63.9261 11.878 64.0221 11.638C64.1234 11.398 64.1741 11.1206 64.1741 10.806C64.1741 10.4913 64.1234 10.214 64.0221 9.97396C63.9261 9.73396 63.7901 9.53396 63.6141 9.37396C63.4434 9.21396 63.2407 9.09396 63.0061 9.01396C62.7714 8.93396 62.5154 8.89396 62.2381 8.89396H61.0381V8.00596H62.2621C62.8327 8.00596 63.3341 8.12329 63.7661 8.35796C64.1981 8.58729 64.5341 8.91262 64.7741 9.33396C65.0194 9.74996 65.1421 10.2406 65.1421 10.806C65.1421 11.3713 65.0194 11.8646 64.7741 12.286C64.5341 12.702 64.1981 13.0273 63.7661 13.262C63.3341 13.4913 62.8327 13.606 62.2621 13.606ZM66.6475 8.85396V8.00596H69.1515V8.85396H66.6475ZM66.6475 11.078V10.254H69.0715V11.078H66.6475ZM66.0635 8.00596H66.9915V13.606H66.0635V8.00596Z" fill="white"/>
</svg>
