<svg width="15" height="15" viewBox="0 0 15 15" fill="none" xmlns="http://www.w3.org/2000/svg">
<path fill-rule="evenodd" clip-rule="evenodd" d="M2.11282 1.01191L8.11184 1.92263C8.57487 1.99938 8.91256 2.39846 8.91 2.86661V14H6.5897V11.1348C6.5897 10.6052 6.16503 10.1805 5.63548 10.1805H4.27196C3.74241 10.1805 3.31774 10.6052 3.31774 11.1348V14H1.5449C1.24559 14 1 13.7544 1 13.4551V1.95589C1 1.67704 1.12535 1.40843 1.33768 1.22424C1.55002 1.04516 1.83398 0.968416 2.11282 1.01191ZM3.18216 8.9526H4.00079C4.22847 8.9526 4.4101 8.76841 4.4101 8.54329C4.4101 8.31817 4.22591 8.13397 4.00079 8.13397H3.18216C2.95703 8.13397 2.77284 8.31817 2.77284 8.54329C2.77284 8.76841 2.95703 8.9526 3.18216 8.9526ZM3.18216 7.31535H4.00079C4.22847 7.31535 4.4101 7.13115 4.4101 6.90603C4.4101 6.68091 4.22591 6.49672 4.00079 6.49672H3.18216C2.95703 6.49672 2.77284 6.68091 2.77284 6.90603C2.77284 7.13115 2.95703 7.31535 3.18216 7.31535ZM3.18216 5.67809H4.00079C4.22847 5.67809 4.4101 5.4939 4.4101 5.26877C4.4101 5.04365 4.22591 4.85946 4.00079 4.85946H3.18216C2.95703 4.85946 2.77284 5.04365 2.77284 5.26877C2.77284 5.4939 2.95703 5.67809 3.18216 5.67809ZM3.18216 4.04083H4.00079C4.22847 4.04083 4.4101 3.85664 4.4101 3.63152C4.4101 3.40639 4.22591 3.2222 4.00079 3.2222H3.18216C2.95703 3.2222 2.77284 3.40639 2.77284 3.63152C2.77284 3.85664 2.95703 4.04083 3.18216 4.04083ZM5.91177 8.9526H6.7304C6.95552 8.9526 7.13971 8.76841 7.13971 8.54329C7.13971 8.31817 6.95552 8.13397 6.7304 8.13397H5.91177C5.68665 8.13397 5.50246 8.31817 5.50246 8.54329C5.50246 8.76841 5.68665 8.9526 5.91177 8.9526ZM5.91177 7.31535H6.7304C6.95552 7.31535 7.13971 7.13115 7.13971 6.90603C7.13971 6.68091 6.95552 6.49672 6.7304 6.49672H5.91177C5.68665 6.49672 5.50246 6.68091 5.50246 6.90603C5.50246 7.13115 5.68665 7.31535 5.91177 7.31535ZM5.91177 5.67809H6.7304C6.95552 5.67809 7.13971 5.4939 7.13971 5.26877C7.13971 5.04365 6.95552 4.85946 6.7304 4.85946H5.91177C5.68665 4.85946 5.50246 5.04365 5.50246 5.26877C5.50246 5.4939 5.68665 5.67809 5.91177 5.67809ZM5.91177 4.04083H6.7304C6.95552 4.04083 7.13971 3.85664 7.13971 3.63152C7.13971 3.40639 6.95552 3.2222 6.7304 3.2222H5.91177C5.68665 3.2222 5.50246 3.40639 5.50246 3.63152C5.50246 3.85664 5.68665 4.04083 5.91177 4.04083ZM9.46094 6.00488L13.3469 6.8184C13.792 6.91817 14.099 7.3019 14.099 7.75214V13.0451C14.099 13.5721 13.6718 13.9993 13.1448 13.9993H9.46094V6.00488ZM11.2338 12.362H12.0524C12.2775 12.362 12.4617 12.1779 12.4617 11.9527C12.4617 11.7276 12.2775 11.5434 12.0524 11.5434H11.2338C11.0087 11.5434 10.8245 11.7276 10.8245 11.9527C10.8245 12.1779 11.0087 12.362 11.2338 12.362ZM11.2338 10.7248H12.0524C12.2775 10.7248 12.4617 10.5406 12.4617 10.3155C12.4617 10.0904 12.2775 9.90616 12.0524 9.90616H11.2338C11.0087 9.90616 10.8245 10.0904 10.8245 10.3155C10.8245 10.5406 11.0087 10.7248 11.2338 10.7248ZM11.2338 9.08753H12.0524C12.2775 9.08753 12.4617 8.90334 12.4617 8.67822C12.4617 8.45309 12.2775 8.2689 12.0524 8.2689H11.2338C11.0087 8.2689 10.8245 8.45309 10.8245 8.67822C10.8245 8.90334 11.0087 9.08753 11.2338 9.08753Z" fill="white"/>
</svg>
