<svg width="15" height="15" viewBox="0 0 15 15" fill="none" xmlns="http://www.w3.org/2000/svg">
<path fill-rule="evenodd" clip-rule="evenodd" d="M1.03952 3.94223C1.03645 3.96955 1.03307 3.99969 1 4.01157V4.11955C1.72583 4.52486 2.45249 4.93016 3.1797 5.33578C4.58382 6.11894 5.98998 6.90325 7.39614 7.6909C7.46777 7.72947 7.52507 7.73719 7.60386 7.6909C8.6531 7.10472 9.70055 6.52046 10.748 5.9362C11.7956 5.35186 12.8432 4.76753 13.8926 4.18126C13.8953 4.18009 13.898 4.17892 13.9008 4.17773C13.9348 4.16331 13.9735 4.14689 14 4.10413C13.8997 3.59504 13.6347 3.24793 13.1763 3.07052C12.9962 2.99695 12.8107 2.99877 12.6292 3.00055C12.6013 3.00082 12.5736 3.0011 12.546 3.0011H2.23196C1.66612 3.0011 1.22204 3.3482 1.04298 3.919C1.04132 3.92612 1.04043 3.93405 1.03952 3.94223ZM1 5.13006V11.5554C1.02993 11.5715 1.03554 11.6026 1.04103 11.633C1.04342 11.6463 1.04579 11.6594 1.05014 11.6711C1.20055 12.2342 1.67328 12.6199 2.21763 12.6199H12.7824C13.4413 12.6199 13.9928 12.0491 13.9928 11.3471V5.14548C13.9928 5.14229 13.9916 5.13909 13.9902 5.13535C13.9881 5.13006 13.9857 5.12367 13.9857 5.11463C13.9442 5.11463 13.914 5.13482 13.8842 5.15476C13.8728 5.16237 13.8615 5.16994 13.8496 5.17634C11.8226 6.31022 9.78843 7.45182 7.76143 8.59342C7.58237 8.69369 7.41763 8.69369 7.23857 8.59342C5.20441 7.45182 3.17025 6.31022 1.12893 5.16862C1.1206 5.16324 1.11227 5.15577 1.10367 5.14806C1.07529 5.12262 1.04397 5.09454 1 5.13006Z" fill="white"/>
</svg>
