<svg width="11" height="13" viewBox="0 0 11 13" fill="none" xmlns="http://www.w3.org/2000/svg">
<path d="M10.1752 3.93016C9.76432 1.91464 8.17232 0.376475 6.22083 0.0582344C4.26935 -0.260006 2.31786 0.747755 1.34212 2.55112C0.879922 3.4528 0.623147 4.40752 0.777212 5.46832C0.879922 6.21088 1.18805 6.84736 1.54754 7.48384C2.36921 9.022 3.39631 10.401 4.47477 11.7801C4.83425 12.2044 5.14238 12.5757 5.50187 13C5.55322 12.947 5.60458 12.8939 5.65593 12.8409C6.3749 11.9922 7.09387 11.1436 7.76148 10.2419C8.58316 9.18112 9.30213 8.06728 9.81568 6.84736C10.2265 5.8396 10.3806 4.93792 10.1752 3.93016ZM5.50187 7.64296C4.06393 7.64296 2.93412 6.47608 2.93412 4.99096C2.93412 3.50584 4.06393 2.33896 5.50187 2.33896C6.9398 2.33896 8.06961 3.50584 8.06961 4.99096C8.06961 6.47608 6.9398 7.64296 5.50187 7.64296Z" fill="white"/>
</svg>
