<svg width="87" height="40" viewBox="0 0 87 40" fill="none" xmlns="http://www.w3.org/2000/svg">
<path d="M78.4817 9.9668C79.8349 9.9668 81.188 9.9668 82.5411 9.9668C82.5411 9.24362 82.5411 8.52043 82.5411 7.82869C80.4192 7.82869 78.2972 7.82869 76.1445 7.82869C76.1445 10.6585 76.1445 13.457 76.1445 16.2554C79.7734 16.2554 83.4022 16.2554 87.0003 16.2554C87.0003 15.5322 87.0003 14.8404 87.0003 14.0858C84.1402 14.0858 81.311 14.0858 78.4817 14.0858C78.4817 12.7023 78.4817 11.3503 78.4817 9.9668Z" fill="#2775FF"/>
<path d="M8.94905 8.52091C7.99572 8.04927 6.95012 7.76629 5.93528 7.4833C5.28947 7.29464 4.61291 7.13743 4.02861 6.823C3.25979 6.44569 2.92151 5.75395 3.13678 4.74777C3.29055 3.99315 3.87485 3.61583 4.55141 3.45862C5.47399 3.23852 6.36582 3.39573 7.25765 3.7416C7.93421 4.02459 8.58002 4.33902 9.19508 4.77922C9.62562 4.11892 10.0562 3.49006 10.4867 2.82976C9.22583 1.98081 7.87271 1.44628 6.36582 1.32051C6.21206 1.25762 6.02754 1.35195 5.87378 1.28906H4.95119C4.82818 1.35195 4.67442 1.28906 4.55141 1.32051C4.4284 1.32051 4.30539 1.35195 4.21313 1.35195C3.41356 1.47772 2.67549 1.76071 1.99893 2.26379C0.861077 3.11275 0.399786 4.24469 0.399786 5.65962C0.430539 7.10599 1.01484 8.1436 2.2757 8.8039C3.13678 9.27554 4.09012 9.52709 5.04345 9.77863C5.90453 9.99873 6.73486 10.2188 7.53443 10.6276C8.58002 11.1621 8.61077 12.2626 8.334 12.9544C8.08798 13.5832 7.59593 13.8348 7.01163 14.0234C6.30432 14.2435 5.56625 14.1806 4.82818 14.0549C3.72108 13.8348 2.737 13.3002 1.81441 12.6399C1.6914 12.5456 1.59914 12.4827 1.47613 12.3884C0.984088 12.9858 0.492044 13.5832 0 14.2121C0.0922583 14.3064 0.153764 14.3693 0.246022 14.4322C0.984088 15.0296 1.81441 15.4069 2.70624 15.7213C4.36689 16.3187 6.05829 16.476 7.78045 16.0358C9.59486 15.5641 10.9787 14.3378 11.1017 12.2312C11.1633 11.2564 11.0402 10.3446 10.3637 9.58997C9.9639 9.08689 9.47185 8.77246 8.94905 8.52091Z" fill="#2775FF"/>
<path d="M67.1952 1.91733C66.4264 1.6029 65.6269 1.47713 64.8273 1.47713C62.8284 1.47713 60.8294 1.47713 58.7997 1.47713C58.7382 1.47713 58.646 1.47713 58.5845 1.47713C58.5845 6.41365 58.5845 11.3187 58.5845 16.2553C59.5071 16.2553 60.3989 16.2553 61.2907 16.2553C61.2907 12.0734 61.2907 7.89147 61.2907 3.70957C61.506 3.70957 61.6905 3.70957 61.875 3.70957C62.8899 3.74101 63.9047 3.64668 64.9195 3.77245C65.8114 3.89823 66.5802 4.2441 66.98 5.09305C67.2568 5.69047 67.3183 6.31932 67.2568 6.97962C67.0722 8.30022 66.3649 9.08629 65.0733 9.33784C64.5505 9.43217 63.997 9.40072 63.4742 9.40072C63.2896 9.40072 63.1359 9.40072 62.9206 9.40072C63.4127 10.1554 63.8739 10.8471 64.3045 11.5703C65.3193 11.6646 66.734 11.2873 67.718 10.7213C68.4561 10.2811 69.0712 9.74659 69.4709 8.96052C70.2398 7.45127 70.1783 5.94201 69.594 4.40131C69.1942 3.20648 68.3639 2.38897 67.1952 1.91733Z" fill="#2775FF"/>
<path d="M26.7557 13.0803C25.8946 13.7721 24.9105 13.9922 23.8649 14.0551C21.866 14.1808 20.4514 13.269 19.4981 11.5396C18.9137 10.502 18.7907 9.37008 18.883 8.17525C19.0368 6.54022 19.8056 5.21962 21.1279 4.33922C22.6656 3.27017 25.0335 3.45882 26.6019 4.6851C26.8172 4.84231 27.0325 5.06241 27.2477 5.25107C27.7705 4.62221 28.2933 4.0248 28.8161 3.39594C28.7239 3.27017 28.6009 3.17584 28.4779 3.08151C27.8321 2.54698 27.094 2.16967 26.3252 1.88668C24.8183 1.3836 23.2806 1.35216 21.743 1.63514C20.3284 1.91813 19.129 2.57843 18.1142 3.64748C16.4843 5.40828 15.8692 7.51495 16.146 9.90461C16.4535 12.3257 17.6836 14.1179 19.7441 15.3442C20.9127 16.036 22.235 16.2246 23.5882 16.2246C25.1566 16.2246 26.6019 15.8159 27.8936 14.8726C28.2626 14.621 28.6009 14.338 28.9084 13.9607C28.3856 13.4576 27.8628 12.9546 27.34 12.4515C27.1862 12.6716 26.971 12.8917 26.7557 13.0803Z" fill="#2775FF"/>
<path d="M76.1445 1.54074C76.1445 2.26393 76.1445 2.95567 76.1445 3.67885C79.7734 3.67885 83.4022 3.67885 87.0003 3.67885C87.0003 2.95567 87.0003 2.26393 87.0003 1.54074C83.3714 1.54074 79.7734 1.54074 76.1445 1.54074Z" fill="#2775FF"/>
<path d="M51.204 7.23162C51.0195 6.31978 50.7427 5.43938 50.3121 4.62187C50.0354 4.08734 49.6971 3.58425 49.2973 3.11261C48.5285 2.16933 47.6059 1.44614 46.5603 0.880171C45.9452 0.534299 45.2687 0.3142 44.5614 0.156985C44.4999 0.156985 44.4691 0.125542 44.4076 0.188428C44.4076 0.597185 44.4076 1.03738 44.4076 1.44614C47.6674 2.48376 49.5433 4.7162 50.0354 8.20635C49.0205 8.20635 48.0364 8.20635 47.0523 8.20635C47.0523 7.54605 47.0523 6.9172 47.0523 6.2569C45.7915 5.50227 44.5306 4.74764 43.2698 4.02445C43.2698 3.89868 43.2698 3.80435 43.2698 3.67858C43.2698 2.54664 43.2698 1.38326 43.2698 0.251314C43.2698 0.156985 43.2698 0.0626568 43.3005 -0.000228882C43.116 -0.000228882 42.9315 -0.000228882 42.747 -0.000228882C42.4541 -0.000228882 42.7597 -0.000214604 42.5624 -0.000228882C42.2857 -0.000228882 42.0396 -0.000228882 41.7629 -0.000228882C41.5168 0.0940996 41.2401 0.0626568 40.9941 0.125542C40.3482 0.282757 39.7024 0.471414 39.0874 0.754399C37.9803 1.25748 37.0269 1.98067 36.2274 2.89251C35.7968 3.36416 35.4278 3.93013 35.1203 4.46465C34.7205 5.1564 34.4437 5.91103 34.2592 6.6971C34.2284 6.79142 34.1362 6.85431 34.1669 7.01152C34.5975 7.01152 35.0588 7.01152 35.4893 7.01152C36.0121 5.03063 37.1192 3.45848 38.8721 2.35798C40.01 1.6348 41.4861 1.28893 42.0089 1.32037C42.0089 2.20077 42.0089 3.11261 42.0089 3.99301C40.7788 4.7162 39.5179 5.47083 38.2878 6.19401C38.2878 6.85431 38.2878 7.51461 38.2878 8.11202C38.2263 8.20635 38.134 8.17491 38.0725 8.17491C36.7502 8.17491 35.4278 8.17491 34.1054 8.17491C34.0747 8.17491 34.0132 8.17491 33.9824 8.14347C33.9824 8.70944 33.9824 9.27541 33.9824 9.84138C34.0747 10.0929 34.0439 10.3759 34.1362 10.6275C34.3822 11.5079 34.6282 12.3883 35.0895 13.1743C35.3048 13.5516 35.5201 13.8975 35.7968 14.2434C36.1966 14.7779 36.6579 15.2495 37.15 15.6583C37.7035 16.1299 38.2878 16.5387 38.9336 16.8531C39.5487 17.1361 40.1945 17.3562 40.8403 17.5134C40.8403 17.5134 40.871 17.5134 40.9018 17.482C40.9018 17.0418 40.9018 16.6016 40.9018 16.1614C37.6728 15.1238 35.7968 12.9228 35.3048 9.46407C36.3196 9.46407 37.3037 9.46407 38.3186 9.46407C38.3186 10.596 38.3186 11.728 38.3186 12.8913C39.5794 12.8913 40.7788 12.8913 41.9781 12.8913C42.0396 12.9542 42.0396 13.0171 42.0396 13.0486C42.0396 14.5264 42.0396 16.0042 42.0396 17.5134C42.0396 17.5449 42.0396 17.6078 42.0089 17.6392C42.5624 17.6392 43.1467 17.6392 43.7003 17.6392C43.9156 17.5449 44.1308 17.5449 44.3769 17.5134C45.0227 17.3562 45.6377 17.1676 46.2528 16.8846C46.9293 16.5701 47.5444 16.1614 48.1287 15.6897C49.0513 14.9666 49.7278 14.0547 50.3121 13.0486C50.7119 12.3883 50.9272 11.6336 51.1117 10.9104C51.1425 10.8161 51.2347 10.7218 51.1732 10.596C50.7427 10.596 50.3121 10.596 49.8508 10.596C49.3281 12.6084 48.2517 14.149 46.5295 15.2181C45.3609 15.9413 43.9156 16.35 43.3313 16.2557C43.3313 15.1552 43.3313 14.0233 43.3313 12.8599C44.5921 12.8599 45.8222 12.8599 47.0831 12.8599C47.0831 11.6965 47.0831 10.5646 47.0831 9.46407C47.1446 9.40118 47.2061 9.40118 47.2676 9.40118C48.59 9.40118 49.8816 9.40118 51.204 9.40118C51.2347 9.40118 51.2962 9.40118 51.327 9.40118C51.327 8.80377 51.327 8.17491 51.327 7.5775C51.204 7.5775 51.2347 7.38884 51.204 7.23162ZM45.6992 11.6651C43.6695 11.6651 41.6091 11.6651 39.5487 11.6651C39.5487 10.0929 39.5487 8.55222 39.5487 6.98008C40.5635 6.38267 41.5784 5.75381 42.6239 5.1564C43.6695 5.72237 44.6536 6.35122 45.6992 6.98008C45.6992 8.52078 45.6992 10.0929 45.6992 11.6651Z" fill="#FE9142"/>
<path d="M81.691 37.5161C81.1682 37.5161 80.7069 37.5161 80.2149 37.5161C80.2149 37.7362 80.2149 37.9248 80.2149 38.1449C80.4917 38.1449 80.7992 38.1449 81.076 38.1449C81.1067 38.3022 81.076 38.4279 81.0452 38.5537C80.9837 38.9939 80.6147 39.3083 80.1841 39.3083C79.7536 39.3083 79.4153 38.9625 79.3846 38.5223C79.3231 37.9877 79.3231 37.4532 79.3846 36.9501C79.4461 36.3527 80.0611 35.9754 80.5839 36.2584C80.7992 36.3841 80.9222 36.6042 81.0145 36.7929C81.2297 36.7929 81.445 36.7929 81.691 36.7929C81.5988 36.0383 81.0145 35.4723 80.2764 35.4723C79.4768 35.4723 78.8618 35.9439 78.7695 36.73C78.6773 37.3589 78.708 37.9563 78.7388 38.5851C78.7695 39.2769 79.2308 39.8114 79.9074 39.9686C79.9381 40.0001 79.9996 39.9686 80.0304 40.0001C80.1534 40.0001 80.2764 40.0001 80.3687 40.0001C80.3994 39.9686 80.4609 40.0001 80.4917 39.9686C81.1067 39.8114 81.5065 39.4341 81.6295 38.8052C81.7525 38.3336 81.691 37.9248 81.691 37.5161Z" fill="#343432"/>
<path d="M14.3125 38.3649C13.9127 37.3901 13.5129 36.4468 13.1131 35.5036C12.8978 35.5036 12.7133 35.5036 12.5288 35.5036C12.5288 36.9814 12.5288 38.4592 12.5288 39.9056C12.7441 39.9056 12.9286 39.9056 13.1439 39.9056C13.1439 39.0252 13.1439 38.1448 13.1439 37.2958H13.1746C13.4514 37.9561 13.7282 38.6164 14.0049 39.3081C14.1895 39.3081 14.374 39.3081 14.5585 39.3081C14.8353 38.6478 15.112 37.9561 15.3888 37.2958C15.4196 37.2958 15.4196 37.2958 15.4503 37.2958C15.4503 38.1762 15.4503 39.0252 15.4503 39.9056C15.6656 39.9056 15.8809 39.9056 16.0654 39.9056C16.0654 38.4277 16.0654 36.9814 16.0654 35.5036C15.8501 35.5036 15.6656 35.5036 15.4503 35.5036C15.0813 36.4468 14.7123 37.3587 14.3125 38.3649Z" fill="#343432"/>
<path d="M25.3836 38.5537H25.3528C24.7377 37.5161 24.1227 36.5099 23.5076 35.4723C23.2924 35.4723 23.1078 35.4723 22.8926 35.4723C22.8926 36.9501 22.8926 38.4279 22.8926 39.8743C23.1078 39.8743 23.2924 39.8743 23.5384 39.8743C23.5384 38.8681 23.5384 37.862 23.5384 36.8558H23.5691C24.1842 37.862 24.7992 38.8996 25.4143 39.9057C25.6296 39.9057 25.8448 39.9057 26.0294 39.9057C26.0294 38.4279 26.0294 36.9501 26.0294 35.5037C25.8141 35.5037 25.6296 35.5037 25.4143 35.5037C25.3836 36.5099 25.3836 37.5475 25.3836 38.5537Z" fill="#343432"/>
<path d="M77.325 38.6164C76.6792 37.5473 76.0641 36.5097 75.449 35.5036C75.2338 35.5036 75.0493 35.5036 74.834 35.5036C74.834 36.9814 74.834 38.4277 74.834 39.9056C75.0493 39.9056 75.2338 39.9056 75.4798 39.9056C75.4798 38.8994 75.4798 37.8932 75.4798 36.887H75.5105C76.1256 37.8932 76.7407 38.9308 77.3557 39.937C77.571 39.937 77.7555 39.937 77.9708 39.937C77.9708 38.4592 77.9708 36.9814 77.9708 35.535C77.7555 35.535 77.571 35.535 77.325 35.535C77.325 36.5412 77.325 37.5473 77.325 38.6164Z" fill="#343432"/>
<path d="M50.4773 38.6164C49.8315 37.5473 49.2164 36.5097 48.6014 35.5036C48.3861 35.5036 48.2016 35.5036 47.9863 35.5036C47.9863 36.9814 47.9863 38.4277 47.9863 39.9056C48.2016 39.9056 48.3861 39.9056 48.6321 39.9056C48.6321 38.8994 48.6321 37.8932 48.6321 36.887H48.6629C49.2779 37.8932 49.893 38.9308 50.5081 39.937C50.7233 39.937 50.9078 39.937 51.1231 39.937C51.1231 38.4592 51.1231 36.9814 51.1231 35.535C50.9078 35.535 50.7233 35.535 50.4773 35.535C50.4773 36.5412 50.4773 37.5473 50.4773 38.6164Z" fill="#343432"/>
<path d="M69.3909 37.8304C69.8522 37.5474 70.0675 37.0128 69.9445 36.4154C69.8522 35.9438 69.4524 35.535 68.9604 35.5036C68.3453 35.4721 67.6995 35.5036 67.0845 35.5036V39.9056H67.7303V38.0505H68.5299C68.8066 38.6793 69.1142 39.3082 69.3909 39.9056H70.1597C69.8215 39.2453 69.5139 38.6164 69.2064 37.9561C69.2679 37.9247 69.3294 37.8932 69.3909 37.8304ZM68.8066 37.4216C68.4683 37.453 68.0993 37.4216 67.7303 37.4216V36.101C68.0993 36.101 68.4683 36.0696 68.8374 36.101C69.2064 36.1324 69.3909 36.384 69.3909 36.7299C69.3602 37.0757 69.1449 37.3902 68.8066 37.4216Z" fill="#343432"/>
<path d="M55.5208 37.8935C56.0744 37.579 56.3204 37.0131 56.1666 36.3842C56.0436 35.8182 55.5516 35.4724 54.9365 35.4724C54.4445 35.4724 53.9524 35.4724 53.4604 35.4724C53.3989 35.4724 53.3374 35.4409 53.3066 35.5038V39.9058H53.9217V38.0507H54.7213C54.998 38.6795 55.3056 39.3084 55.5823 39.9058H56.3512C56.0129 39.2455 55.7054 38.6166 55.3978 37.9563C55.4593 37.9249 55.4901 37.9249 55.5208 37.8935ZM55.0288 37.4218C54.6598 37.4533 54.3215 37.4218 53.9525 37.4218V36.1012C54.3215 36.1012 54.6905 36.0698 55.0595 36.1012C55.4286 36.1327 55.6131 36.3842 55.6131 36.7301C55.5823 37.0759 55.3363 37.3904 55.0288 37.4218Z" fill="#343432"/>
<path d="M10.2533 35.4405C9.51528 35.4405 8.90022 35.9436 8.80796 36.6353C8.7157 37.2956 8.7157 37.9874 8.80796 38.6791C8.86947 39.3394 9.33076 39.7796 9.94582 39.9054C9.97657 39.9054 10.0381 39.9054 10.0688 39.9054C10.2226 39.9054 10.4071 39.9054 10.5609 39.9054C11.1452 39.8111 11.6372 39.3394 11.6987 38.7734C11.791 38.0503 11.791 37.3271 11.6987 36.6353C11.6372 35.9436 10.9914 35.4405 10.2533 35.4405ZM11.1144 38.459C11.0837 38.8992 10.7454 39.2451 10.3148 39.2765C9.91506 39.308 9.51528 38.9621 9.48452 38.4905C9.42302 37.9559 9.42302 37.4214 9.48452 36.8869C9.54603 36.4467 9.91506 36.1008 10.3148 36.1008C10.7454 36.1008 11.0837 36.4467 11.1144 36.9183C11.1452 37.1699 11.1452 37.4528 11.1452 37.7044C11.1144 37.9559 11.1144 38.2075 11.1144 38.459Z" fill="#343432"/>
<path d="M45.8036 35.4405C45.0656 35.4405 44.4505 35.9436 44.3583 36.6353C44.266 37.2956 44.266 37.9874 44.3583 38.6791C44.4198 39.3394 44.8811 39.7796 45.4961 39.9054C45.5269 39.9054 45.5884 39.9054 45.6191 39.9054C45.7729 39.9054 45.9574 39.9054 46.1112 39.9054C46.6955 39.8111 47.1875 39.3394 47.249 38.7734C47.3413 38.0503 47.3413 37.3271 47.249 36.6353C47.1568 35.9436 46.5417 35.4405 45.8036 35.4405ZM46.634 38.4905C46.6032 38.9307 46.2342 39.2765 45.8036 39.308C45.3731 39.308 45.0041 38.9621 44.9733 38.5219C44.9118 37.9874 44.9118 37.4528 44.9733 36.9498C45.0041 36.4781 45.3731 36.1637 45.8036 36.1637C46.2342 36.1637 46.6032 36.5096 46.634 36.9812C46.6647 37.2327 46.6647 37.4843 46.6647 37.7358C46.6647 37.9559 46.6647 38.2075 46.634 38.4905Z" fill="#343432"/>
<path d="M64.87 35.4405C64.132 35.4405 63.5169 35.9436 63.4247 36.6353C63.3324 37.2956 63.3324 37.9874 63.4247 38.6791C63.4862 39.3394 63.9475 39.7796 64.5625 39.9054C64.5933 39.9054 64.6548 39.9054 64.6855 39.9054C64.8393 39.9054 65.0238 39.9054 65.1776 39.9054C65.7619 39.8111 66.2539 39.3394 66.3154 38.7734C66.4077 38.0503 66.4077 37.3271 66.3154 36.6353C66.2539 35.9436 65.6081 35.4405 64.87 35.4405ZM65.7004 38.4905C65.6696 38.9307 65.3006 39.2765 64.87 39.308C64.4395 39.308 64.0705 38.9621 64.0397 38.5219C63.9782 37.9874 63.9782 37.4528 64.0397 36.9498C64.0705 36.4781 64.4395 36.1637 64.87 36.1637C65.3006 36.1637 65.6696 36.5096 65.7004 36.9812C65.7311 37.2327 65.7311 37.4843 65.7311 37.7358C65.7311 37.9559 65.7311 38.2075 65.7004 38.4905Z" fill="#343432"/>
<path d="M7.42317 37.3589C6.86962 37.3589 6.31607 37.3589 5.76252 37.3589C5.76252 36.73 5.76252 36.1012 5.76252 35.4723C5.54725 35.4723 5.36273 35.4723 5.14746 35.4723C5.14746 36.9501 5.14746 38.4279 5.14746 39.8743C5.36273 39.8743 5.54725 39.8743 5.76252 39.8743C5.76252 39.2454 5.76252 38.6166 5.76252 37.9563C6.31607 37.9563 6.86962 37.9563 7.42317 37.9563C7.42317 38.5851 7.42317 39.2454 7.42317 39.8743C7.63843 39.8743 7.8537 39.8743 8.03822 39.8743C8.03822 38.3965 8.03822 36.9501 8.03822 35.4723C7.82295 35.4723 7.63843 35.4723 7.39241 35.4723C7.42316 36.1326 7.42317 36.7615 7.42317 37.3589Z" fill="#343432"/>
<path d="M17.5726 37.9875C18.1569 37.9875 18.7104 37.9875 19.2947 37.9875C19.3255 37.7674 19.3255 37.5788 19.2947 37.3901C18.7104 37.3901 18.1569 37.3901 17.5726 37.3901C17.5726 36.9499 17.5726 36.5412 17.5726 36.101C18.2491 36.101 18.9257 36.101 19.5715 36.101C19.5715 35.8809 19.5715 35.6922 19.5715 35.5036C18.6797 35.5036 17.7878 35.5036 16.9268 35.5036C16.9268 36.9814 16.9268 38.4592 16.9268 39.9056C17.8186 39.9056 18.7104 39.9056 19.5715 39.9056C19.5715 39.6855 19.5715 39.4968 19.5715 39.2767C18.8949 39.2767 18.2491 39.2767 17.5418 39.2767C17.5726 38.8365 17.5726 38.4277 17.5726 37.9875Z" fill="#343432"/>
<path d="M36.3318 39.2771C35.6552 39.2771 34.9786 39.2771 34.3328 39.2771C34.3328 38.8369 34.3328 38.4281 34.3328 37.9879C34.9171 37.9879 35.4707 37.9879 36.055 37.9879C36.0857 37.7678 36.0857 37.5792 36.055 37.3905C35.4707 37.3905 34.9171 37.3905 34.3328 37.3905C34.3328 36.9503 34.3328 36.5415 34.3328 36.1328C35.0094 36.1328 35.6859 36.1328 36.3625 36.1328C36.3625 35.9127 36.3625 35.724 36.3625 35.5354C35.4707 35.5354 34.5789 35.5354 33.7178 35.5354C33.7178 37.0132 33.7178 38.491 33.7178 39.9374C34.6096 39.9374 35.4707 39.9374 36.3625 39.9374C36.3625 39.6858 36.3625 39.4972 36.3318 39.2771Z" fill="#343432"/>
<path d="M57.5198 37.9877C58.1041 37.9877 58.6577 37.9877 59.242 37.9877C59.2727 37.7676 59.2727 37.579 59.242 37.3903C58.6577 37.3903 58.1041 37.3903 57.5198 37.3903C57.5198 36.9501 57.5198 36.5414 57.5198 36.1012C58.1964 36.1012 58.8729 36.1012 59.5188 36.1012C59.5188 35.8811 59.5188 35.6924 59.5188 35.4723C58.6269 35.4723 57.7659 35.4723 56.874 35.4723C56.874 36.9501 56.874 38.4279 56.874 39.8743C57.7659 39.8743 58.6577 39.8743 59.5188 39.8743C59.5188 39.6542 59.5188 39.4655 59.5188 39.2454C58.8422 39.2454 58.1656 39.2454 57.5198 39.2454C57.5198 38.8367 57.5198 38.4279 57.5198 37.9877Z" fill="#343432"/>
<path d="M28.5512 37.39C28.3051 37.3585 28.0591 37.3271 27.8131 37.2642C27.4748 37.1699 27.3518 36.8869 27.4133 36.5724C27.4748 36.2895 27.7823 36.1008 28.1206 36.1322C28.4897 36.1637 28.7972 36.258 29.1355 36.4781C29.2585 36.2895 29.3815 36.1008 29.5045 35.9121C29.0432 35.5663 28.5819 35.4405 28.0284 35.4405C27.321 35.4405 26.7983 35.9121 26.7675 36.5724C26.706 37.3585 27.1058 37.8616 27.8746 37.9874C28.0899 38.0188 28.3051 38.0503 28.4897 38.0817C28.7972 38.1446 28.9509 38.3332 28.9509 38.6162C28.9509 38.9307 28.8279 39.1193 28.5204 39.2136C28.3666 39.2765 28.1821 39.2765 28.0284 39.2765C27.6286 39.2451 27.2595 39.1193 26.9213 38.8363C26.7675 39.025 26.6445 39.1822 26.4907 39.3394C26.8598 39.6538 27.2288 39.8425 27.6901 39.9054C27.9669 39.9054 28.2129 39.9054 28.4897 39.9054C28.9509 39.8425 29.32 39.6538 29.4737 39.2136C29.812 38.4276 29.4737 37.5472 28.5512 37.39Z" fill="#343432"/>
<path d="M31.8721 35.4724C31.38 35.4724 30.8572 35.4724 30.3652 35.4724C30.3037 35.4724 30.2729 35.4409 30.2422 35.5038V39.9058H30.8572V38.1764C31.2263 38.1764 31.5338 38.1764 31.8721 38.1764C32.6102 38.1764 33.1637 37.6105 33.1637 36.8244C33.1329 36.0383 32.6102 35.5038 31.8721 35.4724ZM32.4871 36.8558C32.4564 37.2332 32.2104 37.5161 31.8413 37.5476C31.5646 37.5476 31.257 37.5476 30.9803 37.5476C30.9495 37.5476 30.9187 37.5476 30.8572 37.5476V36.1327C31.2263 36.1327 31.5646 36.1012 31.9336 36.1327C32.3334 36.1641 32.5179 36.4471 32.4871 36.8558Z" fill="#343432"/>
<path d="M61.9482 35.5036C61.3331 35.4093 60.7181 35.4722 60.0723 35.4722V39.8742H60.6873V38.1448C61.0256 38.1448 61.3639 38.1448 61.7022 38.1448C62.1327 38.1448 62.471 37.9562 62.7478 37.5789C63.3013 36.7928 62.8708 35.6609 61.9482 35.5036ZM62.348 36.8871C62.3172 37.2644 62.0712 37.5474 61.7022 37.5474C61.3946 37.5474 61.0564 37.5474 60.7181 37.5474V36.1325C61.0871 36.1325 61.4254 36.1011 61.7944 36.1325C62.1635 36.1639 62.3787 36.4469 62.348 36.8871Z" fill="#343432"/>
<path d="M38.4845 36.1637C38.792 36.258 38.9458 36.4781 39.0688 36.7611C39.2841 36.7611 39.4993 36.7611 39.7454 36.7611C39.6531 35.9436 39.038 35.4091 38.2077 35.4405C37.4696 35.4719 36.8546 36.0694 36.7931 36.8554C36.7623 37.4214 36.7623 37.9874 36.7931 38.5533C36.8238 39.2451 37.2851 39.7796 37.9617 39.9368C37.9924 39.9368 38.0539 39.9368 38.0847 39.9368C38.2385 39.9368 38.423 39.9368 38.5767 39.9368C39.1918 39.8425 39.6838 39.308 39.7146 38.6791C39.5916 38.6791 39.4993 38.6791 39.3763 38.6791C39.2533 38.6791 39.161 38.6791 39.0688 38.6791C39.038 38.742 39.0073 38.8049 38.9765 38.8363C38.7613 39.1822 38.4537 39.3394 38.0847 39.2451C37.7464 39.1507 37.5004 38.8678 37.4696 38.4905C37.4081 37.9559 37.4081 37.4528 37.4696 36.9183C37.5004 36.3523 37.9924 36.0065 38.4845 36.1637Z" fill="#343432"/>
<path d="M39.6831 36.0695C40.0521 36.0695 40.4212 36.0695 40.821 36.0695C40.821 37.3587 40.821 38.6164 40.821 39.9056C41.0362 39.9056 41.2515 39.9056 41.4668 39.9056C41.4668 38.6164 41.4668 37.3587 41.4668 36.0695C41.8666 36.0695 42.2356 36.0695 42.6046 36.0695C42.6046 35.8809 42.6046 35.6922 42.6046 35.5036C41.6205 35.5036 40.6672 35.5036 39.6831 35.5036C39.6831 35.6922 39.6831 35.8809 39.6831 36.0695Z" fill="#343432"/>
<path d="M70.0977 36.0695C70.4667 36.0695 70.8357 36.0695 71.2355 36.0695C71.2355 37.3587 71.2355 38.6164 71.2355 39.9056C71.4508 39.9056 71.666 39.9056 71.8813 39.9056C71.8813 38.6164 71.8813 37.3587 71.8813 36.0695C72.2504 36.0695 72.6194 36.0695 73.0192 36.0695C73.0192 35.8809 73.0192 35.6922 73.0192 35.5036C72.0351 35.5036 71.0817 35.5036 70.0977 35.5036C70.0977 35.6922 70.0977 35.8809 70.0977 36.0695Z" fill="#343432"/>
<path d="M43.0044 39.9056C43.2197 39.9056 43.4042 39.9056 43.6194 39.9056C43.6194 38.4277 43.6194 36.9814 43.6194 35.5036C43.4042 35.5036 43.1889 35.5036 43.0044 35.5036C43.0044 36.9814 43.0044 38.4592 43.0044 39.9056Z" fill="#343432"/>
<path d="M73.4189 39.9056C73.6342 39.9056 73.8495 39.9056 74.034 39.9056C74.034 38.4277 74.034 36.9499 74.034 35.5036C73.8187 35.5036 73.6342 35.5036 73.4189 35.5036C73.4189 36.9814 73.4189 38.4277 73.4189 39.9056Z" fill="#343432"/>
<path d="M21.4775 39.9056C21.6928 39.9056 21.8773 39.9056 22.0926 39.9056C22.0926 38.4277 22.0926 36.9814 22.0926 35.5036C21.8773 35.5036 21.6928 35.5036 21.4775 35.5036C21.4775 36.9814 21.4775 38.4277 21.4775 39.9056Z" fill="#343432"/>
<path d="M1.61427 29.9224V20.3332H0V29.9224H1.61427Z" fill="#2775FF"/>
<path d="M15.5668 27.4262L10.9241 20.3332H9.32312V29.9224H10.8173V22.7612L15.5 29.9224H17.0476V20.3332H15.5668V27.4262Z" fill="#2775FF"/>
<path d="M27.5315 30.168C29.5594 30.168 31.0936 29.0904 31.0936 27.1671C31.0936 25.4484 30.0797 24.6709 28.1319 24.2071C26.4109 23.8115 25.9306 23.4432 25.9306 22.7066C25.9306 21.9564 26.571 21.5199 27.6382 21.5199C28.6121 21.5199 29.4526 21.7655 30.2264 22.3111L31.0135 21.1244C30.1864 20.4833 29.0524 20.115 27.7583 20.115C25.8239 20.115 24.3697 21.1244 24.3697 22.8703C24.3697 24.4935 25.4636 25.2165 27.3581 25.653C28.959 26.0076 29.5327 26.4168 29.5327 27.3171C29.5327 28.2719 28.7055 28.7357 27.5982 28.7357C26.3708 28.7357 25.5037 28.3674 24.7299 27.7673L23.9828 29.0085C24.8099 29.7042 26.024 30.168 27.5315 30.168Z" fill="#2775FF"/>
<path d="M42.0777 20.3332H38.2488V29.9224H39.863V26.3896H42.1177C44.1055 26.3896 45.453 25.2438 45.453 23.2659C45.453 21.4381 44.2256 20.3332 42.0777 20.3332ZM39.863 24.971V21.7655H42.0643C43.2517 21.7655 43.9187 22.352 43.9187 23.3205C43.9187 24.3844 43.2383 24.971 42.0777 24.971H39.863Z" fill="#2775FF"/>
<path d="M53.9676 25.7621H58.1967V24.3299H53.9676V21.7927H58.5169V20.3332H52.3533V29.9224H58.637V28.4629H53.9676V25.7621Z" fill="#2775FF"/>
<path d="M69.8789 30.168C71.2797 30.168 72.5204 29.6769 73.3743 28.6675L72.2937 27.6581C71.72 28.2856 70.9329 28.6402 69.9056 28.6402C68.0245 28.6402 66.7571 27.1534 66.7571 25.1483C66.7571 23.1295 68.0245 21.629 69.9056 21.629C70.9329 21.629 71.7333 22.011 72.307 22.6384L73.4277 21.6018C72.5605 20.5651 71.3331 20.115 69.8789 20.115C67.0906 20.115 65.0895 22.2702 65.0895 25.1483C65.0895 27.9991 66.9439 30.168 69.8789 30.168Z" fill="#2775FF"/>
<path d="M87.0003 20.3332H79.2758V21.7927H82.3309V29.9224H83.9452V21.7927H87.0003V20.3332Z" fill="#2775FF"/>
</svg>
