<svg width="25" height="25" viewBox="0 0 25 25" fill="none" xmlns="http://www.w3.org/2000/svg">
<path d="M12.5 0C5.56641 0 0 5.56641 0 12.5C0 19.3848 5.56641 25 12.5 25C19.3848 25 25 19.4336 25 12.5C24.9512 5.56641 19.3848 0 12.5 0ZM12.4023 20.0195C11.7676 20.0195 11.2305 19.4824 11.2305 18.8477C11.2305 18.2129 11.7676 17.6758 12.4023 17.6758C13.0371 17.6758 13.5742 18.2129 13.5742 18.8477C13.5742 19.4824 13.0371 20.0195 12.4023 20.0195ZM16.5527 10.5957C16.2598 11.1328 15.7227 11.7188 14.9414 12.3535C14.0625 13.0859 13.7207 13.5254 13.623 13.7695C13.5254 14.0137 13.4277 14.3066 13.4277 14.7949C13.3789 15.332 12.9395 15.7715 12.4023 15.7715C12.1094 15.7715 11.8164 15.625 11.6211 15.4297C11.4258 15.2344 11.3281 14.9414 11.3281 14.6484C11.377 13.916 11.5234 13.3789 11.7188 12.9395C12.0117 12.4023 12.5 11.7676 13.2324 11.1816C14.0625 10.4492 14.4043 10.0586 14.502 9.86328C14.6484 9.57031 14.7461 9.27734 14.7461 8.93555C14.7461 8.30078 14.5508 7.76367 14.1113 7.37305C13.6719 6.98242 13.1348 6.73828 12.4512 6.73828C11.2793 6.73828 10.5469 7.32422 10.2539 8.44727C10.1074 8.93555 9.66797 9.22852 9.17969 9.22852C8.78906 9.22852 8.44727 9.0332 8.25195 8.74023C8.05664 8.44727 8.00781 8.10547 8.10547 7.8125C8.34961 7.08008 8.74023 6.49414 9.27734 5.95703C10.1074 5.22461 11.1816 4.83398 12.4512 4.83398C13.7695 4.83398 14.8926 5.22461 15.7227 5.9082C16.5527 6.64062 16.9922 7.56836 16.9922 8.69141C16.9434 9.47266 16.7969 10.0586 16.5527 10.5957Z" fill="#0E2036" fill-opacity="0.6"/>
</svg>
