<svg width="107" height="12" viewBox="0 0 107 12" fill="none" xmlns="http://www.w3.org/2000/svg">
<path d="M0.88 1.23603H1.815V8.93604H0.88V1.23603ZM1.397 2.11604V1.23603H2.97C3.46867 1.23603 3.91233 1.33137 4.301 1.52203C4.697 1.70537 5.00867 1.96937 5.236 2.31403C5.47067 2.6587 5.588 3.06937 5.588 3.54604C5.588 4.01537 5.47067 4.42603 5.236 4.77803C5.00867 5.1227 4.697 5.39037 4.301 5.58104C3.91233 5.76437 3.46867 5.85604 2.97 5.85604H1.397V4.97603H2.97C3.46867 4.97603 3.872 4.85504 4.18 4.61304C4.49533 4.37103 4.653 4.01537 4.653 3.54604C4.653 3.06937 4.49533 2.7137 4.18 2.47904C3.872 2.23704 3.46867 2.11604 2.97 2.11604H1.397ZM6.18836 6.40604C6.18836 5.8927 6.30203 5.43804 6.52936 5.04204C6.76403 4.64603 7.07936 4.33437 7.47536 4.10704C7.87136 3.8797 8.31503 3.76603 8.80636 3.76603C9.30503 3.76603 9.74869 3.8797 10.1374 4.10704C10.5334 4.33437 10.845 4.64603 11.0724 5.04204C11.307 5.43804 11.4244 5.8927 11.4244 6.40604C11.4244 6.91204 11.307 7.3667 11.0724 7.77004C10.845 8.16604 10.5334 8.4777 10.1374 8.70504C9.74869 8.93237 9.30503 9.04604 8.80636 9.04604C8.31503 9.04604 7.87136 8.93237 7.47536 8.70504C7.07936 8.4777 6.76403 8.16604 6.52936 7.77004C6.30203 7.3667 6.18836 6.91204 6.18836 6.40604ZM7.07936 6.40604C7.07936 6.75804 7.15269 7.0697 7.29936 7.34104C7.45336 7.61237 7.65869 7.8287 7.91536 7.99004C8.17936 8.14404 8.47636 8.22104 8.80636 8.22104C9.13636 8.22104 9.42969 8.14404 9.68636 7.99004C9.95036 7.8287 10.1557 7.61237 10.3024 7.34104C10.4564 7.0697 10.5334 6.75804 10.5334 6.40604C10.5334 6.05403 10.4564 5.74237 10.3024 5.47103C10.1557 5.19237 9.95036 4.97603 9.68636 4.82204C9.42969 4.66804 9.13636 4.59104 8.80636 4.59104C8.47636 4.59104 8.17936 4.66804 7.91536 4.82204C7.65869 4.97603 7.45336 5.19237 7.29936 5.47103C7.15269 5.74237 7.07936 6.05403 7.07936 6.40604ZM11.8121 3.87604H12.8021L14.0671 7.16504L15.4421 3.49103L16.9161 7.18704L18.1921 3.87604H19.1821L16.9821 9.32104L15.4531 5.63604L14.0121 9.32104L11.8121 3.87604ZM21.9655 9.04604C21.4962 9.04604 21.0782 8.93604 20.7115 8.71604C20.3522 8.4887 20.0699 8.17704 19.8645 7.78104C19.6665 7.38504 19.5675 6.9267 19.5675 6.40604C19.5675 5.87804 19.6702 5.41604 19.8755 5.02004C20.0882 4.62403 20.3815 4.31603 20.7555 4.09603C21.1369 3.87603 21.5769 3.76603 22.0755 3.76603C22.5742 3.76603 22.9995 3.87237 23.3515 4.08503C23.7109 4.29037 23.9859 4.58737 24.1765 4.97603C24.3672 5.3647 24.4625 5.8267 24.4625 6.36204C24.4625 6.41337 24.4589 6.46837 24.4515 6.52704C24.4515 6.57837 24.4515 6.61137 24.4515 6.62604H20.1285V5.87803H23.7585L23.4065 6.38404C23.4285 6.34737 23.4505 6.29237 23.4725 6.21904C23.4945 6.13837 23.5055 6.07237 23.5055 6.02103C23.5055 5.72037 23.4432 5.46003 23.3185 5.24003C23.2012 5.02003 23.0362 4.8477 22.8235 4.72303C22.6109 4.59837 22.3615 4.53604 22.0755 4.53604C21.7382 4.53604 21.4485 4.60937 21.2065 4.75603C20.9719 4.89537 20.7885 5.1007 20.6565 5.37204C20.5319 5.63604 20.4659 5.96237 20.4585 6.35103C20.4585 6.74704 20.5209 7.08437 20.6455 7.36304C20.7702 7.6417 20.9535 7.85437 21.1955 8.00104C21.4375 8.1477 21.7309 8.22104 22.0755 8.22104C22.4202 8.22104 22.7245 8.1477 22.9885 8.00104C23.2525 7.84704 23.4762 7.61604 23.6595 7.30804L24.3745 7.75904C24.1105 8.18437 23.7769 8.50704 23.3735 8.72704C22.9775 8.9397 22.5082 9.04604 21.9655 9.04604ZM26.6587 3.87604V8.93604H25.7787V3.87604H26.6587ZM28.1877 4.84404C28.0703 4.75604 27.964 4.6937 27.8687 4.65703C27.7733 4.61303 27.6523 4.59104 27.5057 4.59104C27.2857 4.59104 27.1133 4.64603 26.9887 4.75603C26.864 4.86603 26.776 5.01637 26.7247 5.20703C26.6807 5.3977 26.6587 5.61403 26.6587 5.85604H26.2627C26.2627 5.4527 26.3323 5.09704 26.4717 4.78904C26.6183 4.4737 26.8053 4.22437 27.0327 4.04103C27.26 3.8577 27.491 3.76603 27.7257 3.76603C27.909 3.76603 28.0777 3.7917 28.2317 3.84303C28.393 3.88703 28.5397 3.9787 28.6717 4.11803L28.1877 4.84404ZM31.456 9.04604C30.9867 9.04604 30.5687 8.93604 30.202 8.71604C29.8427 8.4887 29.5604 8.17704 29.355 7.78104C29.157 7.38504 29.058 6.9267 29.058 6.40604C29.058 5.87804 29.1607 5.41604 29.366 5.02004C29.5787 4.62403 29.872 4.31603 30.246 4.09603C30.6274 3.87603 31.0674 3.76603 31.566 3.76603C32.0647 3.76603 32.49 3.87237 32.842 4.08503C33.2014 4.29037 33.4764 4.58737 33.667 4.97603C33.8577 5.3647 33.953 5.8267 33.953 6.36204C33.953 6.41337 33.9494 6.46837 33.942 6.52704C33.942 6.57837 33.942 6.61137 33.942 6.62604H29.619V5.87803H33.249L32.897 6.38404C32.919 6.34737 32.941 6.29237 32.963 6.21904C32.985 6.13837 32.996 6.07237 32.996 6.02103C32.996 5.72037 32.9337 5.46003 32.809 5.24003C32.6917 5.02003 32.5267 4.8477 32.314 4.72303C32.1014 4.59837 31.852 4.53604 31.566 4.53604C31.2287 4.53604 30.939 4.60937 30.697 4.75603C30.4624 4.89537 30.279 5.1007 30.147 5.37204C30.0224 5.63604 29.9564 5.96237 29.949 6.35103C29.949 6.74704 30.0114 7.08437 30.136 7.36304C30.2607 7.6417 30.444 7.85437 30.686 8.00104C30.928 8.1477 31.2214 8.22104 31.566 8.22104C31.9107 8.22104 32.215 8.1477 32.479 8.00104C32.743 7.84704 32.9667 7.61604 33.15 7.30804L33.865 7.75904C33.601 8.18437 33.2674 8.50704 32.864 8.72704C32.468 8.9397 31.9987 9.04604 31.456 9.04604ZM39.0642 0.356035H39.9442V8.93604H39.0642V0.356035ZM34.8292 6.40604C34.8292 5.85604 34.9428 5.3867 35.1702 4.99804C35.3975 4.60203 35.7018 4.2977 36.0832 4.08503C36.4645 3.87237 36.8825 3.76603 37.3372 3.76603C37.7625 3.76603 38.1328 3.87237 38.4482 4.08503C38.7635 4.2977 39.0092 4.60203 39.1852 4.99804C39.3685 5.3867 39.4602 5.85604 39.4602 6.40604C39.4602 6.9487 39.3685 7.41804 39.1852 7.81404C39.0092 8.21004 38.7635 8.51437 38.4482 8.72704C38.1328 8.9397 37.7625 9.04604 37.3372 9.04604C36.8825 9.04604 36.4645 8.9397 36.0832 8.72704C35.7018 8.51437 35.3975 8.21004 35.1702 7.81404C34.9428 7.41804 34.8292 6.9487 34.8292 6.40604ZM35.7202 6.40604C35.7202 6.7947 35.7972 7.1247 35.9512 7.39604C36.1125 7.66737 36.3252 7.8727 36.5892 8.01204C36.8532 8.15137 37.1392 8.22104 37.4472 8.22104C37.7038 8.22104 37.9568 8.15137 38.2062 8.01204C38.4555 7.8727 38.6608 7.66737 38.8222 7.39604C38.9835 7.1247 39.0642 6.7947 39.0642 6.40604C39.0642 6.01737 38.9835 5.68737 38.8222 5.41603C38.6608 5.1447 38.4555 4.93937 38.2062 4.80003C37.9568 4.6607 37.7038 4.59104 37.4472 4.59104C37.1392 4.59104 36.8532 4.6607 36.5892 4.80003C36.3252 4.93937 36.1125 5.1447 35.9512 5.41603C35.7972 5.68737 35.7202 6.01737 35.7202 6.40604ZM45.8855 0.356035V8.93604H45.0055V0.356035H45.8855ZM50.1205 6.40604C50.1205 6.9487 50.0068 7.41804 49.7795 7.81404C49.5521 8.21004 49.2478 8.51437 48.8665 8.72704C48.4925 8.9397 48.0745 9.04604 47.6125 9.04604C47.1945 9.04604 46.8241 8.9397 46.5015 8.72704C46.1861 8.51437 45.9368 8.21004 45.7535 7.81404C45.5775 7.41804 45.4895 6.9487 45.4895 6.40604C45.4895 5.85604 45.5775 5.3867 45.7535 4.99804C45.9368 4.60203 46.1861 4.2977 46.5015 4.08503C46.8241 3.87237 47.1945 3.76603 47.6125 3.76603C48.0745 3.76603 48.4925 3.87237 48.8665 4.08503C49.2478 4.2977 49.5521 4.60203 49.7795 4.99804C50.0068 5.3867 50.1205 5.85604 50.1205 6.40604ZM49.2295 6.40604C49.2295 6.01737 49.1488 5.68737 48.9875 5.41603C48.8335 5.1447 48.6245 4.93937 48.3605 4.80003C48.1038 4.6607 47.8178 4.59104 47.5025 4.59104C47.2458 4.59104 46.9928 4.6607 46.7435 4.80003C46.4941 4.93937 46.2888 5.1447 46.1275 5.41603C45.9661 5.68737 45.8855 6.01737 45.8855 6.40604C45.8855 6.7947 45.9661 7.1247 46.1275 7.39604C46.2888 7.66737 46.4941 7.8727 46.7435 8.01204C46.9928 8.15137 47.2458 8.22104 47.5025 8.22104C47.8178 8.22104 48.1038 8.15137 48.3605 8.01204C48.6245 7.8727 48.8335 7.66737 48.9875 7.39604C49.1488 7.1247 49.2295 6.7947 49.2295 6.40604ZM55.2978 3.87604L51.9978 11.356H51.0078L52.3938 8.22104L50.4578 3.87604H51.5028L53.1088 7.83604L52.7458 7.79204L54.3078 3.87604H55.2978Z" fill="#0E2036"/>
<path d="M101.687 5.40879C102.422 5.40879 103.156 5.40879 103.89 5.40879C103.89 5.01635 103.89 4.62391 103.89 4.24854C102.739 4.24854 101.587 4.24854 100.419 4.24854C100.419 5.78416 100.419 7.30273 100.419 8.8213C102.388 8.8213 104.357 8.8213 106.31 8.8213C106.31 8.42886 106.31 8.05348 106.31 7.64398C104.758 7.64398 103.223 7.64398 101.687 7.64398C101.687 6.89323 101.687 6.15954 101.687 5.40879Z" fill="#2775FF"/>
<path d="M63.9558 4.62397C63.4385 4.36803 62.8711 4.21447 62.3204 4.06091C61.97 3.95853 61.6028 3.87322 61.2857 3.70259C60.8685 3.49784 60.685 3.12247 60.8018 2.57647C60.8852 2.16696 61.2023 1.96221 61.5694 1.8769C62.0701 1.75746 62.554 1.84278 63.038 2.03046C63.4051 2.18403 63.7556 2.35465 64.0893 2.59353C64.323 2.23521 64.5566 1.89396 64.7902 1.53565C64.106 1.07496 63.3718 0.784898 62.554 0.716648C62.4706 0.682522 62.3705 0.73371 62.287 0.699585H61.7864C61.7196 0.73371 61.6362 0.699585 61.5694 0.716648C61.5027 0.716648 61.4359 0.73371 61.3859 0.73371C60.952 0.80196 60.5515 0.955523 60.1843 1.22852C59.5669 1.68921 59.3166 2.30346 59.3166 3.07128C59.3332 3.85616 59.6503 4.41922 60.3345 4.77753C60.8018 5.03347 61.3191 5.16997 61.8365 5.30647C62.3037 5.42591 62.7543 5.54535 63.1882 5.76716C63.7556 6.05722 63.7723 6.65441 63.6221 7.02979C63.4886 7.37104 63.2216 7.50754 62.9045 7.60992C62.5207 7.72935 62.1202 7.69523 61.7196 7.62698C61.1189 7.50754 60.5848 7.21748 60.0842 6.85916C60.0175 6.80798 59.9674 6.77385 59.9006 6.72266C59.6336 7.04685 59.3666 7.37104 59.0996 7.71229C59.1497 7.76348 59.183 7.7976 59.2331 7.83173C59.6336 8.15592 60.0842 8.36067 60.5682 8.53129C61.4693 8.85548 62.3872 8.94079 63.3217 8.70192C64.3063 8.44598 65.0573 7.78054 65.124 6.63735C65.1574 6.10841 65.0906 5.6136 64.7235 5.2041C64.5065 4.9311 64.2395 4.76047 63.9558 4.62397Z" fill="#2775FF"/>
<path d="M95.5623 1.04063C95.1451 0.870008 94.7112 0.801758 94.2773 0.801758C93.1926 0.801758 92.1079 0.801758 91.0065 0.801758C90.9731 0.801758 90.923 0.801758 90.8896 0.801758C90.8896 3.48058 90.8896 6.14233 90.8896 8.82115C91.3903 8.82115 91.8742 8.82115 92.3582 8.82115C92.3582 6.55184 92.3582 4.28252 92.3582 2.0132C92.475 2.0132 92.5751 2.0132 92.6753 2.0132C93.226 2.03026 93.7767 1.97907 94.3274 2.04732C94.8113 2.11557 95.2285 2.30326 95.4455 2.76395C95.5957 3.08814 95.6291 3.42939 95.5957 3.7877C95.4956 4.50433 95.1117 4.93089 94.4108 5.06739C94.1271 5.11858 93.8267 5.10152 93.5431 5.10152C93.4429 5.10152 93.3595 5.10152 93.2427 5.10152C93.5097 5.51102 93.76 5.8864 93.9936 6.27884C94.5443 6.33002 95.312 6.12527 95.846 5.81815C96.2465 5.57927 96.5803 5.28921 96.7972 4.86264C97.2144 4.04364 97.1811 3.22464 96.864 2.38857C96.647 1.7402 96.1965 1.29657 95.5623 1.04063Z" fill="#2775FF"/>
<path d="M73.6183 7.09813C73.151 7.47351 72.617 7.59294 72.0496 7.62707C70.9649 7.69532 70.1972 7.2005 69.6799 6.26206C69.3628 5.699 69.2961 5.08475 69.3461 4.43637C69.4296 3.54912 69.8468 2.83249 70.5644 2.35474C71.3988 1.77462 72.6837 1.87699 73.5348 2.54243C73.6516 2.62774 73.7685 2.74718 73.8853 2.84956C74.169 2.5083 74.4527 2.18412 74.7364 1.84287C74.6863 1.77462 74.6196 1.72343 74.5528 1.67224C74.2024 1.38218 73.8018 1.17743 73.3846 1.02386C72.5669 0.750863 71.7325 0.7338 70.8981 0.887363C70.1305 1.04093 69.4796 1.39924 68.9289 1.97937C68.0445 2.93487 67.7107 4.07806 67.8609 5.37481C68.0278 6.68863 68.6953 7.66119 69.8134 8.32663C70.4475 8.70201 71.1651 8.80438 71.8994 8.80438C72.7505 8.80438 73.5348 8.58257 74.2357 8.07069C74.436 7.93419 74.6196 7.78063 74.7864 7.57588C74.5027 7.30288 74.219 7.02988 73.9353 6.75688C73.8519 6.87632 73.7351 6.99575 73.6183 7.09813Z" fill="#2775FF"/>
<path d="M100.419 0.836365C100.419 1.2288 100.419 1.60418 100.419 1.99662C102.388 1.99662 104.357 1.99662 106.31 1.99662C106.31 1.60418 106.31 1.2288 106.31 0.836365C104.341 0.836365 102.388 0.836365 100.419 0.836365Z" fill="#2775FF"/>
<path d="M86.8854 3.92439C86.7852 3.42957 86.635 2.95182 86.4014 2.50819C86.2512 2.21813 86.0676 1.94513 85.8507 1.68919C85.4335 1.17732 84.9329 0.784877 84.3655 0.477751C84.0317 0.290063 83.6646 0.170625 83.2807 0.0853127C83.2474 0.0853127 83.2307 0.0682502 83.1973 0.102375C83.1973 0.324188 83.1973 0.563064 83.1973 0.784877C84.9662 1.34794 85.9842 2.55938 86.2512 4.45332C85.7005 4.45332 85.1665 4.45332 84.6325 4.45332C84.6325 4.09501 84.6325 3.75376 84.6325 3.39545C83.9483 2.98595 83.264 2.57644 82.5798 2.18401C82.5798 2.11576 82.5798 2.06457 82.5798 1.99632C82.5798 1.38207 82.5798 0.750752 82.5798 0.1365C82.5798 0.0853127 82.5798 0.0341251 82.5965 0C82.4964 0 82.3963 0 82.2961 0C82.1372 0 82.303 7.74796e-06 82.196 0C82.0458 0 81.9123 0 81.7621 0C81.6286 0.0511876 81.4784 0.0341251 81.3449 0.0682502C80.9945 0.153563 80.644 0.255938 80.3103 0.409501C79.7095 0.682502 79.1922 1.07494 78.7583 1.56975C78.5246 1.82569 78.3244 2.13282 78.1575 2.42288C77.9406 2.79826 77.7904 3.20776 77.6902 3.63432C77.6735 3.68551 77.6235 3.71964 77.6402 3.80495C77.8738 3.80495 78.1241 3.80495 78.3578 3.80495C78.6415 2.73001 79.2422 1.87688 80.1934 1.27969C80.8109 0.887252 81.6119 0.699565 81.8956 0.716627C81.8956 1.19438 81.8956 1.68919 81.8956 2.16694C81.2281 2.55938 80.5439 2.96888 79.8764 3.36132C79.8764 3.71964 79.8764 4.07795 79.8764 4.40214C79.843 4.45332 79.7929 4.43626 79.7596 4.43626C79.042 4.43626 78.3244 4.43626 77.6068 4.43626C77.5901 4.43626 77.5567 4.43626 77.54 4.4192C77.54 4.72633 77.54 5.03345 77.54 5.34058C77.5901 5.47708 77.5734 5.63064 77.6235 5.76714C77.757 6.24489 77.8905 6.72264 78.1408 7.14921C78.2576 7.35396 78.3744 7.54165 78.5246 7.72933C78.7416 8.0194 78.9919 8.27534 79.2589 8.49715C79.5593 8.75309 79.8764 8.9749 80.2268 9.14553C80.5606 9.29909 80.911 9.41853 81.2615 9.50384C81.2615 9.50384 81.2782 9.50384 81.2949 9.48678C81.2949 9.2479 81.2949 9.00902 81.2949 8.77015C79.5426 8.20708 78.5246 7.01271 78.2576 5.13583C78.8083 5.13583 79.3424 5.13583 79.8931 5.13583C79.8931 5.75008 79.8931 6.36433 79.8931 6.99564C80.5773 6.99564 81.2281 6.99564 81.8789 6.99564C81.9123 7.02977 81.9123 7.06389 81.9123 7.08096C81.9123 7.8829 81.9123 8.68484 81.9123 9.50384C81.9123 9.5209 81.9123 9.55503 81.8956 9.57209C82.196 9.57209 82.5131 9.57209 82.8135 9.57209C82.9303 9.5209 83.0471 9.5209 83.1806 9.50384C83.5311 9.41853 83.8648 9.31615 84.1986 9.16259C84.5657 8.99196 84.8995 8.77015 85.2166 8.51421C85.7172 8.12177 86.0843 7.62696 86.4014 7.08096C86.6184 6.72264 86.7352 6.31314 86.8353 5.9207C86.852 5.86952 86.902 5.81833 86.8687 5.75008C86.635 5.75008 86.4014 5.75008 86.1511 5.75008C85.8674 6.84208 85.2833 7.67815 84.3488 8.25827C83.7146 8.65071 82.9303 8.87253 82.6132 8.82134C82.6132 8.22415 82.6132 7.6099 82.6132 6.97858C83.2974 6.97858 83.9649 6.97858 84.6492 6.97858C84.6492 6.34727 84.6492 5.73302 84.6492 5.13583C84.6825 5.1017 84.7159 5.1017 84.7493 5.1017C85.4669 5.1017 86.1678 5.1017 86.8854 5.1017C86.902 5.1017 86.9354 5.1017 86.9521 5.1017C86.9521 4.77751 86.9521 4.43626 86.9521 4.11207C86.8854 4.11207 86.902 4.0097 86.8854 3.92439ZM83.8982 6.3302C82.7968 6.3302 81.6787 6.3302 80.5606 6.3302C80.5606 5.47708 80.5606 4.64101 80.5606 3.78788C81.1113 3.4637 81.662 3.12245 82.2294 2.79826C82.7968 3.10538 83.3308 3.44663 83.8982 3.78788C83.8982 4.62395 83.8982 5.47708 83.8982 6.3302Z" fill="#FE9142"/>
</svg>