<svg width="76" height="22" viewBox="0 0 76 22" fill="none" xmlns="http://www.w3.org/2000/svg">
<rect x="0.75" y="0.727051" width="75" height="21.2121" rx="6.06061" fill="#0E2036"/>
<path d="M25.9609 8.97461V8.37517C25.9609 7.79405 26.4304 7.32296 27.0096 7.32296H29.4577C30.0369 7.32296 30.5064 7.79405 30.5064 8.37517V8.97461H25.9609Z" fill="white"/>
<path fill-rule="evenodd" clip-rule="evenodd" d="M25.9609 14.203V12.8917C25.9609 12.6832 26.13 12.5142 26.3385 12.5142H30.1289C30.3374 12.5142 30.5064 12.6832 30.5064 12.8917V14.203C30.5064 14.8389 29.9782 15.3544 29.3266 15.3544L27.1407 15.3544C26.4891 15.3544 25.9609 14.8389 25.9609 14.203ZM29.5897 13.4767C29.5897 13.598 29.4914 13.6963 29.3702 13.6963H27.0974C26.9762 13.6963 26.8779 13.598 26.8779 13.4767C26.8779 13.3555 26.9762 13.2572 27.0974 13.2572H29.3702C29.4914 13.2572 29.5897 13.3555 29.5897 13.4767ZM29.5897 14.3351C29.5897 14.4564 29.4914 14.5546 29.3702 14.5546H27.0974C26.9762 14.5546 26.8779 14.4564 26.8779 14.3351C26.8779 14.2139 26.9762 14.1156 27.0974 14.1156H29.3702C29.4914 14.1156 29.5897 14.2139 29.5897 14.3351Z" fill="white"/>
<path fill-rule="evenodd" clip-rule="evenodd" d="M31.6424 10.3258C31.6424 9.83629 31.2505 9.43945 30.7671 9.43945L25.6995 9.43945C25.2161 9.43945 24.8242 9.83629 24.8242 10.3258L24.8242 11.9622C24.8242 12.378 25.107 12.727 25.4884 12.8226V12.5919C25.4884 12.3139 25.7138 12.0886 25.9918 12.0886H30.4761C30.7541 12.0886 30.9794 12.3139 30.9794 12.5919V12.8223C31.3602 12.7262 31.6424 12.3776 31.6424 11.9622L31.6424 10.3258ZM30.2629 10.3585C30.4105 10.3585 30.5302 10.2388 30.5302 10.0911C30.5302 9.94344 30.4105 9.82373 30.2629 9.82373C30.1152 9.82373 29.9955 9.94344 29.9955 10.0911C29.9955 10.2388 30.1152 10.3585 30.2629 10.3585Z" fill="white"/>
<path d="M36.8838 8.73301H37.8278V14.333H36.8838V8.73301ZM37.4438 9.56501V8.73301H38.5718C38.9824 8.73301 39.3371 8.80501 39.6358 8.94901C39.9344 9.08767 40.1664 9.28767 40.3318 9.54901C40.5024 9.80501 40.5878 10.1117 40.5878 10.469C40.5878 10.8263 40.5024 11.1357 40.3318 11.397C40.1664 11.6583 39.9344 11.861 39.6358 12.005C39.3371 12.1437 38.9824 12.213 38.5718 12.213H37.4438V11.381H38.5718C38.8971 11.381 39.1584 11.3037 39.3558 11.149C39.5531 10.9943 39.6518 10.7677 39.6518 10.469C39.6518 10.1703 39.5531 9.94634 39.3558 9.79701C39.1584 9.64234 38.8971 9.56501 38.5718 9.56501H37.4438ZM42.1365 10.653V14.333H41.2805V10.653H42.1365ZM43.2325 11.573C43.1578 11.509 43.0832 11.461 43.0085 11.429C42.9392 11.397 42.8512 11.381 42.7445 11.381C42.6005 11.381 42.4832 11.4183 42.3925 11.493C42.3018 11.5677 42.2352 11.6717 42.1925 11.805C42.1552 11.933 42.1365 12.085 42.1365 12.261L41.8485 12.093C41.8485 11.7997 41.9018 11.541 42.0085 11.317C42.1205 11.0877 42.2618 10.9063 42.4325 10.773C42.6085 10.6343 42.7898 10.565 42.9765 10.565C43.1098 10.565 43.2352 10.5863 43.3525 10.629C43.4698 10.6717 43.5712 10.7437 43.6565 10.845L43.2325 11.573ZM44.2173 9.18901C44.2173 9.03967 44.2706 8.91434 44.3773 8.81301C44.4893 8.71167 44.6173 8.66101 44.7613 8.66101C44.9159 8.66101 45.0466 8.71167 45.1533 8.81301C45.2599 8.91434 45.3133 9.03967 45.3133 9.18901C45.3133 9.33301 45.2599 9.45834 45.1533 9.56501C45.0466 9.66634 44.9159 9.71701 44.7613 9.71701C44.6173 9.71701 44.4893 9.66634 44.3773 9.56501C44.2706 9.45834 44.2173 9.33301 44.2173 9.18901ZM44.3373 10.653H45.1933V14.333H44.3373V10.653ZM48.7501 12.093C48.7501 11.821 48.6941 11.6157 48.5821 11.477C48.4701 11.3383 48.2994 11.269 48.0701 11.269C47.9047 11.269 47.7607 11.3037 47.6381 11.373C47.5154 11.437 47.4194 11.533 47.3501 11.661C47.2861 11.7837 47.2541 11.9277 47.2541 12.093V14.333H46.3821V10.653H47.2541V11.221C47.3714 11.0023 47.5207 10.8397 47.7021 10.733C47.8887 10.6263 48.1074 10.573 48.3581 10.573C48.7741 10.573 49.0914 10.701 49.3101 10.957C49.5287 11.2077 49.6381 11.5517 49.6381 11.989V14.333H48.7501V12.093ZM50.2295 10.653H52.3175V11.413H50.2295V10.653ZM50.8535 9.37301H51.7015V14.333H50.8535V9.37301Z" fill="white"/>
</svg>
