<svg width="1156" height="520" viewBox="0 0 1156 520" fill="none" xmlns="http://www.w3.org/2000/svg">
<path d="M1042.8 129.614C1060.78 129.614 1078.76 129.614 1096.74 129.614C1096.74 120.216 1096.74 110.817 1096.74 101.828C1068.55 101.828 1040.35 101.828 1011.75 101.828C1011.75 138.604 1011.75 174.971 1011.75 211.338C1059.96 211.338 1108.18 211.338 1155.99 211.338C1155.99 201.94 1155.99 192.95 1155.99 183.143C1117.99 183.143 1080.4 183.143 1042.8 183.143C1042.8 165.164 1042.8 147.593 1042.8 129.614Z" fill="#2A6FC6"/>
<path d="M118.909 110.818C106.242 104.688 92.3484 101.011 78.8639 97.3331C70.2829 94.8814 61.2932 92.8383 53.5294 88.7521C43.3139 83.8486 38.819 74.8589 41.6794 61.7831C43.7225 51.9762 51.4863 47.0727 60.476 45.0296C72.7346 42.1692 84.5846 44.2123 96.4347 48.7072C105.424 52.3848 114.005 56.471 122.178 62.1917C127.898 53.6106 133.619 45.4382 139.34 36.8572C122.586 25.8244 104.607 18.8778 84.5846 17.2433C82.5415 16.4261 80.0898 17.652 78.0467 16.8347H65.788C64.1536 17.652 62.1105 16.8347 60.476 17.2433C58.8415 17.2433 57.207 17.652 55.9811 17.652C45.357 19.2864 35.5501 22.964 26.5604 29.502C11.4414 40.5348 5.31208 55.2451 5.31208 73.6331C5.7207 92.4297 13.4845 105.914 30.238 114.495C41.6794 120.625 54.3466 123.894 67.0139 127.162C78.4553 130.023 89.4881 132.883 100.112 138.195C114.005 145.142 114.414 159.444 110.736 168.433C107.467 176.606 100.929 179.875 93.1657 182.326C83.7674 185.187 73.9605 184.369 64.1536 182.735C49.4432 179.875 36.3673 172.928 24.1087 164.347C22.4742 163.121 21.2483 162.304 19.6138 161.078C13.0759 168.842 6.53794 176.606 0 184.778C1.22586 186.004 2.04311 186.821 3.26897 187.638C13.0759 195.402 24.1087 200.306 35.9587 204.392C58.0242 212.156 80.4984 214.199 103.381 208.478C127.49 202.349 145.878 186.413 147.512 159.035C148.33 146.368 146.695 134.518 137.705 124.711C132.393 118.173 125.855 114.087 118.909 110.818Z" fill="#2A6FC6"/>
<path d="M892.838 25.0071C882.623 20.9209 871.998 19.2864 861.374 19.2864C834.814 19.2864 808.253 19.2864 781.284 19.2864C780.467 19.2864 779.241 19.2864 778.424 19.2864C778.424 83.44 778.424 147.185 778.424 211.338C790.683 211.338 802.533 211.338 814.383 211.338C814.383 156.992 814.383 102.645 814.383 48.2985C817.243 48.2985 819.695 48.2985 822.147 48.2985C835.631 48.7072 849.116 47.4813 862.6 49.1158C874.45 50.7503 884.666 55.2451 889.978 66.2779C893.655 74.0417 894.473 82.2141 893.655 90.7952C891.204 107.957 881.805 118.173 864.643 121.442C857.697 122.668 850.341 122.259 843.395 122.259C840.943 122.259 838.9 122.259 836.04 122.259C842.578 132.066 848.707 141.056 854.428 150.454C867.912 151.68 886.709 146.776 899.785 139.421C909.592 133.7 917.764 126.754 923.076 116.538C933.292 96.9245 932.474 77.3107 924.711 57.2882C919.398 41.7606 908.366 31.1364 892.838 25.0071Z" fill="#2A6FC6"/>
<path d="M355.501 170.067C344.06 179.057 330.984 181.917 317.091 182.735C290.53 184.369 271.734 172.519 259.066 150.045C251.303 136.56 249.668 121.85 250.894 106.322C252.937 85.0741 263.153 67.912 280.723 56.4706C301.154 42.5774 332.618 45.0292 353.458 60.9654C356.318 63.0085 359.179 65.8688 362.039 68.3206C368.985 60.1481 375.932 52.3843 382.879 44.2119C381.653 42.5774 380.018 41.3516 378.384 40.1257C369.803 33.1791 359.996 28.2757 349.78 24.5981C329.758 18.0601 309.327 17.6515 288.896 21.3291C270.099 25.0067 254.163 33.5878 240.678 47.4809C219.021 70.3637 210.849 97.7413 214.527 128.797C218.613 160.26 234.958 183.552 262.335 199.488C277.863 208.478 295.434 210.929 313.413 210.929C334.253 210.929 353.458 205.617 370.62 193.359C375.523 190.09 380.018 186.412 384.104 181.509C377.158 174.971 370.211 168.433 363.265 161.895C361.222 164.755 358.361 167.616 355.501 170.067Z" fill="#2A6FC6"/>
<path d="M1011.75 20.1036C1011.75 29.5019 1011.75 38.4915 1011.75 47.8898C1059.96 47.8898 1108.18 47.8898 1155.99 47.8898C1155.99 38.4915 1155.99 29.5019 1155.99 20.1036C1107.77 20.1036 1059.96 20.1036 1011.75 20.1036Z" fill="#2A6FC6"/>
<path d="M680.355 94.0645C677.903 82.2145 674.225 70.7731 668.505 60.1489C664.827 53.2024 660.332 46.6644 655.02 40.5351C644.805 28.2765 632.546 18.8782 618.653 11.523C610.48 7.02815 601.491 4.1678 592.092 2.12469C591.275 2.12469 590.866 1.71607 590.049 2.53331C590.049 7.84539 590.049 13.5661 590.049 18.8782C633.363 32.3627 658.289 61.3748 664.827 106.732C651.342 106.732 638.267 106.732 625.191 106.732C625.191 98.1507 625.191 89.9783 625.191 81.3972C608.437 71.5903 591.684 61.7834 574.93 52.3851C574.93 50.7506 574.93 49.5248 574.93 47.8903C574.93 33.1799 574.93 18.0609 574.93 3.35055C574.93 2.12469 574.93 0.898824 575.339 0.0815811C572.887 0.0815811 570.435 0.0815811 567.984 0.0815811C564.092 0.0815811 568.153 0.0817667 565.532 0.0815811C561.854 0.0815811 558.585 0.0815811 554.908 0.0815811C551.639 1.30745 547.961 0.898824 544.692 1.71607C536.111 3.75917 527.53 6.2109 519.358 9.8885C504.647 16.4264 491.98 25.8247 481.356 37.6748C475.635 43.8041 470.732 51.1593 466.646 58.1058C461.334 67.0955 457.656 76.9024 455.204 87.1179C454.796 88.3438 453.57 89.161 453.978 91.2042C459.699 91.2042 465.828 91.2042 471.549 91.2042C478.496 65.461 493.206 45.0299 516.497 30.7282C531.616 21.3299 551.23 16.8351 558.177 17.2437C558.177 28.6851 558.177 40.5351 558.177 51.9765C541.832 61.3748 525.078 71.1817 508.734 80.58C508.734 89.161 508.734 97.7421 508.734 105.506C507.916 106.732 506.691 106.323 505.873 106.323C488.303 106.323 470.732 106.323 453.161 106.323C452.752 106.323 451.935 106.323 451.527 105.915C451.527 113.27 451.527 120.625 451.527 127.98C452.752 131.249 452.344 134.927 453.57 138.196C456.839 149.637 460.108 161.078 466.237 171.294C469.097 176.197 471.958 180.692 475.635 185.187C480.947 192.134 487.077 198.263 493.615 203.575C500.97 209.704 508.734 215.016 517.315 219.103C525.487 222.78 534.068 225.641 542.649 227.684C542.649 227.684 543.058 227.684 543.466 227.275C543.466 221.554 543.466 215.834 543.466 210.113C500.561 196.628 475.635 168.025 469.097 123.077C482.582 123.077 495.658 123.077 509.142 123.077C509.142 137.787 509.142 152.497 509.142 167.616C525.896 167.616 541.832 167.616 557.768 167.616C558.585 168.434 558.585 169.251 558.585 169.659C558.585 188.865 558.585 208.07 558.585 227.684C558.585 228.092 558.585 228.91 558.177 229.318C565.532 229.318 573.296 229.318 580.651 229.318C583.511 228.092 586.372 228.092 589.641 227.684C598.222 225.641 606.394 223.189 614.567 219.511C623.556 215.425 631.729 210.113 639.492 203.984C651.751 194.585 660.741 182.735 668.505 169.659C673.817 161.078 676.677 151.272 679.129 141.873C679.537 140.647 680.763 139.421 679.946 137.787C674.225 137.787 668.505 137.787 662.375 137.787C655.429 163.939 641.127 183.961 618.244 197.854C602.717 207.253 583.511 212.565 575.747 211.339C575.747 197.037 575.747 182.327 575.747 167.208C592.501 167.208 608.846 167.208 625.599 167.208C625.599 152.089 625.599 137.378 625.599 123.077C626.417 122.259 627.234 122.259 628.051 122.259C645.622 122.259 662.784 122.259 680.355 122.259C680.763 122.259 681.58 122.259 681.989 122.259C681.989 114.496 681.989 106.323 681.989 98.5593C680.355 98.5593 680.763 96.1076 680.355 94.0645ZM607.211 151.68C580.242 151.68 552.865 151.68 525.487 151.68C525.487 131.249 525.487 111.227 525.487 90.7955C538.972 83.0317 552.456 74.8593 566.349 67.0955C580.242 74.4507 593.318 82.6231 607.211 90.7955C607.211 110.818 607.211 131.249 607.211 151.68Z" fill="#FE9142"/>
<path d="M1085.46 487.637C1078.51 487.637 1072.38 487.637 1065.85 487.637C1065.85 490.498 1065.85 492.949 1065.85 495.81C1069.52 495.81 1073.61 495.81 1077.29 495.81C1077.69 497.853 1077.29 499.487 1076.88 501.122C1076.06 506.842 1071.16 510.929 1065.44 510.929C1059.72 510.929 1055.22 506.434 1054.81 500.713C1053.99 493.767 1053.99 486.82 1054.81 480.282C1055.63 472.518 1063.8 467.615 1070.75 471.292C1073.61 472.927 1075.24 475.787 1076.47 478.239C1079.33 478.239 1082.19 478.239 1085.46 478.239C1084.23 468.432 1076.47 461.077 1066.66 461.077C1056.04 461.077 1047.87 467.206 1046.64 477.422C1045.41 485.594 1045.82 493.358 1046.23 501.53C1046.64 510.52 1052.77 517.467 1061.76 519.51C1062.17 519.918 1062.98 519.51 1063.39 519.918C1065.03 519.918 1066.66 519.918 1067.89 519.918C1068.3 519.51 1069.11 519.918 1069.52 519.51C1077.7 517.467 1083.01 512.563 1084.64 504.391C1086.28 498.261 1085.46 492.949 1085.46 487.637Z" fill="#343432"/>
<path d="M190.169 498.669C184.857 486.002 179.545 473.744 174.233 461.485C171.372 461.485 168.921 461.485 166.469 461.485C166.469 480.69 166.469 499.895 166.469 518.692C169.329 518.692 171.781 518.692 174.641 518.692C174.641 507.25 174.641 495.809 174.641 484.776H175.05C178.728 493.357 182.405 501.938 186.083 510.928C188.535 510.928 190.986 510.928 193.438 510.928C197.116 502.347 200.793 493.357 204.471 484.776C204.879 484.776 204.879 484.776 205.288 484.776C205.288 496.218 205.288 507.25 205.288 518.692C208.148 518.692 211.009 518.692 213.46 518.692C213.46 499.487 213.46 480.69 213.46 461.485C210.6 461.485 208.148 461.485 205.288 461.485C200.385 473.744 195.481 485.594 190.169 498.669Z" fill="#343432"/>
<path d="M337.273 501.122H336.864C328.692 487.637 320.519 474.561 312.347 461.077C309.486 461.077 307.035 461.077 304.174 461.077C304.174 480.282 304.174 499.487 304.174 518.284C307.035 518.284 309.486 518.284 312.755 518.284C312.755 505.208 312.755 492.132 312.755 479.056H313.164C321.336 492.132 329.509 505.617 337.681 518.692C340.542 518.692 343.402 518.692 345.854 518.692C345.854 499.487 345.854 480.282 345.854 461.485C342.993 461.485 340.542 461.485 337.681 461.485C337.273 474.561 337.273 488.046 337.273 501.122Z" fill="#343432"/>
<path d="M1027.43 501.938C1018.85 488.045 1010.68 474.561 1002.51 461.485C999.648 461.485 997.196 461.485 994.336 461.485C994.336 480.69 994.336 499.487 994.336 518.692C997.196 518.692 999.648 518.692 1002.92 518.692C1002.92 505.616 1002.92 492.54 1002.92 479.464H1003.33C1011.5 492.54 1019.67 506.025 1027.84 519.1C1030.7 519.1 1033.15 519.1 1036.02 519.1C1036.02 499.895 1036.02 480.69 1036.02 461.893C1033.15 461.893 1030.7 461.893 1027.43 461.893C1027.43 474.969 1027.43 488.045 1027.43 501.938Z" fill="#343432"/>
<path d="M670.708 501.938C662.127 488.045 653.954 474.561 645.782 461.485C642.921 461.485 640.47 461.485 637.609 461.485C637.609 480.69 637.609 499.487 637.609 518.692C640.47 518.692 642.921 518.692 646.19 518.692C646.19 505.616 646.19 492.54 646.19 479.464H646.599C654.771 492.54 662.944 506.025 671.116 519.1C673.977 519.1 676.428 519.1 679.289 519.1C679.289 499.895 679.289 480.69 679.289 461.893C676.428 461.893 673.977 461.893 670.708 461.893C670.708 474.969 670.708 488.045 670.708 501.938Z" fill="#343432"/>
<path d="M922.01 491.723C928.139 488.045 931 481.099 929.365 473.335C928.139 467.206 922.827 461.894 916.289 461.485C908.117 461.076 899.536 461.485 891.364 461.485V518.692H899.945V494.583H910.569C914.246 502.756 918.333 510.928 922.01 518.692H932.226C927.731 510.111 923.645 501.938 919.558 493.357C920.376 492.949 921.193 492.54 922.01 491.723ZM914.246 486.411C909.752 486.819 904.848 486.411 899.945 486.411V469.249C904.848 469.249 909.751 468.84 914.655 469.249C919.558 469.657 922.01 472.926 922.01 477.421C921.602 481.916 918.741 486.002 914.246 486.411Z" fill="#343432"/>
<path d="M737.722 492.54C745.077 488.454 748.346 481.099 746.303 472.926C744.668 465.571 738.13 461.076 729.958 461.076C723.42 461.076 716.882 461.076 710.344 461.076C709.527 461.076 708.71 460.668 708.301 461.485V518.692H716.473V494.583H727.098C730.775 502.756 734.861 510.928 738.539 518.692H748.754C744.26 510.111 740.173 501.938 736.087 493.357C736.904 492.949 737.313 492.949 737.722 492.54ZM731.184 486.411C726.28 486.819 721.785 486.411 716.882 486.411V469.249C721.785 469.249 726.689 468.84 731.592 469.249C736.496 469.657 738.948 472.926 738.948 477.421C738.539 481.916 735.27 486.002 731.184 486.411Z" fill="#343432"/>
<path d="M136.231 460.668C126.424 460.668 118.252 467.206 117.026 476.195C115.8 484.777 115.8 493.766 117.026 502.756C117.843 511.337 123.973 517.058 132.145 518.692C132.554 518.692 133.371 518.692 133.779 518.692C135.823 518.692 138.274 518.692 140.317 518.692C148.081 517.466 154.619 511.337 155.436 503.982C156.662 494.583 156.662 485.185 155.436 476.195C154.619 467.206 146.038 460.668 136.231 460.668ZM147.673 499.895C147.264 505.616 142.769 510.111 137.048 510.52C131.736 510.928 126.424 506.433 126.016 500.304C125.198 493.358 125.198 486.411 126.016 479.464C126.833 473.744 131.736 469.249 137.048 469.249C142.769 469.249 147.264 473.744 147.673 479.873C148.081 483.142 148.081 486.82 148.081 490.089C147.673 493.358 147.673 496.627 147.673 499.895Z" fill="#343432"/>
<path d="M608.597 460.668C598.791 460.668 590.618 467.206 589.392 476.195C588.166 484.777 588.166 493.766 589.392 502.756C590.21 511.337 596.339 517.058 604.511 518.692C604.92 518.692 605.737 518.692 606.146 518.692C608.189 518.692 610.641 518.692 612.684 518.692C620.448 517.466 626.985 511.337 627.803 503.982C629.029 494.583 629.029 485.185 627.803 476.195C626.577 467.206 618.404 460.668 608.597 460.668ZM619.63 500.304C619.222 506.025 614.318 510.52 608.597 510.928C602.877 510.928 597.973 506.433 597.565 500.713C596.747 493.766 596.747 486.82 597.565 480.282C597.973 474.152 602.877 470.066 608.597 470.066C614.318 470.066 619.222 474.561 619.63 480.69C620.039 483.959 620.039 487.228 620.039 490.497C620.039 493.358 620.039 496.627 619.63 500.304Z" fill="#343432"/>
<path d="M861.943 460.668C852.136 460.668 843.963 467.206 842.738 476.195C841.512 484.777 841.512 493.766 842.738 502.756C843.555 511.337 849.684 517.058 857.856 518.692C858.265 518.692 859.082 518.692 859.491 518.692C861.534 518.692 863.986 518.692 866.029 518.692C873.793 517.466 880.331 511.337 881.148 503.982C882.374 494.583 882.374 485.185 881.148 476.195C880.331 467.206 871.75 460.668 861.943 460.668ZM872.975 500.304C872.567 506.025 867.663 510.52 861.943 510.928C856.222 510.928 851.319 506.433 850.91 500.713C850.093 493.766 850.093 486.82 850.91 480.282C851.319 474.152 856.222 470.066 861.943 470.066C867.663 470.066 872.567 474.561 872.975 480.69C873.384 483.959 873.384 487.228 873.384 490.497C873.384 493.358 873.384 496.627 872.975 500.304Z" fill="#343432"/>
<path d="M98.6379 485.594C91.2828 485.594 83.9276 485.594 76.5724 485.594C76.5724 477.422 76.5724 469.249 76.5724 461.077C73.712 461.077 71.2603 461.077 68.4 461.077C68.4 480.282 68.4 499.487 68.4 518.284C71.2603 518.284 73.712 518.284 76.5724 518.284C76.5724 510.111 76.5724 501.939 76.5724 493.358C83.9276 493.358 91.2828 493.358 98.6379 493.358C98.6379 501.53 98.6379 510.111 98.6379 518.284C101.498 518.284 104.359 518.284 106.81 518.284C106.81 499.079 106.81 480.282 106.81 461.077C103.95 461.077 101.498 461.077 98.2293 461.077C98.6379 469.658 98.6379 477.83 98.6379 485.594Z" fill="#343432"/>
<path d="M233.483 493.766C241.247 493.766 248.602 493.766 256.366 493.766C256.774 490.906 256.774 488.454 256.366 486.002C248.602 486.002 241.247 486.002 233.483 486.002C233.483 480.281 233.483 474.969 233.483 469.249C242.473 469.249 251.462 469.249 260.043 469.249C260.043 466.388 260.043 463.937 260.043 461.485C248.193 461.485 236.343 461.485 224.902 461.485C224.902 480.69 224.902 499.895 224.902 518.692C236.752 518.692 248.602 518.692 260.043 518.692C260.043 515.832 260.043 513.38 260.043 510.519C251.054 510.519 242.473 510.519 233.074 510.519C233.483 504.799 233.483 499.487 233.483 493.766Z" fill="#343432"/>
<path d="M482.742 510.52C473.752 510.52 464.763 510.52 456.182 510.52C456.182 504.799 456.182 499.487 456.182 493.766C463.945 493.766 471.301 493.766 479.064 493.766C479.473 490.906 479.473 488.454 479.064 486.003C471.301 486.003 463.945 486.003 456.182 486.003C456.182 480.282 456.182 474.97 456.182 469.658C465.171 469.658 474.161 469.658 483.151 469.658C483.151 466.797 483.151 464.346 483.151 461.894C471.301 461.894 459.451 461.894 448.009 461.894C448.009 481.099 448.009 500.304 448.009 519.101C459.859 519.101 471.301 519.101 483.151 519.101C483.151 515.832 483.151 513.38 482.742 510.52Z" fill="#343432"/>
<path d="M764.282 493.767C772.046 493.767 779.401 493.767 787.165 493.767C787.573 490.906 787.573 488.454 787.165 486.003C779.401 486.003 772.046 486.003 764.282 486.003C764.282 480.282 764.282 474.97 764.282 469.249C773.272 469.249 782.261 469.249 790.842 469.249C790.842 466.389 790.842 463.937 790.842 461.077C778.992 461.077 767.551 461.077 755.701 461.077C755.701 480.282 755.701 499.487 755.701 518.284C767.551 518.284 779.401 518.284 790.842 518.284C790.842 515.423 790.842 512.972 790.842 510.111C781.853 510.111 772.863 510.111 764.282 510.111C764.282 504.799 764.282 499.487 764.282 493.767Z" fill="#343432"/>
<path d="M379.361 486.002C376.092 485.594 372.823 485.185 369.554 484.368C365.059 483.142 363.425 479.464 364.242 475.378C365.059 471.701 369.145 469.249 373.64 469.658C378.544 470.066 382.63 471.292 387.125 474.152C388.759 471.701 390.394 469.249 392.028 466.797C385.899 462.302 379.77 460.668 372.414 460.668C363.016 460.668 356.069 466.797 355.661 475.378C354.844 485.594 360.156 492.132 370.371 493.766C373.232 494.175 376.092 494.583 378.544 494.992C382.63 495.809 384.673 498.261 384.673 501.939C384.673 506.025 383.038 508.477 378.952 509.702C376.909 510.52 374.457 510.52 372.414 510.52C367.102 510.111 362.199 508.477 357.704 504.799C355.661 507.251 354.026 509.294 351.983 511.337C356.887 515.423 361.79 517.875 367.92 518.692C371.597 518.692 374.866 518.692 378.544 518.692C384.673 517.875 389.576 515.423 391.62 509.702C396.114 499.487 391.62 488.045 379.361 486.002Z" fill="#343432"/>
<path d="M423.492 461.076C416.954 461.076 410.007 461.076 403.469 461.076C402.652 461.076 402.243 460.668 401.835 461.485V518.692H410.007V496.218C414.911 496.218 418.997 496.218 423.492 496.218C433.299 496.218 440.654 488.863 440.654 478.647C440.245 468.431 433.299 461.485 423.492 461.076ZM431.664 479.056C431.256 483.959 427.987 487.637 423.083 488.045C419.406 488.045 415.319 488.045 411.642 488.045C411.233 488.045 410.825 488.045 410.007 488.045V469.657C414.911 469.657 419.406 469.249 424.309 469.657C429.621 470.066 432.073 473.744 431.664 479.056Z" fill="#343432"/>
<path d="M823.124 461.485C814.951 460.259 806.779 461.076 798.198 461.076V518.283H806.37V495.809C810.865 495.809 815.36 495.809 819.855 495.809C825.575 495.809 830.07 493.357 833.748 488.454C841.103 478.238 835.382 463.528 823.124 461.485ZM828.436 479.464C828.027 484.368 824.758 488.045 819.855 488.045C815.768 488.045 811.274 488.045 806.779 488.045V469.657C811.682 469.657 816.177 469.249 821.08 469.657C825.984 470.066 828.844 473.744 828.436 479.464Z" fill="#343432"/>
<path d="M511.345 470.066C515.432 471.292 517.475 474.153 519.109 477.83C521.97 477.83 524.83 477.83 528.099 477.83C526.873 467.206 518.701 460.259 507.668 460.668C497.861 461.077 489.688 468.84 488.871 479.056C488.463 486.411 488.463 493.766 488.871 501.122C489.28 510.111 495.409 517.058 504.399 519.101C504.807 519.101 505.625 519.101 506.033 519.101C508.076 519.101 510.528 519.101 512.571 519.101C520.744 517.875 527.282 510.928 527.69 502.756C526.056 502.756 524.83 502.756 523.195 502.756C521.561 502.756 520.335 502.756 519.109 502.756C518.701 503.573 518.292 504.39 517.883 504.799C515.023 509.294 510.937 511.337 506.033 510.111C501.538 508.885 498.269 505.208 497.861 500.304C497.044 493.358 497.044 486.82 497.861 479.873C498.269 472.518 504.807 468.023 511.345 470.066Z" fill="#343432"/>
<path d="M527.282 468.84C532.185 468.84 537.089 468.84 542.401 468.84C542.401 485.594 542.401 501.938 542.401 518.692C545.261 518.692 548.122 518.692 550.982 518.692C550.982 501.938 550.982 485.594 550.982 468.84C556.294 468.84 561.198 468.84 566.101 468.84C566.101 466.388 566.101 463.937 566.101 461.485C553.025 461.485 540.358 461.485 527.282 461.485C527.282 463.937 527.282 466.388 527.282 468.84Z" fill="#343432"/>
<path d="M931.408 468.84C936.312 468.84 941.215 468.84 946.527 468.84C946.527 485.594 946.527 501.938 946.527 518.692C949.387 518.692 952.248 518.692 955.108 518.692C955.108 501.938 955.108 485.594 955.108 468.84C960.012 468.84 964.915 468.84 970.227 468.84C970.227 466.388 970.227 463.937 970.227 461.485C957.151 461.485 944.484 461.485 931.408 461.485C931.408 463.937 931.408 466.388 931.408 468.84Z" fill="#343432"/>
<path d="M571.413 518.692C574.273 518.692 576.725 518.692 579.585 518.692C579.585 499.487 579.585 480.69 579.585 461.485C576.725 461.485 573.865 461.485 571.413 461.485C571.413 480.69 571.413 499.895 571.413 518.692Z" fill="#343432"/>
<path d="M975.539 518.692C978.4 518.692 981.26 518.692 983.712 518.692C983.712 499.487 983.712 480.281 983.712 461.485C980.852 461.485 978.4 461.485 975.539 461.485C975.539 480.69 975.539 499.487 975.539 518.692Z" fill="#343432"/>
<path d="M285.378 518.692C288.238 518.692 290.69 518.692 293.55 518.692C293.55 499.487 293.55 480.69 293.55 461.485C290.69 461.485 288.238 461.485 285.378 461.485C285.378 480.69 285.378 499.487 285.378 518.692Z" fill="#343432"/>
<path d="M21.4493 388.947V264.328H0V388.947H21.4493Z" fill="#2A6FC6"/>
<path d="M206.84 356.507L145.151 264.328H123.879V388.947H143.733V295.881L205.954 388.947H226.517V264.328H206.84V356.507Z" fill="#2A6FC6"/>
<path d="M365.82 392.137C392.764 392.137 413.15 378.133 413.15 353.139C413.15 330.803 399.678 320.699 373.797 314.672C350.929 309.531 344.548 304.745 344.548 295.172C344.548 285.423 353.056 279.75 367.238 279.75C380.178 279.75 391.346 282.941 401.628 290.032L412.086 274.609C401.096 266.278 386.028 261.492 368.833 261.492C343.129 261.492 323.807 274.609 323.807 297.299C323.807 318.394 338.343 327.789 363.515 333.462C384.787 338.071 392.41 343.389 392.41 355.089C392.41 367.497 381.419 373.524 366.706 373.524C350.397 373.524 338.875 368.738 328.594 360.938L318.667 377.07C329.657 386.11 345.788 392.137 365.82 392.137Z" fill="#2A6FC6"/>
<path d="M559.099 264.328H508.223V388.947H529.673V343.034H559.631C586.044 343.034 603.947 328.144 603.947 302.44C603.947 278.686 587.639 264.328 559.099 264.328ZM529.673 324.599V282.941H558.922C574.698 282.941 583.562 290.563 583.562 303.149C583.562 316.976 574.521 324.599 559.099 324.599H529.673Z" fill="#2A6FC6"/>
<path d="M717.084 334.88H773.278V316.267H717.084V283.295H777.532V264.328H695.635V388.947H779.128V369.979H717.084V334.88Z" fill="#2A6FC6"/>
<path d="M928.503 392.137C947.116 392.137 963.602 385.756 974.947 372.638L960.588 359.52C952.966 367.675 942.507 372.283 928.857 372.283C903.863 372.283 887.022 352.961 887.022 326.903C887.022 300.668 903.863 281.168 928.857 281.168C942.507 281.168 953.143 286.132 960.765 294.286L975.656 280.814C964.133 267.341 947.825 261.492 928.503 261.492C891.454 261.492 864.864 289.5 864.864 326.903C864.864 363.952 889.504 392.137 928.503 392.137Z" fill="#2A6FC6"/>
<path d="M1156 264.328H1053.36V283.295H1093.96V388.947H1115.41V283.295H1156V264.328Z" fill="#2A6FC6"/>
</svg>
