<svg width="13" height="13" viewBox="0 0 13 13" fill="none" xmlns="http://www.w3.org/2000/svg">
<path fill-rule="evenodd" clip-rule="evenodd" d="M6.5 0.25C9.95178 0.25 12.75 3.04822 12.75 6.5C12.75 9.95178 9.95178 12.75 6.5 12.75C3.04822 12.75 0.25 9.95178 0.25 6.5C0.25 3.04822 3.04822 0.25 6.5 0.25ZM7.79893 5.86342L7.79893 7.38442C7.79893 7.6433 8.0088 7.85317 8.26768 7.85317C8.52656 7.85317 8.73643 7.6433 8.73643 7.38442L8.73643 5.35777C8.73643 4.75371 8.24674 4.26402 7.64268 4.26402L5.61603 4.26402C5.35715 4.26402 5.14728 4.47389 5.14728 4.73277C5.14728 4.99165 5.35715 5.20152 5.61603 5.20152L7.135 5.20152L4.40068 7.93584C4.21762 8.1189 4.21762 8.41569 4.40068 8.59875C4.58374 8.78181 4.88054 8.78181 5.06359 8.59875L7.79893 5.86342Z" fill="#0E2036"/>
</svg>
