<svg width="11" height="10" viewBox="0 0 11 10" fill="none" xmlns="http://www.w3.org/2000/svg">
<path d="M9.85766 7.33384C10.396 6.5974 10.7324 5.65055 10.7324 4.66863C10.7324 2.21384 8.84834 0.25 6.52691 0.25H4.23913C1.88406 0.25 0 2.21384 0 4.63356C0 7.05329 1.88406 9.01712 4.20548 9.01712H6.49327C7.26708 9.01712 7.9736 8.80671 8.61283 8.42096C8.64648 8.42096 8.74741 8.45603 9.21842 8.70151C9.92494 9.05219 10.8333 8.98206 10.8333 8.98206C10.2277 8.73658 9.95859 8.00014 9.85766 7.33384ZM3.33074 5.29986C2.9943 5.29986 2.72515 5.01932 2.72515 4.66863C2.72515 4.31795 2.9943 4.0374 3.33074 4.0374C3.66718 4.0374 3.93633 4.31795 3.93633 4.66863C3.93633 4.98425 3.66718 5.29986 3.33074 5.29986ZM5.41666 5.29986C5.08023 5.29986 4.81107 5.01932 4.81107 4.66863C4.81107 4.31795 5.08023 4.0374 5.41666 4.0374C5.7531 4.0374 6.02225 4.31795 6.02225 4.66863C6.02225 4.98425 5.7531 5.29986 5.41666 5.29986ZM7.53623 5.29986C7.19979 5.29986 6.93064 5.01932 6.93064 4.66863C6.93064 4.31795 7.19979 4.0374 7.53623 4.0374C7.87267 4.0374 8.14182 4.31795 8.14182 4.66863C8.14182 4.98425 7.87267 5.29986 7.53623 5.29986Z" fill="#FF9040"/>
</svg>
