<svg width="15" height="15" viewBox="0 0 15 15" fill="none" xmlns="http://www.w3.org/2000/svg">
<path fill-rule="evenodd" clip-rule="evenodd" d="M9.11078 7.17618C8.25356 8.03339 6.88201 8.03339 6.0248 7.17618C5.06471 6.25038 4.68754 5.05028 4.65325 3.43871C4.51609 2.10145 5.7162 1.07279 7.39634 1.00421C8.21927 0.969921 8.97362 1.14136 9.6594 1.6557C10.1052 1.99858 10.3795 2.44434 10.448 2.95867C10.6195 4.57023 10.2766 6.01036 9.11078 7.17618ZM12.6432 9.71394C13.2947 9.98825 13.6376 10.4683 13.6033 11.2226C13.5861 11.4455 13.5861 11.6598 13.5861 11.8741C13.5861 12.0884 13.5861 12.3027 13.569 12.5256C13.569 13.4514 13.0204 14 12.0946 14H2.8709C1.97939 14 1.43077 13.4514 1.39648 12.5599V11.1884C1.39648 10.5712 1.67079 10.1254 2.18512 9.8511C2.42515 9.67966 2.66517 9.57679 2.93948 9.47392C3.09917 9.41585 3.25733 9.35778 3.41461 9.30003C4.00024 9.08501 4.57359 8.87449 5.16824 8.68528C5.61399 8.51384 5.8883 8.65099 6.16261 9.02817C6.3512 9.30248 6.53979 9.56822 6.72838 9.83395C6.91697 10.0997 7.10555 10.3654 7.29414 10.6397C7.36272 10.7083 7.43129 10.8112 7.49986 10.914L7.49987 10.914C7.52994 10.8689 7.56001 10.8304 7.58719 10.7956C7.62199 10.751 7.65206 10.7125 7.67132 10.674C7.85991 10.4169 8.0485 10.1511 8.23709 9.88538C8.42567 9.61964 8.61426 9.35391 8.80284 9.09675C9.07715 8.75386 9.59148 8.54813 10.0715 8.71957C10.1714 8.75553 10.2718 8.79149 10.3724 8.82756C11.1356 9.10102 11.9161 9.38072 12.6432 9.71394Z" fill="white"/>
</svg>
