<svg width="1157" height="230" viewBox="0 0 1157 230" fill="none" xmlns="http://www.w3.org/2000/svg">
<path d="M1042.9 129.942C1060.88 129.942 1078.86 129.942 1096.84 129.942C1096.84 120.544 1096.84 111.146 1096.84 102.156C1068.64 102.156 1040.45 102.156 1011.84 102.156C1011.84 138.932 1011.84 175.3 1011.84 211.667C1060.06 211.667 1108.28 211.667 1156.09 211.667C1156.09 202.269 1156.09 193.279 1156.09 183.472C1118.09 183.472 1080.49 183.472 1042.9 183.472C1042.9 165.493 1042.9 147.922 1042.9 129.942Z" fill="#2A6FC6"/>
<path d="M118.998 111.145C106.33 105.016 92.4371 101.338 78.9525 97.6608C70.3713 95.2091 61.3816 93.1659 53.6177 89.0797C43.4021 84.1762 38.9072 75.1865 41.7676 62.1105C43.8107 52.3035 51.5746 47.4 60.5644 45.3568C72.8231 42.4965 84.6732 44.5396 96.5233 49.0345C105.513 52.7121 114.094 56.7983 122.267 62.5191C127.987 53.938 133.708 45.7655 139.429 37.1844C122.675 26.1515 104.696 19.2049 84.6732 17.5704C82.6301 16.7531 80.1783 17.979 78.1352 17.1617H65.8765C64.242 17.979 62.1989 17.1617 60.5644 17.5704C58.9299 17.5704 57.2954 17.979 56.0695 17.979C45.4452 19.6135 35.6382 23.2911 26.6485 29.8291C11.5294 40.862 5.40001 55.5725 5.40001 73.9606C5.80864 92.7573 13.5725 106.242 30.3261 114.823C41.7676 120.952 54.435 124.221 67.1023 127.49C78.5438 130.351 89.5767 133.211 100.201 138.523C114.094 145.47 114.503 159.772 110.825 168.761C107.556 176.934 101.018 180.203 93.2543 182.655C83.856 185.515 74.049 184.698 64.242 183.063C49.5315 180.203 36.4555 173.256 24.1968 164.675C22.5623 163.449 21.3364 162.632 19.7019 161.406C13.1639 169.17 6.62589 176.934 0.0878906 185.106C1.31376 186.332 2.13101 187.15 3.35689 187.967C13.1639 195.731 24.1968 200.634 36.0469 204.72C58.1126 212.484 80.587 214.527 103.47 208.807C127.579 202.677 145.967 186.741 147.601 159.363C148.419 146.696 146.784 134.846 137.794 125.039C132.482 118.501 125.944 114.414 118.998 111.145Z" fill="#2A6FC6"/>
<path d="M892.932 25.3346C882.716 21.2484 872.092 19.6139 861.468 19.6139C834.907 19.6139 808.347 19.6139 781.377 19.6139C780.56 19.6139 779.334 19.6139 778.517 19.6139C778.517 83.768 778.517 147.513 778.517 211.667C790.776 211.667 802.626 211.667 814.476 211.667C814.476 157.32 814.476 102.973 814.476 48.6262C817.336 48.6262 819.788 48.6262 822.24 48.6262C835.725 49.0349 849.209 47.809 862.694 49.4435C874.544 51.078 884.76 55.5729 890.072 66.6057C893.749 74.3696 894.567 82.5421 893.749 91.1232C891.298 108.285 881.899 118.501 864.737 121.77C857.79 122.996 850.435 122.587 843.488 122.587C841.037 122.587 838.994 122.587 836.133 122.587C842.671 132.394 848.801 141.384 854.521 150.782C868.006 152.008 886.803 147.105 899.879 139.75C909.686 134.029 917.858 127.082 923.17 116.867C933.386 97.2526 932.569 77.6386 924.805 57.616C919.493 42.0883 908.46 31.464 892.932 25.3346Z" fill="#2A6FC6"/>
<path d="M355.592 170.396C344.15 179.386 331.074 182.246 317.181 183.063C290.62 184.698 271.824 172.848 259.156 150.374C251.392 136.889 249.758 122.178 250.984 106.651C253.027 85.4022 263.242 68.2399 280.813 56.7984C301.245 42.9052 332.709 45.357 353.548 61.2933C356.409 63.3364 359.269 66.1968 362.13 68.6486C369.076 60.4761 376.023 52.7122 382.969 44.5397C381.744 42.9052 380.109 41.6793 378.475 40.4535C369.893 33.5068 360.086 28.6033 349.871 24.9257C329.848 18.3877 309.417 17.9791 288.986 21.6567C270.189 25.3343 254.253 33.9155 240.768 47.8087C219.111 70.6917 210.938 98.0695 214.616 129.125C218.702 160.589 235.047 183.881 262.425 199.817C277.953 208.807 295.524 211.259 313.503 211.259C334.343 211.259 353.548 205.946 370.711 193.688C375.614 190.419 380.109 186.741 384.195 181.838C377.249 175.3 370.302 168.762 363.355 162.224C361.312 165.084 358.452 167.944 355.592 170.396Z" fill="#2A6FC6"/>
<path d="M1011.84 20.4307C1011.84 29.829 1011.84 38.8188 1011.84 48.2171C1060.06 48.2171 1108.28 48.2171 1156.09 48.2171C1156.09 38.8188 1156.09 29.829 1156.09 20.4307C1107.87 20.4307 1060.06 20.4307 1011.84 20.4307Z" fill="#2A6FC6"/>
<path fill-rule="evenodd" clip-rule="evenodd" d="M567.668 0C566.851 0.817249 566.034 0.817249 565.216 0H567.668ZM668.598 60.4766C674.319 71.1009 677.996 82.5424 680.448 94.3925C680.56 94.9533 680.611 95.5448 680.659 96.108C680.786 97.5968 680.897 98.8874 682.082 98.8874V122.588H680.448H628.144C627.327 122.588 626.51 122.588 625.692 123.405V167.536H575.84V211.668C583.604 212.894 602.809 207.582 618.337 198.183C641.22 184.29 655.522 164.267 662.469 138.115H680.039C680.639 139.315 680.139 140.294 679.668 141.215C679.498 141.549 679.331 141.875 679.222 142.202C676.77 151.6 673.91 161.407 668.598 169.988C660.834 183.064 651.844 194.914 639.586 204.313C631.822 210.442 623.649 215.754 614.659 219.84C606.487 223.518 598.314 225.97 589.733 228.013C588.978 228.107 588.245 228.18 587.529 228.251C585.143 228.487 582.943 228.705 580.744 229.647H558.269C558.678 229.239 558.678 228.421 558.678 228.013V169.988C558.678 169.579 558.678 168.762 557.861 167.945H509.234V123.405H469.189C475.727 168.354 500.653 196.957 543.559 210.442V227.604C543.15 228.013 542.741 228.013 542.741 228.013C534.16 225.97 525.579 223.109 517.407 219.432C508.826 215.345 501.062 210.033 493.707 203.904C487.169 198.592 481.039 192.462 475.727 185.516C472.049 181.021 469.189 176.526 466.329 171.623C460.199 161.407 456.93 149.965 453.661 138.524C453.048 136.889 452.844 135.153 452.64 133.416C452.435 131.68 452.231 129.943 451.618 128.308V106.243C452.027 106.651 452.844 106.651 453.253 106.651H505.965C506.12 106.651 506.289 106.666 506.468 106.681C507.232 106.747 508.163 106.828 508.826 105.834V80.9079C516.998 76.2087 525.273 71.4074 533.547 66.6061C541.822 61.8047 550.097 57.0034 558.269 52.3041V17.571C551.323 17.1624 531.709 21.6573 516.589 31.0557C493.298 45.3575 478.587 65.7888 471.641 91.5321H454.07C453.788 90.1213 454.285 89.295 454.754 88.515C454.965 88.1655 455.169 87.8252 455.296 87.4459C457.748 77.2302 461.425 67.4233 466.737 58.4335C470.824 51.4869 475.727 44.1316 481.448 38.0023C492.072 26.1522 504.739 16.7538 519.45 10.2158C527.622 6.53817 536.203 4.08642 544.785 2.0433C546.191 1.69168 547.673 1.56698 549.166 1.4414C551.143 1.2751 553.138 1.10724 555 0.408798H565.624C566.442 1.22605 567.259 1.22605 568.076 0.408798H575.431C575.023 1.22605 575.023 2.45192 575.023 3.6778V48.2179V52.7128C591.776 62.111 608.529 71.9178 625.283 81.7246L625.284 81.7251V107.06H664.92C658.382 61.7025 633.456 32.6902 590.142 19.2055V2.86055C590.74 2.26228 591.119 2.32095 591.6 2.39535C591.776 2.42258 591.966 2.45192 592.185 2.45192C601.583 4.49505 610.573 7.35542 618.746 11.8503C632.639 19.2055 644.898 28.6039 655.113 40.8626C660.425 46.992 664.92 53.53 668.598 60.4766ZM525.579 152.009H607.304V91.1235C603.522 88.8984 599.799 86.6733 596.105 84.4646C586.23 78.5614 576.552 72.7759 566.442 67.4233C557.918 72.1866 549.548 77.1037 541.237 81.9859C536.002 85.0614 530.791 88.1229 525.579 91.1235V152.009Z" fill="#EE9F6E"/>
</svg>
